<?xml version="1.0" standalone="no"?>
<!DOCTYPE svg PUBLIC "-//W3C//DTD SVG 1.1//EN" "http://www.w3.org/Graphics/SVG/1.1/DTD/svg11.dtd" >
<svg xmlns="http://www.w3.org/2000/svg">
<metadata>
Created by FontPrep 20130207 at Wed Apr 20 19:41:51 2016
 By Steve Graegert
Copyright (c) 2012 by Dieter Hofrichter. All rights reserved.
</metadata>
<defs>
<font id="6682d872bf2ca68574f17eea0476ae6d" horiz-adv-x='1024' >
  <font-face 
    font-family="Ashbury-BoldItalic"
    font-weight="700"
    font-style="italic"
    font-stretch="normal"
    units-per-em="2048"
    panose-1="2 0 5 3 0 0 0 2 0 3"
    ascent="1536"
    descent="-512"
    x-height="963"
    cap-height="1356"
    bbox="-457 -623 2746 2058"
    underline-thickness="0"
    underline-position="0"
    unicode-range="U+0020-FB06"
  />
<missing-glyph horiz-adv-x="681" 
 />
    <glyph glyph-name="f_f" unicode="ff" horiz-adv-x="1386" 
d="M221 -462q0 38 26 62q27 24 59 24t52 -32q20 -30 44 -48t94 -17q70 0 129 74q96 117 211 635q6 25 60 290t54 278t-34 14t-169 1q-136 0 -188 -2q-18 0 -22 -20q-93 -432 -111 -510q-145 -598 -350 -776q-135 -121 -314 -121q-100 0 -163 39q-41 27 -41 67t25 68
q26 26 60 26t46 -26q25 -43 47 -60q25 -16 76 -16q78 0 137 72q90 109 211 676q70 355 92 456t22 114t-16 13l-139 -2q-27 0 -27 21q0 63 33 69q122 18 138 32q25 21 42 72q17 52 54 155q38 104 86 179t81 105q173 154 371 154q127 0 186 -52q35 -29 35 -81q0 -51 -30 -77
t-60 -26q-68 0 -86 49q-2 6 -6 23t-12 33q-24 39 -90 39t-132 -113q-39 -68 -90 -243t-51 -218q0 -14 27 -14h207q96 0 130 12t51 50t62 172q46 134 94 214q48 78 83 110q36 32 98 74q125 88 332 89q143 0 202 -52q43 -37 43 -88t-37 -84t-77 -32q-70 0 -86 45l-7 21
q-9 34 -16 48q-27 49 -75 49t-92 -26q-123 -74 -214 -389q-49 -169 -49 -191t18 -22l181 4q31 0 30 -37q0 -74 -55 -74l-176 2q-18 0 -23 -20q-96 -455 -126 -577q-191 -793 -648 -791q-109 0 -163 34q-54 35 -54 73z" />
    <glyph glyph-name="fi" unicode="fi" horiz-adv-x="1363" 
d="M92 838q0 63 33 69q104 15 131 25t45 50q17 40 65 176t97 214t85 111t97 76q123 86 344 86q78 1 138 -17t83 -39q68 -59 68 -137t-43 -112t-88 -33q-121 0 -137 112q-16 133 -86 133q-42 0 -89 -26q-46 -26 -75 -68q-96 -137 -148 -314q-52 -176 -51 -198q0 -22 19 -22
q268 0 375 19t147 19t66 -18q26 -20 26 -78q0 -10 -1 -20l-2 -20t-5 -27q-4 -15 -7 -29t-11 -38t-12 -41q-5 -17 -14 -50q-10 -33 -18 -57t-21 -69q-13 -43 -53 -179t-40 -164q0 -47 49 -47t96 61q25 33 40 79t42 46q47 0 47 -39q0 -20 -26 -66t-62 -87q-135 -145 -291 -145
t-155 116q0 74 86 335t86 343q0 43 -60 47q-109 4 -303 4q-18 0 -22 -20q-97 -455 -111 -512q-86 -355 -172 -525t-178 -251q-135 -121 -314 -121q-100 0 -163 39q-41 27 -41 67t25 68q26 26 60 26t46 -26q25 -43 47 -60q25 -16 76 -16q78 0 137 72q90 109 211 676
q70 355 92 456t22 114t-16 13l-139 -2q-27 0 -27 21z" />
    <glyph glyph-name="fl" unicode="fl" horiz-adv-x="1347" 
d="M-238 -610q-100 0 -163 39q-41 27 -41 67t25 68q26 26 60 26t46 -26q25 -43 47 -60q25 -16 76 -16q78 0 137 72q90 109 211 676q70 355 92 456t22 114t-16 13l-139 -2q-27 0 -27 21q0 63 33 69q94 12 133 27q27 8 47 52q21 44 71 199t108 233t136 130q78 53 176 77
q96 24 194 24t208 -31q27 -6 52 -6q24 0 72 18t77 19q29 0 28 -27q-1 -30 -27 -106t-108 -346t-131 -444q-49 -173 -100 -345t-51 -215t49 -43t96 61q25 33 40 79t42 46q47 0 47 -39q0 -20 -26 -66t-62 -87q-135 -145 -291 -145t-155 116q0 44 48 203q165 548 251 878
q41 164 41 256q0 127 -144 127q-47 0 -106 -32t-90 -76q-86 -117 -138 -297q-52 -179 -51 -201q0 -22 19 -22l180 4q31 0 31 -37q0 -74 -56 -74l-176 2q-18 0 -22 -20q-97 -455 -111 -512q-86 -355 -172 -525t-178 -251q-135 -121 -314 -121z" />
    <glyph glyph-name="f_f_i" unicode="ffi" horiz-adv-x="2039" 
d="M92 838q0 63 33 69q122 18 138 32q25 21 42 72q17 52 54 155q38 104 86 179t81 105q173 154 371 154q127 0 186 -52q35 -29 35 -81q0 -51 -30 -77t-60 -26q-68 0 -86 49q-2 6 -6 23t-12 33q-24 39 -90 39t-132 -113q-39 -68 -90 -243t-51 -218q0 -14 27 -14h207
q96 0 130 12t51 50t62 172q44 134 96 212q52 80 88 113t99 76q123 86 344 86q147 -1 218 -55t71 -150q0 -66 -43 -100t-88 -33q-121 0 -137 112q-16 133 -87 133q-43 0 -90 -26t-75 -68q-88 -121 -142 -306q-54 -184 -55 -206q0 -22 18 -22q269 0 376 19t147 19t66 -18
q26 -20 26 -78q0 -10 -1 -20t-3 -27t-20 -81q-19 -64 -28 -97q-10 -33 -18 -57t-21 -69q-13 -43 -53 -179t-40 -164q0 -47 49 -47t96 61q25 33 40 79t42 46q47 0 47 -39q0 -20 -26 -66t-62 -87q-135 -145 -291 -145t-156 116q1 74 87 335t85 343q0 43 -59 47q-109 4 -303 4
q-18 0 -23 -20q-96 -455 -126 -577q-191 -793 -648 -791q-109 0 -163 34q-54 35 -54 73t26 62q27 24 59 24t52 -32q20 -30 44 -48t94 -17q70 0 129 74q96 117 211 635q6 25 60 290t54 278t-34 14t-169 1q-136 0 -188 -2q-18 0 -22 -20q-93 -432 -111 -510
q-145 -598 -350 -776q-135 -121 -314 -121q-100 0 -163 39q-41 27 -41 67t25 68q26 26 60 26t46 -26q25 -43 47 -60q25 -16 76 -16q78 0 137 72q90 109 211 676q70 355 92 456t22 114t-16 13l-139 -2q-27 0 -27 21z" />
    <glyph glyph-name="f_f_l" unicode="ffl" horiz-adv-x="2023" 
d="M221 -462q0 38 26 62q27 24 59 24t52 -32q20 -30 44 -48t94 -17q70 0 129 74q96 117 211 635q6 25 60 290t54 278t-34 14t-169 1q-136 0 -188 -2q-18 0 -22 -20q-93 -432 -111 -510q-145 -598 -350 -776q-135 -121 -314 -121q-100 0 -163 39q-41 27 -41 67t25 68
q26 26 60 26t46 -26q25 -43 47 -60q25 -16 76 -16q78 0 137 72q90 109 211 676q70 355 92 456t22 114t-16 13l-139 -2q-27 0 -27 21q0 63 33 69q122 18 138 32q25 21 42 72q17 52 54 155q38 104 86 179t81 105q173 154 371 154q127 0 186 -52q35 -29 35 -81q0 -51 -30 -77
t-60 -26q-68 0 -86 49q-2 6 -6 23t-12 33q-24 39 -90 39t-132 -113q-39 -68 -90 -243t-51 -218q0 -14 27 -14h207q96 0 130 12t51 50t68 195q50 157 112 235q182 232 510 233q98 0 208 -31q27 -6 52 -6q24 0 72 18t77 19q29 0 28 -27q-1 -30 -27 -106t-108 -346t-131 -444
q-49 -173 -100 -345t-51 -215t49 -43t96 61q25 33 40 79t42 46q47 0 47 -39q0 -20 -26 -66t-62 -87q-135 -145 -291 -145t-156 116q1 41 49 202q182 603 236 823q55 220 55 312q0 127 -143 127q-47 0 -106 -32t-91 -76q-86 -117 -137 -297q-51 -179 -51 -201t18 -22l181 4
q31 0 30 -37q0 -74 -55 -74l-176 2q-18 0 -23 -20q-96 -455 -126 -577q-191 -793 -648 -791q-109 0 -163 34q-54 35 -54 73z" />
    <glyph glyph-name="T_h" unicode="Th" horiz-adv-x="2361" 
d="M678 1194q0 28 -19 37q-29 12 -123 12t-158 -47q-62 -47 -102 -168q-12 -31 -55 -31t-43 35q0 6 84 289q12 37 39 37q2 0 92 -6t389 -6q298 0 442 2t204 4t65 2q92 0 131 61t63 105t87 43q102 0 102 -58q0 -31 -60 -199t-132 -372q-71 -205 -93 -263q-22 -57 -22 -65
t11 -8t17 10q74 117 129 172q176 176 357 176q59 0 97 -30t38 -82q0 -104 -98 -360t-99 -307q0 -52 41 -52q74 0 121 86q18 39 27 63q10 37 48 37t38 -41t-78 -139q-135 -158 -317 -158q-139 0 -140 113q1 62 45 182q140 381 140 457q0 47 -41 47q-51 0 -117 -60t-166 -209
q-98 -150 -141 -345q-4 -18 -9 -77t-32 -78t-91 -19t-100 27q-35 28 -35 64q0 35 24 113q192 620 261 873q12 49 12 87t-26 54q-63 41 -373 41q-88 0 -112 -19t-35 -75l-193 -848q-20 -94 -20 -126t8 -42q12 -35 100 -35l47 2q35 0 35 -43q0 -19 -12 -39t-37 -20l-336 12
l-303 -12q-35 0 -35 47q0 19 12 37t31 18l43 -2q84 0 115 42t57 159l191 827q10 40 10 68z" />
    <glyph glyph-name="Tcaron_h" unicode="&#x164;h" horiz-adv-x="2361" 
d="M588 1777q0 15 11 26q28 28 71 -5q116 -84 158 -124t54 -40t38 17q176 115 231 146t78 6q10 -11 10 -26t-14 -26q-254 -237 -289 -273t-75 -36t-62 33q-80 117 -199 272q-12 15 -12 30zM678 1194q0 28 -19 37q-29 12 -123 12t-158 -47q-62 -47 -102 -168q-12 -31 -55 -31
t-43 35q0 6 84 289q12 37 39 37q2 0 92 -6t389 -6q298 0 442 2t204 4t65 2q92 0 131 61t63 105t87 43q102 0 102 -58q0 -31 -60 -199t-132 -372q-71 -205 -93 -263q-22 -57 -22 -65t11 -8t17 10q74 117 129 172q176 176 357 176q59 0 97 -30t38 -82q0 -104 -98 -360
t-99 -307q0 -52 41 -52q74 0 121 86q18 39 27 63q10 37 48 37t38 -41t-78 -139q-135 -158 -317 -158q-139 0 -140 113q1 62 45 182q140 381 140 457q0 47 -41 47q-51 0 -117 -60t-166 -209q-98 -150 -141 -345q-4 -18 -9 -77t-32 -78t-91 -19t-100 27q-35 28 -35 64
q0 35 24 113q192 620 261 873q12 49 12 87t-26 54q-63 41 -373 41q-88 0 -112 -19t-35 -75l-193 -848q-20 -94 -20 -126t8 -42q12 -35 100 -35l47 2q35 0 35 -43q0 -19 -12 -39t-37 -20l-336 12l-303 -12q-35 0 -35 47q0 19 12 37t31 18l43 -2q84 0 115 42t57 159l191 827
q10 40 10 68z" />
    <glyph glyph-name="f_b" unicode="fb" horiz-adv-x="1832" 
d="M1499 674q0 104 -76 104q-88 0 -189 -116q-102 -116 -156 -246q-54 -131 -54 -233t100 -101q162 0 289 270q86 187 86 322zM-238 -610q-100 0 -163 39q-41 27 -41 67t25 68q26 26 60 26t46 -26q25 -43 47 -60q25 -16 76 -16q78 0 137 72q90 109 211 676q70 355 92 456
t22 114t-16 13l-139 -2q-27 0 -27 21q0 63 33 69q94 12 133 27q27 8 47 52q21 44 71 199t108 233t136 130q78 53 176 77q96 24 192 24t206 -31q27 -6 52 -6q24 0 72 18t77 19q29 0 28 -27q0 -30 -8 -54q-94 -288 -196 -589q-89 -244 -107 -289t-18 -52t12 -7t18 12
q88 135 205 228t250 94q86 -1 141 -55t56 -146q0 -223 -138 -463q-84 -145 -236 -236t-296 -92q-319 0 -320 238q0 91 31 199t106 358q162 540 162 657q0 127 -139 127q-47 0 -106 -32t-90 -76q-86 -117 -138 -297q-52 -179 -51 -201q0 -22 19 -22l180 4q31 0 31 -37
q0 -74 -56 -74l-176 2q-18 0 -22 -20q-97 -455 -111 -512q-86 -355 -172 -525t-178 -251q-135 -121 -314 -121z" />
    <glyph glyph-name="f_f_b" unicode="ffb" horiz-adv-x="2508" 
d="M2175 674q0 104 -76 104q-88 0 -189 -116q-102 -116 -156 -246q-54 -131 -54 -233t100 -101q162 0 289 270q86 187 86 322zM221 -462q0 38 26 62q27 24 59 24t52 -32q20 -30 44 -48t94 -17q70 0 129 74q96 117 211 635q6 25 60 290t54 278t-34 14t-169 1q-136 0 -188 -2
q-18 0 -22 -20q-93 -432 -111 -510q-145 -598 -350 -776q-135 -121 -314 -121q-100 0 -163 39q-41 27 -41 67t25 68q26 26 60 26t46 -26q25 -43 47 -60q25 -16 76 -16q78 0 137 72q90 109 211 676q70 355 92 456t22 114t-16 13l-139 -2q-27 0 -27 21q0 63 33 69
q122 18 138 32q25 21 42 72q17 52 54 155q38 104 86 179t81 105q173 154 371 154q127 0 186 -52q35 -29 35 -81q0 -51 -30 -77t-60 -26q-68 0 -86 49q-2 6 -6 23t-12 33q-24 39 -90 39t-132 -113q-39 -68 -90 -243t-51 -218q0 -14 27 -14h207q96 0 130 12t51 50t68 195
q50 157 112 235q182 232 508 233q96 0 206 -31q29 -6 53 -6q23 0 71 18t76 19q28 0 29 -28q0 -29 -8 -53q-66 -202 -197 -589q-88 -244 -106 -289t-18 -52t12 -7t18 12q88 135 205 228t250 94q86 -1 141 -55t55 -146q0 -223 -137 -463q-84 -145 -236 -236t-296 -92
q-319 0 -320 238q0 91 31 199t105 358q163 543 163 657q0 127 -139 127q-47 0 -106 -32t-91 -76q-86 -117 -137 -297q-51 -179 -51 -201t18 -22l181 4q31 0 30 -37q0 -74 -55 -74l-176 2q-18 0 -23 -20q-96 -455 -126 -577q-191 -793 -648 -791q-109 0 -163 34
q-54 35 -54 73z" />
    <glyph glyph-name="f_f_h" unicode="ffh" horiz-adv-x="2566" 
d="M221 -462q0 38 26 62q27 24 59 24t52 -32q20 -30 44 -48t94 -17q70 0 129 74q96 117 211 635q6 25 60 290t54 278t-34 14t-169 1q-136 0 -188 -2q-18 0 -22 -20q-93 -432 -111 -510q-145 -598 -350 -776q-135 -121 -314 -121q-100 0 -163 39q-41 27 -41 67t25 68
q26 26 60 26t46 -26q25 -43 47 -60q25 -16 76 -16q78 0 137 72q90 109 211 676q70 355 92 456t22 114t-16 13l-139 -2q-27 0 -27 21q0 63 33 69q122 18 138 32q25 21 42 72q17 52 54 155q38 104 86 179t81 105q173 154 371 154q127 0 186 -52q35 -29 35 -81q0 -51 -30 -77
t-60 -26q-68 0 -86 49q-2 6 -6 23t-12 33q-24 39 -90 39t-132 -113q-39 -68 -90 -243t-51 -218q0 -14 27 -14h207q96 0 131 12t53 52t69 195q50 155 110 233q176 232 508 233q98 0 208 -31q27 -6 52 -6q24 0 72 18t77 19q29 0 28 -27q0 -22 -15 -66t-143 -443t-167 -488
q-4 -12 -4 -15q0 -12 11 -12t17 10q74 117 129 172q176 176 357 176q59 0 97 -30t38 -82q-1 -104 -99 -360t-98 -307q0 -52 41 -52q74 0 121 86q18 39 27 63q10 37 48 37t38 -41t-78 -139q-135 -158 -318 -158q-139 0 -139 113q0 65 44 184q140 379 140 455q0 47 -41 47
q-51 0 -117 -60t-165 -209q-98 -150 -141 -345q-4 -18 -10 -78t-32 -78q-27 -18 -91 -18t-99 28t-35 63q0 36 8 64q141 475 295 1030q43 143 43 256q0 127 -143 127q-49 0 -106 -32t-91 -76q-88 -125 -138 -301q-50 -175 -50 -197t18 -22l181 4q31 0 30 -37q0 -74 -55 -74
l-176 2q-18 0 -23 -20q-96 -455 -126 -577q-191 -793 -648 -791q-109 0 -163 34q-54 35 -54 73z" />
    <glyph glyph-name="f_f_j" unicode="ffj" horiz-adv-x="1966" 
d="M92 838q0 63 33 69q122 18 138 32q25 21 42 72q17 52 54 155q38 104 86 179t81 105q173 154 371 154q127 0 186 -52q35 -29 35 -81q0 -51 -30 -77t-60 -26q-68 0 -86 49q-2 6 -6 23t-12 33q-24 39 -90 39t-132 -113q-39 -68 -90 -243t-51 -218q0 -14 27 -14h207
q96 0 130 12t51 50t62 172q44 134 96 212q52 80 88 113t99 76q123 86 344 86q78 1 138 -17t83 -39q68 -59 68 -137t-43 -112t-88 -33q-121 0 -137 112q-16 133 -87 133q-43 0 -89 -26t-74 -68q-96 -137 -148 -314q-52 -176 -51 -198q0 -22 18 -22q256 0 363 19
q108 19 148 19t66 -18q26 -20 26 -98t-105 -455t-161 -521t-148 -265q-47 -61 -137 -115q-91 -54 -189 -55q-98 1 -160 29t-61 67q0 39 25 72q26 33 64 33t71 -53q33 -52 95 -52t120 90q98 154 266 866q49 209 49 277q0 46 -61 51q-109 4 -291 4q-18 0 -23 -20
q-96 -455 -126 -577q-191 -793 -648 -791q-109 0 -163 34q-54 35 -54 73t26 62q27 24 59 24t52 -32q20 -30 44 -48t94 -17q70 0 129 74q96 117 211 635q6 25 60 290t54 278t-34 14t-169 1q-136 0 -188 -2q-18 0 -22 -20q-93 -432 -111 -510q-145 -598 -350 -776
q-135 -121 -314 -121q-100 0 -163 39q-41 27 -41 67t25 68q26 26 60 26t46 -26q25 -43 47 -60q25 -16 76 -16q78 0 137 72q90 109 211 676q70 355 92 456t22 114t-16 13l-139 -2q-27 0 -27 21z" />
    <glyph glyph-name="f_f_k" unicode="ffk" horiz-adv-x="2539" 
d="M2308 809q-42 -1 -102 -31t-115 -75t-55 -69t44 -120t112 -224q69 -128 119 -128t80 42t37 79t46 37t39 -44t-78 -147q-117 -154 -256 -154q-86 0 -133 68q-46 68 -112 232t-78 183q-12 18 -29 36t-17 38t35 60q178 215 363 323q92 55 164 55t111 -26q40 -27 40 -76
t-29 -83q-30 -33 -68 -33t-58 28t-60 29zM221 -462q0 38 26 62q27 24 59 24t52 -32q20 -30 44 -48t94 -17q70 0 129 74q96 117 211 635q6 25 60 290t54 278t-34 14t-169 1q-136 0 -188 -2q-18 0 -22 -20q-93 -432 -111 -510q-145 -598 -350 -776q-135 -121 -314 -121
q-100 0 -163 39q-41 27 -41 67t25 68q26 26 60 26t46 -26q25 -43 47 -60q25 -16 76 -16q78 0 137 72q90 109 211 676q70 355 92 456t22 114t-16 13l-139 -2q-27 0 -27 21q0 63 33 69q122 18 138 32q25 21 42 72q17 52 54 155q38 104 86 179t81 105q173 154 371 154
q127 0 186 -52q35 -29 35 -81q0 -51 -30 -77t-60 -26q-68 0 -86 49q-2 6 -6 23t-12 33q-24 39 -90 39t-132 -113q-39 -68 -90 -243t-51 -218q0 -14 27 -14h207q96 0 131 12t53 52t68 195q51 155 111 233q179 232 508 233q98 0 208 -31q27 -6 52 -6q24 0 72 18t77 19
q29 0 28 -27q0 -28 -34 -134q-399 -1245 -409 -1365q-3 -36 -5 -67q-5 -72 -119 -72q-63 0 -95 28t-32 64q0 37 8 65q209 694 301 1028q45 172 45 256q0 127 -141 127q-49 0 -106 -32t-91 -76q-88 -125 -138 -301q-50 -175 -50 -197t18 -22l181 4q31 0 30 -37q0 -74 -55 -74
l-176 2q-18 0 -23 -20q-96 -455 -126 -577q-191 -793 -648 -791q-109 0 -163 34q-54 35 -54 73z" />
    <glyph glyph-name="f_h" unicode="fh" horiz-adv-x="1890" 
d="M-238 -610q-100 0 -163 39q-41 27 -41 67t25 68q26 26 60 26t46 -26q25 -43 47 -60q25 -16 76 -16q78 0 137 72q90 109 211 676q70 355 92 456t22 114t-16 13l-139 -2q-27 0 -27 21q0 66 33 69q96 12 133 27q27 8 47 52q21 44 71 199t108 233t136 130q78 53 176 77
q96 24 194 24t208 -31q27 -6 52 -6q24 0 72 18t77 19q29 0 28 -27q0 -22 -15 -66t-143 -443t-167 -488q-4 -12 -4 -15q0 -12 11 -12t17 10q74 117 129 172q176 176 357 176q59 0 97 -30t38 -82q-1 -104 -99 -360t-98 -307q0 -52 41 -52q74 0 121 86q18 39 27 63q10 37 48 37
t38 -41t-78 -139q-135 -158 -317 -158q-139 0 -140 113q0 62 44 182q140 381 141 457q0 47 -41 47q-51 0 -118 -60t-165 -209q-98 -150 -141 -345q-4 -18 -10 -78t-32 -78t-90 -18t-100 27q-35 28 -35 64t9 64q141 475 295 1030q43 143 43 256q0 127 -144 127
q-49 0 -106 -32t-90 -76q-88 -125 -138 -301q-50 -175 -51 -197q0 -22 19 -22l180 4q31 0 31 -37q0 -74 -56 -74l-176 2q-18 0 -22 -20q-97 -455 -111 -512q-86 -355 -172 -525t-178 -251q-135 -121 -314 -121z" />
    <glyph glyph-name="f_j" unicode="fj" horiz-adv-x="1290" 
d="M92 838q0 63 33 69q104 15 131 25t45 50q17 40 65 176t97 214t85 111t97 76q123 86 344 86q78 1 138 -17t83 -39q68 -59 68 -137t-43 -112t-88 -33q-121 0 -137 112q-16 133 -86 133q-42 0 -89 -26q-46 -26 -75 -68q-96 -137 -148 -314q-52 -176 -51 -198q0 -22 19 -22
q254 0 363 19q107 19 147 19t66 -18q26 -20 26 -101t-108 -459t-162 -519t-144 -260q-47 -61 -137 -115q-91 -54 -189 -55q-98 1 -159 29t-61 67t24 72q26 33 64 33t71 -53q33 -52 95 -52t120 90q98 154 266 866q49 209 49 277q0 46 -61 51q-109 4 -291 4q-18 0 -22 -20
q-97 -455 -111 -512q-86 -355 -172 -525t-178 -251q-135 -121 -314 -121q-100 0 -163 39q-41 27 -41 67t25 68q26 26 60 26t46 -26q25 -43 47 -60q25 -16 76 -16q78 0 137 72q90 109 211 676q70 355 92 456t22 114t-16 13l-139 -2q-27 0 -27 21z" />
    <glyph glyph-name="f_k" unicode="fk" horiz-adv-x="1863" 
d="M1847 868q-1 -49 -29 -83q-28 -33 -67 -33t-59 28t-60 29q-42 -1 -102 -31t-115 -75t-55 -69q0 -56 164 -355q61 -117 111 -117t80 42t37 79t46 37t39 -44t-78 -147q-117 -154 -256 -154q-86 0 -133 68q-46 68 -112 232t-78 183q-12 18 -29 36q-16 18 -16 38t34 60
q178 215 363 323q92 55 164 55t111 -26q40 -27 40 -76zM-238 -610q-100 0 -163 39q-41 27 -41 67t25 68q26 26 60 26t46 -26q25 -43 47 -60q25 -16 76 -16q78 0 137 72q90 109 211 676q70 355 92 456t22 114t-16 13l-139 -2q-27 0 -27 21q0 66 33 69q96 12 133 27
q27 8 47 52q21 44 71 199t108 233t136 130q78 53 176 77q96 24 194 24t208 -31q27 -6 52 -6q24 0 72 18t77 19q29 0 28 -27q0 -28 -34 -134q-399 -1245 -409 -1365q-3 -36 -5 -67q-5 -72 -119 -72q-63 0 -95 28t-32 64q0 37 8 65q209 694 301 1028q45 172 45 256
q0 127 -141 127q-49 0 -106 -32t-90 -76q-88 -125 -138 -301q-50 -175 -51 -197q0 -22 19 -22l180 4q31 0 31 -37q0 -74 -56 -74l-176 2q-18 0 -22 -20q-97 -455 -111 -512q-86 -355 -172 -525t-178 -251q-135 -121 -314 -121z" />
    <glyph glyph-name="uni0162_h" unicode="&#x162;h" horiz-adv-x="2359" 
d="M678 1194q0 28 -19 37q-29 12 -123 12t-158 -47q-62 -47 -102 -168q-12 -31 -55 -31t-43 35q0 6 84 289q12 37 39 37q2 0 92 -6t389 -6q298 0 442 2t204 4t65 2q92 0 131 61t63 105t87 43q102 0 102 -58q0 -31 -60 -199t-132 -372q-71 -205 -93 -263q-22 -57 -22 -65
t11 -8t17 10q74 117 129 172q176 176 357 176q59 0 97 -30t38 -82q0 -104 -98 -360t-99 -307q0 -52 41 -52q74 0 121 86q18 39 27 63q10 37 48 37t38 -41t-78 -139q-135 -158 -317 -158q-139 0 -140 113q1 62 45 182q140 381 140 457q0 47 -41 47q-51 0 -117 -60t-166 -209
q-98 -150 -141 -345q-4 -18 -9 -77t-32 -78t-91 -19t-100 27q-35 28 -35 64q0 35 24 113q192 620 261 873q12 49 12 87t-26 54q-63 41 -373 41q-88 0 -112 -19t-35 -75l-193 -848q-20 -94 -20 -123t8 -45q20 -35 100 -35l47 2q35 0 35 -43q0 -19 -12 -39t-28 -20t-245 10
q-25 0 -36 -24q-41 -76 -41 -94t22 -27q127 -43 127 -160t-120 -187t-240 -69q-47 0 -47 52q0 53 66 55t115 30q48 28 48 90q0 64 -78 88q-31 10 -31 36t42 105t42 87q0 20 -26 20l-246 -12q-35 0 -35 47q0 19 12 37t31 18l43 -2q84 0 115 42t57 159l191 827q10 40 10 68z
" />
    <glyph glyph-name="uni021A_h" unicode="&#x21a;h" horiz-adv-x="2361" 
d="M690 -244q0 -125 -87 -218t-220 -128q-29 -8 -48 -8t-34 11q-14 11 -14 30q0 37 37 43q76 12 125 53t49 93t-34 84q-34 34 -34 77t34 74t87 31q139 -1 139 -142zM678 1194q0 28 -19 37q-29 12 -123 12t-158 -47q-62 -47 -102 -168q-12 -31 -55 -31t-43 35q0 6 84 289
q12 37 39 37q2 0 92 -6t389 -6q298 0 442 2t204 4t65 2q92 0 131 61t63 105t87 43q102 0 102 -58q0 -31 -60 -199t-132 -372q-71 -205 -93 -263q-22 -57 -22 -65t11 -8t17 10q74 117 129 172q176 176 357 176q59 0 97 -30t38 -82q0 -104 -98 -360t-99 -307q0 -52 41 -52
q74 0 121 86q18 39 27 63q10 37 48 37t38 -41t-78 -139q-135 -158 -317 -158q-139 0 -140 113q1 62 45 182q140 381 140 457q0 47 -41 47q-51 0 -117 -60t-166 -209q-98 -150 -141 -345q-4 -18 -9 -77t-32 -78t-91 -19t-100 27q-35 28 -35 64q0 35 24 113q192 620 261 873
q12 49 12 87t-26 54q-63 41 -373 41q-88 0 -112 -19t-35 -75l-193 -848q-20 -94 -20 -126t8 -42q12 -35 100 -35l47 2q35 0 35 -43q0 -19 -12 -39t-37 -20l-336 12l-303 -12q-35 0 -35 47q0 19 12 37t31 18l43 -2q84 0 115 42t57 159l191 827q10 40 10 68z" />
    <glyph glyph-name=".notdef" horiz-adv-x="681" 
 />
    <glyph glyph-name=".null" horiz-adv-x="0" 
 />
    <glyph glyph-name="nonmarkingreturn" horiz-adv-x="681" 
 />
    <glyph glyph-name="space" unicode=" " horiz-adv-x="438" 
 />
    <glyph glyph-name="exclam" unicode="!" horiz-adv-x="653" 
d="M294 301q68 0 112 -37q44 -38 43 -110q1 -72 -47 -125t-121 -53t-113 39q-40 40 -39 114q0 74 49 123q48 49 116 49zM289 487q0 25 13 130t32 350q20 245 28 288q16 88 64 121t120 33q74 0 112 -31t38 -88t-34 -151t-115 -291t-111 -285t-46 -105t-50 -18q-51 0 -51 47z
" />
    <glyph glyph-name="quotedbl" unicode="&#x22;" horiz-adv-x="620" 
d="M544 887q-38 0 -38 43q0 26 5 82t10 132q5 77 8 130t8 67q23 89 117 89t96 -82q-2 -35 -154 -424q-14 -37 -52 -37zM243 887q-38 0 -38 43q0 26 5 82t10 132q5 77 8 130t8 67q24 89 118 89t95 -82q-2 -35 -154 -424q-14 -37 -52 -37z" />
    <glyph glyph-name="numbersign" unicode="#" horiz-adv-x="1150" 
d="M489 541h170q25 0 31 20l49 139q9 25 9 39t-25 15h-162q-23 0 -31 -21l-53 -147q-4 -9 -6 -27t18 -18zM180 16q0 10 13 43l81 240q8 25 9 31q0 18 -21 18h-131q-29 0 -29 23q4 63 43 143q14 27 43 27h148q25 0 31 20l53 150q6 18 6 26q0 16 -20 17h-160q-27 0 -27 20
q0 45 43 141q12 29 45 29h172q23 0 31 21l92 276q12 35 60 35t49 -25l-9 -32l-84 -232q-6 -18 -6 -26q0 -16 23 -17h168q23 0 31 21l92 274q12 37 59 37t47 -29l-88 -252q-6 -18 -6 -34t20 -17h121q29 0 29 -22q0 -16 -15 -66t-25 -77q-10 -26 -36 -25h-149q-23 0 -31 -21
l-51 -149l-8 -25q0 -18 20 -18h148q29 0 28 -25q0 -51 -39 -137q-16 -31 -39 -31h-168q-23 0 -30 -20l-113 -314q-8 -28 -54 -28t-46 28q0 2 12 39l90 252q6 25 6 27q0 16 -20 16h-168q-23 0 -31 -20l-110 -316q-11 -26 -55 -26t-44 30z" />
    <glyph glyph-name="dollar" unicode="$" horiz-adv-x="1118" 
d="M666 1169q0 14 -17 15q-51 0 -100 -52t-49 -126q0 -111 65 -164q9 -4 17 -4t12 16l68 293q4 16 4 22zM524 96q0 -12 20 -12t36 6q125 47 125 193q0 92 -72 155q-9 6 -19 6t-14 -18l-72 -305q-4 -13 -4 -25zM408 -203q-47 0 -48 33q0 8 5 33l18 82l6 37q0 18 -22 18
q-160 6 -240 76t-80 157q0 55 36 87t85 32q84 0 94 -84q2 -10 4 -47t10 -61t42 -48t67 -24t39 31l80 348q4 13 4 29t-14 24q-252 139 -252 350q0 168 122 276t312 130q16 2 20 22l33 142q10 47 58 47t49 -33q0 -14 -9 -39l-24 -98q-4 -16 -4 -25q0 -18 20 -18
q143 -6 215 -62t72 -143q0 -49 -32 -77t-75 -27q-104 0 -108 82q0 63 -28 100t-70 37q-18 0 -27 -27l-78 -348q-2 -7 -2 -21t10 -20q279 -160 279 -375q0 -170 -128 -271t-323 -124q-25 -4 -32 -35l-27 -121q-10 -45 -57 -45z" />
    <glyph glyph-name="percent" unicode="%" horiz-adv-x="1671" 
d="M1444 575q0 154 -90 154q-82 0 -128 -88t-73 -208t-27 -224q0 -156 101 -156q74 -1 121 95q48 96 72 216t24 211zM1632 508q0 -252 -139 -408q-100 -117 -268 -116q-137 0 -214 78t-77 219q0 244 147 399q111 115 277 115q126 0 200 -76t74 -211zM452 -4q-42 0 -42 29
q0 12 20 43l789 1177q25 37 67 37t41 -29q0 -8 -14 -32l-797 -1192q-22 -33 -64 -33zM612 1079q0 154 -90 154q-82 0 -128 -88t-72 -208t-27 -224q0 -156 100 -156q74 0 121 95t72 216q24 121 24 211zM801 1012q0 -250 -139 -408q-100 -117 -253 -117t-230 78t-77 219
q0 244 148 400q111 115 276 114q127 0 201 -76t74 -210z" />
    <glyph glyph-name="ampersand" unicode="&#x26;" horiz-adv-x="1591" 
d="M592 113q117 0 178 30q32 13 14 39q-115 151 -238 381q-48 88 -60 109t-27 20q-47 0 -88 -61t-41 -193t72 -228q72 -97 190 -97zM1460 244q50 0 49 -38q0 -20 -18 -48q-129 -190 -324 -191q-86 1 -139 19q-52 18 -100 56t-54 38t-20 -10q-127 -97 -348 -97
q-221 -1 -347 103t-126 293q0 311 383 411q25 6 24 21q0 10 -8 26q-41 98 -41 195q0 154 114 248q115 94 319 94t281 -57t77 -133q0 -47 -29 -81t-85 -34q-56 1 -81 27t-29 77q-8 99 -114 99q-68 0 -115 -42t-47 -112t51 -202t140 -286t174 -258q14 -20 22 -20t23 14
q102 123 102 234q0 36 -24 66t-23 73q0 43 27 73q26 30 80 30t84 -32t30 -91q0 -199 -209 -420q-16 -17 -16 -29t10 -22q95 -96 161 -96t113 75q15 27 33 27z" />
    <glyph glyph-name="quotesingle" unicode="'" horiz-adv-x="319" 
d="M243 887q-38 0 -38 43q0 26 5 82t10 132q5 77 8 130t8 67q24 89 118 89t95 -82q-2 -35 -154 -424q-14 -37 -52 -37z" />
    <glyph glyph-name="parenleft" unicode="(" horiz-adv-x="651" 
d="M274 424q0 -397 150 -657q14 -25 14 -37t-17 -32t-40 -20t-39 17q-123 121 -203 328t-80 426q1 346 183 621t493 458q25 14 43 14t34 -19t15 -37q0 -18 -22 -36q-259 -208 -395 -454t-136 -572z" />
    <glyph glyph-name="parenright" unicode=")" horiz-adv-x="651" 
d="M420 797q0 397 -150 657q-14 25 -14 37q0 11 17 31t40 20t39 -16q123 -121 203 -328t80 -426q0 -346 -182 -621t-494 -458q-50 -28 -77 5q-15 18 -15 36t22 37q259 207 395 453t136 573z" />
    <glyph glyph-name="asterisk" unicode="*" horiz-adv-x="714" 
d="M768 948q0 -28 -25 -56t-53 -28t-44 14q-17 14 -25 27q-7 14 -23 45q-16 32 -36 58t-27 26q-20 0 2 -89t22 -109q1 -20 -23 -40t-58 -20t-60 18t-27 48q0 30 43 99t43 86t-8 17q-7 0 -21 -10t-92 -84q-30 -30 -62 -30t-54 24t-23 60q0 73 62 75l83 -2q94 1 94 11
q1 10 -10 18q-37 18 -135 51q-61 18 -61 70q0 31 24 59t48 29q53 0 75 -38t34 -64q11 -26 42 -66q8 -8 16 -8q9 1 9 31t-14 88t-15 63q0 66 82 65q27 0 55 -16t29 -46q0 -30 -45 -93t-45 -96q0 -10 8 -11q11 0 99 86q76 76 130 14q22 -26 23 -61q0 -35 -24 -53t-60 -18
l-64 2q-87 0 -90 -21q0 -8 31 -21q31 -14 46 -20t51 -15t55 -25q18 -15 18 -44z" />
    <glyph glyph-name="plus" unicode="+" horiz-adv-x="1314" 
d="M629 39h-115q-25 0 -25 20q0 14 5 27l90 385h-371q-29 0 -29 21q0 6 4 26l23 88q6 29 33 29h374l91 393q6 37 34 37h117q25 0 25 -21q0 -8 -6 -28l-86 -381h370q25 0 25 -21q0 -8 -4 -28l-23 -90q-10 -25 -33 -25h-374l-92 -405q-6 -27 -33 -27z" />
    <glyph glyph-name="comma" unicode="," horiz-adv-x="499" 
d="M332 106q0 -154 -110 -280t-277 -205q-33 -16 -70 -16q-43 0 -43 55q0 29 31 41q96 33 175 95t79 149q0 59 -76 121q-45 37 -45 94t47 99t122 42q75 1 121 -55t46 -140z" />
    <glyph glyph-name="hyphen" unicode="-" horiz-adv-x="569" 
d="M461 424h-357q-43 0 -43 51t29 113q16 37 51 37h355q47 0 47 -49q1 -48 -21 -100t-61 -52z" />
    <glyph glyph-name="period" unicode="." horiz-adv-x="497" 
d="M176 301q68 0 110 -37q44 -38 44 -110t-47 -125t-120 -53t-113 39q-40 40 -40 114t49 123t117 49z" />
    <glyph glyph-name="slash" unicode="/" horiz-adv-x="843" 
d="M-20 -152q-70 0 -70 46q0 18 29 61l913 1489q27 43 65 43t57 -13q19 -14 19 -32t-18 -51l-930 -1508q-20 -35 -65 -35z" />
    <glyph glyph-name="zero" unicode="0" horiz-adv-x="1204" 
d="M899 940q0 262 -156 262q-129 0 -223 -178q-74 -139 -114 -318t-39 -350q0 -281 168 -280q129 0 208 164q72 140 114 340t42 360zM1194 827q0 -178 -58 -356t-171 -307q-170 -190 -422 -191q-217 0 -345 131t-128 361q0 373 221 627q182 211 448 211q209 -1 332 -127
t123 -349z" />
    <glyph glyph-name="one" unicode="1" horiz-adv-x="1204" 
d="M418 1092q0 45 59 58q59 12 197 66t185 75q46 21 63 22q37 0 36 -37q0 -2 -30 -116t-62 -253l-141 -606q-18 -82 -18 -137q0 -63 92 -64l49 2q37 0 37 -36q0 -68 -58 -68l-292 12l-302 -12q-37 0 -36 39q0 66 51 65l45 -2q69 0 97 35t59 162l122 534q33 145 33 183
t-55 39l-96 -6q-35 0 -35 45z" />
    <glyph glyph-name="two" unicode="2" horiz-adv-x="1204" 
d="M745 952q0 104 -52 154q-52 51 -135 51q-159 0 -230 -164q-18 -45 -66 -45q-57 0 -57 58q0 33 24 73q51 84 157 153t267 68q412 0 412 -321q0 -162 -85 -281q-84 -120 -236 -238t-310 -208q-18 -10 -18 -22t22 -11q94 -4 242 -4q148 1 194 21t72 108q12 37 58 37t45 -31
q0 -10 -31 -128t-47 -185q-8 -41 -74 -41l-401 10l-480 -8q-34 0 -34 40t49 68q117 72 191 121t186 139t176 172t112 196t49 218z" />
    <glyph glyph-name="three" unicode="3" horiz-adv-x="1204" 
d="M1053 445q0 -123 -72 -227t-193 -160q-239 -112 -544 -109q-158 0 -158 82q0 33 20 59t47 25q27 0 85 -25t104 -24q184 0 286 93q101 93 101 281q0 94 -46 150t-138 55q-91 0 -139 -16t-60 -17q-39 0 -39 56t76 63q117 10 182 41q172 82 172 266q0 62 -40 98t-97 35
q-129 0 -211 -124q-27 -41 -73 -41t-48 43q0 43 33 84q51 71 165 119t272 48t234 -66q77 -66 77 -178q1 -114 -91 -193t-231 -109q-25 -4 -29 -19q0 -12 29 -14q326 -28 326 -276z" />
    <glyph glyph-name="four" unicode="4" horiz-adv-x="1204" 
d="M780 986q0 10 -7 11q-7 0 -28 -20q-74 -78 -436 -438q-12 -11 -12 -25t22 -14h299q30 0 38 8t14 27q66 289 88 365t22 86zM688 -53q-73 0 -102 6t-35 14q-6 9 -6 21t6 37l51 219q8 33 8 43q0 23 -32 22h-490q-37 0 -37 37q0 78 45 123q156 152 420 413t383 378
q53 53 119 53t80 -9q16 -9 16 -35q0 -25 -20 -99t-23 -83l-123 -534q-4 -20 -4 -31q0 -16 29 -16h129q18 0 26 -5t8 -37t-28 -114q-16 -39 -53 -39h-133q-16 0 -24 -7t-13 -32l-64 -274q-6 -31 -33 -41t-100 -10z" />
    <glyph glyph-name="five" unicode="5" horiz-adv-x="1204" 
d="M444 891q0 -16 37 -23q549 -57 549 -407q0 -135 -67 -238q-121 -181 -426 -247q-131 -28 -290 -28t-159 77q0 43 23 71t48 29q35 1 79 -23t102 -24q186 0 287 78q100 78 100 227q0 96 -94 164t-289 92q-55 8 -55 59q-1 41 159 524q16 50 41 50l76 -2h127l389 8
q35 0 35 -29q0 -13 -22 -77t-36 -92q-15 -28 -52 -27h-61l-263 2q-115 0 -162 -2q-27 -2 -41 -39q-35 -96 -35 -123z" />
    <glyph glyph-name="six" unicode="6" horiz-adv-x="1204" 
d="M827 531q0 91 -42 145t-94 55q-52 0 -81 -6q-30 -6 -70 -44q-40 -39 -81 -131t-41 -245q0 -240 160 -239q76 0 128 44t76 117q45 133 45 304zM1124 516q0 -238 -147 -390t-406 -153q-205 0 -321 121q-116 122 -115 310q0 369 191 633q92 130 246 209t343 79
q119 0 190 -34t71 -103q0 -37 -30 -65t-65 -27q-68 0 -86 51q-27 80 -139 80q-246 0 -371 -414q-25 -74 -25 -87t9 -13q8 0 20 16q97 117 273 117t269 -92t93 -238z" />
    <glyph glyph-name="seven" unicode="7" horiz-adv-x="1204" 
d="M438 -61q-31 0 -50 18t-19 45q0 59 181 354q109 181 270 415q160 234 163 240q4 5 8 25q0 14 -24 17q-72 6 -291 6q-219 -1 -257 -21q-37 -20 -57 -49t-55 -110q-14 -29 -53 -29q-45 0 -45 45q0 8 41 136t59 206q8 39 62 39l422 -8l393 4q39 0 39 -31q-4 -25 -23 -53
q-463 -750 -674 -1194q-27 -55 -90 -55z" />
    <glyph glyph-name="eight" unicode="8" horiz-adv-x="1204" 
d="M754 766q12 0 32 12q129 90 129 248q0 84 -49 133t-129 49t-133 -54t-53 -132t40 -142q40 -65 126 -102q25 -12 37 -12zM501 571q-13 0 -38 -12q-145 -102 -146 -280q1 -93 63 -151t162 -58t163 58q61 58 61 159q0 162 -244 280q-8 4 -21 4zM552 -27q-226 0 -344 85
q-118 84 -118 216t78 218t211 118q29 8 29 18t-15 19q-143 109 -143 260q0 195 142 294t341 99t300 -78t101 -190t-69 -194q-70 -82 -184 -115q-20 -6 -21 -18q0 -8 17 -17q200 -118 201 -308q0 -190 -150 -299q-150 -108 -376 -108z" />
    <glyph glyph-name="nine" unicode="9" horiz-adv-x="1204" 
d="M714 1233q-245 0 -268 -453q2 -104 41 -155t101 -52q105 0 160 65q116 136 116 346q0 142 -36 195q-36 54 -114 54zM150 795q0 233 154 382q155 148 415 148q205 0 315 -113t109 -302q0 -189 -44 -346t-135 -293t-251 -217t-371 -81q-125 0 -200 38t-74 110q0 47 29 74
q30 27 71 26q63 0 90 -61q30 -88 154 -88q62 0 124 36t123 125t105 211q45 120 45 134t-7 14t-24 -17q-98 -117 -274 -117t-265 94q-89 93 -89 243z" />
    <glyph glyph-name="colon" unicode=":" horiz-adv-x="538" 
d="M516 776q0 -72 -47 -125t-120 -53t-113 40t-39 114q0 74 49 122q48 50 116 50t111 -38t43 -110zM216 301q68 0 112 -37q44 -38 43 -110q0 -72 -47 -125t-120 -53t-113 39q-40 40 -40 114t49 123q48 49 116 49z" />
    <glyph glyph-name="semicolon" unicode=";" horiz-adv-x="538" 
d="M379 106q0 -154 -110 -280t-277 -205q-33 -16 -70 -16q-43 0 -43 55q0 29 31 41q96 33 175 95t79 149q0 59 -76 121q-45 37 -45 94t47 99t122 42q75 1 121 -55t46 -140zM516 776q0 -72 -47 -125t-120 -53t-113 40t-39 114q0 74 49 122q48 50 116 50t111 -38t43 -110z" />
    <glyph glyph-name="less" unicode="&#x3c;" horiz-adv-x="1460" 
d="M1073 61q-10 0 -16 5l-778 419q-21 9 -21 25t6 41l27 111q8 31 33 40l970 431q12 6 26 6q14 1 13 -15q0 -16 -2 -30l-33 -138q-6 -23 -30 -34l-787 -334l631 -318q20 -12 20 -23t-6 -42l-28 -117q-6 -27 -25 -27z" />
    <glyph glyph-name="equal" unicode="=" horiz-adv-x="1460" 
d="M1198 317h-1024q-25 0 -24 27q0 4 4 25l22 98q6 31 39 31h1022q25 0 25 -25q0 -6 -7 -35l-20 -92q-8 -29 -37 -29zM1296 733h-1024q-27 0 -26 27q0 2 4 18l24 105q6 31 37 30h1020q29 0 29 -24q0 -12 -6 -35l-23 -92q-6 -29 -35 -29z" />
    <glyph glyph-name="greater" unicode="&#x3e;" horiz-adv-x="1460" 
d="M449 1139q12 0 24 -9l770 -415q27 -15 14 -60l-28 -120q-2 -23 -29 -35l-973 -432q-37 -19 -39 14q0 8 2 18l35 146q2 20 29 35l788 333l-630 318q-20 12 -20 26t5 39l25 111q4 31 27 31z" />
    <glyph glyph-name="question" unicode="?" horiz-adv-x="989" 
d="M596 154q0 -72 -47 -125t-120 -53t-113 39q-40 40 -40 114t50 123t116 49q68 0 111 -37q43 -38 43 -110zM535 481q-1 -49 -61 -49t-60 104t47 172q47 69 145 144q178 133 178 307q0 57 -33 91q-34 34 -83 34q-123 0 -146 -131q-2 -9 -3 -23t-3 -30t-2 -23
q-12 -94 -129 -94q-51 0 -81 30t-30 74q0 100 72 169q130 124 373 122q174 0 268 -70t94 -191q0 -122 -81 -209t-233 -165t-194 -114q-41 -37 -41 -92z" />
    <glyph glyph-name="at" unicode="@" horiz-adv-x="1699" 
d="M1090 729q0 59 -72 58q-136 -2 -238 -140q-45 -61 -82 -159t-36 -160q0 -98 65 -99q135 0 291 277q72 121 72 223zM143 356q0 229 107 432q106 203 308 332t470 129t424 -135q154 -135 154 -391q0 -135 -62 -277t-179 -243q-118 -102 -259 -103q-113 0 -113 105
q1 43 17 95t16 58t-11 6t-18 -12q-147 -256 -348 -256q-86 0 -133 56t-47 133q0 186 164 396t393 210q29 0 70 -10t53 -11q27 0 41 37q14 31 61 31q74 0 74 -41q0 -12 -8 -41q-164 -494 -164 -584q0 -43 39 -43q74 0 138 90t97 200t33 190q0 219 -117 333t-327 115
q-210 0 -376 -113q-167 -114 -256 -292t-89 -381q0 -256 157 -407q157 -150 428 -150t443 153q33 29 55 29q49 0 49 -43q0 -23 -18 -43q-79 -86 -233 -140t-332 -57q-313 0 -507 176t-194 467z" />
    <glyph glyph-name="A" unicode="A" horiz-adv-x="1501" 
d="M557 623q0 -15 11 -19t53 -4h178q63 0 63 29q0 20 -4 53l-39 322q-2 20 -15 20t-30 -27l-192 -323q-25 -37 -25 -51zM924 180q0 41 -11 119l-16 135q-4 37 -17 50t-44 14h-314q-25 0 -38 -10t-31 -39l-95 -148q-53 -80 -60 -109q-7 -28 -7 -45q0 -47 100 -47q10 0 27 2
h14q37 0 37 -41q0 -63 -49 -63l-299 12q-53 0 -113 -6t-63 -6q-37 0 -37 41q0 23 12 43t37 20l39 -2q41 0 78 41q49 49 119 158q397 618 557 887q35 63 47 96t49 51q86 43 164 43q39 0 45 -43q0 -53 153 -1034q16 -111 40 -155t87 -44l33 2q37 0 37 -45q0 -59 -55 -59
l-310 12l-297 -12q-39 0 -38 41q0 63 51 63l53 -2q71 0 93 20t22 60z" />
    <glyph glyph-name="B" unicode="B" horiz-adv-x="1314" 
d="M942 442q0 209 -274 209q-49 0 -75 -4t-34 -43l-65 -282q-18 -78 -18 -145t159 -67q307 0 307 332zM657 756q360 0 361 319q0 88 -52 133t-128 45t-101 -4q-31 -4 -41 -49l-88 -377l-8 -41q0 -20 13 -23t44 -3zM-10 -2q-35 0 -35 43q0 25 14 43t39 18l39 -2q63 0 93 38
t63 181l164 713q43 180 4 207q-20 14 -66 14l-39 -2q-37 0 -37 37q1 26 17 48t49 22l274 -15l336 11q422 0 422 -264q0 -154 -94 -235t-262 -124q-20 -6 -21 -14q0 -10 15 -12q143 -17 222 -93t79 -188t-52 -198q-52 -87 -141 -135q-178 -95 -428 -93l-375 12q-94 0 -184 -6
t-96 -6z" />
    <glyph glyph-name="C" unicode="C" horiz-adv-x="1415" 
d="M430 551q0 -223 100 -345t261 -122q73 0 153 28t125 70t123 170q12 29 54 29t42 -27q0 -20 -26 -109t-54 -127q-29 -38 -104 -71q-164 -72 -389 -72q-307 0 -454 159q-146 159 -146 405t115 451q62 112 154 197t238 138t348 53t367 -55q49 -16 49 -57q0 -4 -5 -57
t-5 -208q0 -47 -47 -47q-35 0 -46 12t-11 38q-2 109 -45 172q-63 94 -249 94t-312 -115q-124 -115 -180 -275t-56 -329z" />
    <glyph glyph-name="D" unicode="D" horiz-adv-x="1533" 
d="M459 212q0 -54 48 -79t177 -24q225 0 370 194q144 195 144 514q0 221 -76 313q-96 115 -286 115q-100 0 -129 -20t-50 -105l-184 -792q-14 -62 -14 -116zM367 1188q0 66 -97 65l-34 -2q-35 0 -35 41q0 63 53 64l268 -8l248 6q360 0 524 -97q106 -61 164 -170t60 -247
q0 -424 -232 -633t-647 -209l-459 6l-203 -8q-39 0 -38 43q0 25 13 43t34 18l39 -2q67 0 93 41t58 185l166 700q25 106 25 164z" />
    <glyph glyph-name="E" unicode="E" horiz-adv-x="1236" 
d="M-25 -4q-37 0 -36 41q0 63 49 63l41 -2q66 0 90 43q31 59 59 183l170 729q34 156 -1 184q-19 16 -68 16l-39 -2q-33 0 -33 35q0 70 47 70l451 -10l475 8q43 0 43 -39q-1 -13 -11 -101t-16 -163q-4 -39 -52 -39t-48 39q0 106 -29 151q-23 27 -57 34t-122 7q-89 0 -167 -6
q-35 0 -49 -53l-80 -340q-6 -20 -6 -47q0 -43 65 -43q95 0 147 20t93 144q12 32 55 32t43 -37q0 -14 -41 -160t-61 -249q-6 -37 -51 -37t-45 35l2 43q0 74 -28 93t-108 19t-97 -10t-23 -39l-74 -327q-12 -53 -12 -95t41 -57q41 -14 195 -14t224 39t144 180q18 31 49 31
q51 0 51 -39q0 -23 -33 -114t-59 -144q-33 -70 -88 -70l-629 12q-127 0 -246 -7t-125 -7z" />
    <glyph glyph-name="F" unicode="F" horiz-adv-x="1212" 
d="M629 66q0 -70 -54 -70l-299 12l-294 -12q-43 0 -43 41q0 25 12 44t35 19l41 -2q57 0 87 36t64 190l170 729q34 156 -1 184q-19 16 -68 16l-39 -2q-33 0 -33 35q0 70 47 70l451 -10l512 8q43 0 43 -39q0 -8 -8 -74t-19 -199q-4 -38 -52 -38t-48 38q0 111 -29 156
q-37 45 -171 45t-212 -6q-35 0 -49 -53l-84 -361q-6 -23 -6 -47q0 -43 65 -43q94 -1 143 19t97 145q12 33 55 33t43 -37q0 -17 -42 -168t-60 -248q-6 -37 -51 -37t-46 35l2 43q0 80 -28 99t-107 19q-80 0 -97 -9q-17 -10 -24 -39l-61 -271q-23 -94 -22 -145q0 -74 102 -74
l45 2q33 0 33 -34z" />
    <glyph glyph-name="G" unicode="G" horiz-adv-x="1544" 
d="M115 543q0 360 239 598q240 238 623 237q244 0 397 -55q39 -12 39 -57q0 -8 -4 -58t-4 -207q-1 -47 -55 -47t-58 45q-10 121 -49 181q-59 92 -264 92q-145 0 -255 -67t-171 -179q-121 -221 -121 -504q0 -202 95 -316t274 -114q92 0 134 18t66 58q23 39 42 132t20 128
q0 80 -105 80l-49 -2q-35 0 -35 45q0 25 12 47t38 23l338 -9q68 0 146 6t81 7q43 0 43 -52q0 -27 -15 -45t-36 -18l-37 2q-41 0 -68 -35q-24 -39 -44 -137t-19 -152l8 -79q0 -17 -14 -33q-15 -16 -29 -20t-71 -10q-57 -7 -76 -12q-19 -6 -54 -16t-51 -13t-82 -16t-158 -14
q-334 0 -502 155t-169 413z" />
    <glyph glyph-name="H" unicode="H" horiz-adv-x="1574" 
d="M991 647h-315q-94 0 -114 -9t-27 -42l-62 -268q-27 -113 -27 -162q0 -68 82 -68l45 2q33 0 33 -34q0 -70 -53 -70q-6 0 -94 6t-183 6l-294 -12q-43 0 -43 41q0 25 12 44t35 19l41 -2q57 0 87 36t64 190l164 706q25 104 25 156q0 68 -82 67l-45 -2q-33 0 -33 35
q0 70 53 70l277 -13l294 13q43 0 43 -41q0 -25 -12 -44t-35 -20l-41 2q-57 1 -86 -35t-65 -192l-47 -203l-6 -37q0 -18 22 -23t96 -5h320q80 0 94 10t25 49l49 213q25 104 24 156q0 68 -82 67l-45 -2q-33 0 -32 35q0 70 53 70l276 -13l295 13q43 0 43 -41q0 -25 -12 -44
t-35 -20l-41 2q-57 1 -86 -35t-65 -192l-162 -698q-27 -113 -27 -162q0 -68 82 -68l45 2q33 0 33 -34q0 -70 -53 -70q-6 0 -94 6t-183 6l-295 -12q-43 0 -43 41q0 25 12 44t35 19l41 -2q57 0 87 36t65 190l61 264q4 16 5 30q0 29 -99 29z" />
    <glyph glyph-name="I" unicode="I" horiz-adv-x="729" 
d="M446 166q0 -68 82 -68l45 2q33 0 33 -34q0 -70 -53 -70q-6 0 -94 6t-183 6l-294 -12q-43 0 -43 41q0 25 12 44t35 19l41 -2q57 0 87 36t64 190l164 706q25 104 25 156q0 68 -82 67l-45 -2q-33 0 -33 35q0 70 53 70l277 -13l294 13q43 0 43 -41q0 -25 -12 -44t-35 -20
l-41 2q-57 1 -86 -35t-65 -192l-162 -698q-27 -113 -27 -162z" />
    <glyph glyph-name="J" unicode="J" horiz-adv-x="743" 
d="M-113 -266q-184 0 -184 102q0 47 28 79q27 32 71 32t77 -40t72 -40q109 0 165 139t238 1020q20 100 20 164t-93 63l-54 -2q-33 0 -32 39q0 66 57 66l307 -13l287 13q45 0 45 -39q0 -66 -49 -66l-39 2q-49 -1 -81 -27t-66 -175t-78 -374t-78 -367q-33 -142 -106 -256
q-129 -201 -340 -284q-89 -36 -167 -36z" />
    <glyph glyph-name="K" unicode="K" horiz-adv-x="1564" 
d="M446 166q0 -68 82 -68l45 2q33 0 33 -34q0 -70 -53 -70q-6 0 -94 6t-183 6l-294 -12q-43 0 -43 41q0 25 12 44t35 19l41 -2q57 0 87 36t64 190l164 706q25 104 25 156q0 68 -82 67l-45 -2q-33 0 -33 35q0 70 53 70l277 -13l294 13q43 0 43 -41q0 -25 -12 -44t-35 -20
l-41 2q-57 1 -86 -35t-65 -192l-162 -698q-27 -113 -27 -162zM895 756q0 -22 18 -60q176 -332 369 -542q43 -45 92 -45l41 2q37 0 37 -48t-51 -61q-53 -12 -205 -12t-220 66q-70 66 -128 166t-135 243q-77 144 -100 167q-24 24 -23 46q0 45 52 61t135 82q83 65 225 215
t143 178q0 37 -53 37l-45 -2q-31 0 -31 33q0 32 14 54t39 22l266 -17q49 1 128 9t85 8q43 0 43 -41q0 -68 -55 -68l-41 2q-61 -4 -104 -30q-135 -84 -385 -337q-54 -54 -82 -80t-29 -48z" />
    <glyph glyph-name="L" unicode="L" horiz-adv-x="1232" 
d="M451 190q0 -42 41 -57q41 -14 191 -14t219 39t149 190q18 31 49 31q55 0 55 -39q0 -23 -34 -122q-35 -100 -63 -160t-83 -60l-629 12q-127 0 -246 -7t-125 -7q-37 0 -36 41q0 63 49 63l41 -2q66 0 90 43q31 59 59 183l164 706q25 104 25 156q0 68 -82 67l-45 -2
q-33 0 -33 35q0 70 53 70l277 -13l299 13q43 0 43 -41q-1 -25 -13 -44t-35 -20l-40 2q-61 0 -91 -34q-29 -37 -65 -193l-172 -741q-12 -53 -12 -95z" />
    <glyph glyph-name="M" unicode="M" horiz-adv-x="1845" 
d="M1430 1061q0 10 -10 10t-21 -18q-49 -81 -277 -451t-272 -444q-45 -74 -70 -115q-26 -41 -70 -41t-46 45q-18 166 -72 552q-54 387 -62 433t-16 45q-18 0 -20 -18q-172 -660 -194 -747t-21 -142q0 -68 94 -68l51 2q35 0 35 -37q0 -69 -66 -69q-4 0 -80 6q-77 6 -165 6
t-136 -6t-55 -6q-41 0 -41 53t53 53l35 -2q61 0 92 36t72 179q203 696 219 776t16 101q0 59 -77 59l-58 -2q-33 0 -32 41q0 66 55 66l272 -15l189 13q31 0 34 -35q10 -143 36 -327t71 -498q4 -18 14 -19q10 0 37 43q229 365 465 791q25 45 70 45l200 -13q70 -1 145 7t81 8
q43 0 43 -43q0 -63 -50 -64l-40 2q-51 -1 -82 -25q-30 -24 -50 -108t-137 -790q-18 -111 -18 -162q0 -66 92 -66l47 2q35 0 35 -41q0 -66 -64 -65l-327 14q-72 0 -173 -7q-100 -7 -104 -7q-41 0 -41 39q0 27 14 47t42 20l41 -2q80 0 110 41t60 211t60 339t45 262t22 102v4z
" />
    <glyph glyph-name="N" unicode="N" horiz-adv-x="1568" 
d="M476 1020q-14 0 -25 -50q-12 -50 -35 -153q-23 -104 -75 -332t-52 -282t10 -68q12 -35 96 -35l45 2q35 0 35 -30q0 -74 -59 -74l-223 10q-119 0 -175 -5q-57 -5 -63 -5q-41 0 -41 37q0 68 61 67l35 -2q63 0 99 41q33 45 63 174q123 493 160 655t37 208q0 77 -103 75
l-41 -2q-35 0 -35 33q0 70 54 70l219 -11l176 11q17 0 24 -10t10 -12q3 -3 21 -40t186 -316q168 -280 296 -472q14 -23 26 -23t17 23q129 572 131 688q0 61 -86 61l-60 -2q-41 0 -41 35q-1 29 15 49q16 21 32 21t78 -6q61 -6 185 -7l210 13q49 0 50 -39q1 -25 -13 -45
t-41 -21l-49 2q-61 1 -97 -35t-73 -194q-90 -373 -221 -1001q-11 -49 -67 -49t-72 32q-103 215 -445 752q-106 168 -157 252q-8 10 -22 10z" />
    <glyph glyph-name="O" unicode="O" horiz-adv-x="1503" 
d="M1143 903q1 175 -61 271t-185 96q-225 0 -346 -255t-121 -546q0 -181 69 -285t199 -104q207 0 312 205q133 264 133 618zM1460 838q0 -389 -196 -627t-551 -238q-279 -1 -440 147t-160 419q0 147 45 298t125 255q109 143 254 215t356 71q267 0 417 -140t150 -400z" />
    <glyph glyph-name="P" unicode="P" horiz-adv-x="1284" 
d="M995 1026q0 98 -53 160t-156 63q-50 0 -76 -9t-36 -58l-96 -416q-8 -37 -8 -52q-1 -32 71 -32q168 0 261 87t93 257zM684 573q-78 0 -113 5q-39 0 -49 -48l-51 -208q-25 -106 -25 -148t23 -58q23 -15 74 -16l59 2q39 0 39 -39q0 -66 -68 -65l-323 10q-96 0 -180 -6
t-88 -6q-43 0 -43 35q0 70 51 69l39 -2q61 0 92 45q23 41 57 179l164 704q25 111 25 162q0 66 -82 65l-43 -2q-35 0 -35 31q0 74 51 74l293 -13l342 11q221 0 322 -86t102 -228q0 -229 -182 -348t-451 -119z" />
    <glyph glyph-name="Q" unicode="Q" horiz-adv-x="1503" 
d="M1143 903q1 175 -61 271t-185 96q-225 0 -346 -255t-121 -546q0 -181 69 -285t199 -104q207 0 312 205q133 264 133 618zM2103 -299q0 -31 -37 -53q-145 -78 -447 -78t-500 90q-199 90 -350 189q-151 97 -187 119t-70 32q-188 45 -294 182q-105 137 -105 357
q0 147 45 298t125 255q109 143 254 215t356 71q267 0 417 -140t150 -400q0 -389 -192 -625q-104 -127 -248 -186q-16 -5 -16 -17t12 -20q47 -23 203 -110t291 -134t309 -47q80 0 168 29l71 20q45 0 45 -47z" />
    <glyph glyph-name="R" unicode="R" horiz-adv-x="1472" 
d="M989 1034q0 98 -55 156q-54 58 -126 59q-72 0 -95 -4q-31 -2 -41 -51l-90 -395q-6 -25 -6 -43q-1 -41 90 -41q156 0 240 81t83 238zM-31 -2q-30 0 -30 41q0 21 12 41t37 20l45 -2q57 0 84 43q27 37 57 164l166 721q27 113 27 164q0 63 -88 63l-37 -2q-35 0 -35 39
q0 25 12 45t35 21l281 -13l301 11q233 0 345 -81t111 -210q0 -326 -391 -408q-18 -2 -18 -11t12 -17q78 -53 131 -158q88 -178 170 -301q51 -76 102 -76l41 2q37 0 37 -44t-41 -57t-151 -13t-174 24t-115 86q-53 54 -123 244t-84 215q-23 47 -59 57q-17 6 -55 6t-46 -43
l-61 -264q-20 -90 -21 -143q0 -63 84 -64l37 2q39 0 39 -37q0 -68 -53 -67q-6 0 -108 6t-209 6z" />
    <glyph glyph-name="S" unicode="S" horiz-adv-x="1073" 
d="M459 -29q-103 0 -209 31t-146 64q-27 18 -28 51q-12 188 -13 245q1 41 51 41t56 -36q18 -111 59 -183q25 -44 94 -76t154 -32q283 0 283 227q0 111 -168 238l-135 102q-102 78 -159 160q-56 82 -56 186q0 195 139 292t381 97q129 0 268 -43q61 -18 62 -53q0 -4 -6 -88
t-7 -160q0 -35 -50 -35t-54 43q-4 90 -44 161t-198 71q-115 0 -178 -50t-63 -139q0 -113 131 -211l125 -94q74 -55 104 -80q113 -96 138 -180q17 -55 18 -127q0 -201 -162 -311t-387 -111z" />
    <glyph glyph-name="T" unicode="T" horiz-adv-x="1343" 
d="M1145 1243q-121 0 -145 -19t-35 -75l-193 -848q-20 -94 -20 -126t8 -42q12 -35 100 -35l47 2q35 0 35 -43q0 -19 -12 -39t-37 -20l-336 12l-303 -12q-35 0 -35 47q0 19 12 37t31 18l43 -2q84 0 115 42t57 159l191 827q10 40 10 68t-19 37q-29 12 -123 12t-158 -47
q-62 -47 -102 -168q-12 -31 -55 -31t-43 35q0 6 84 289q12 37 39 37q2 0 92 -6t448 -6t479 5q122 5 126 5q37 0 37 -37q-1 -10 -25 -125t-31 -158q-8 -39 -54 -39t-46 37l4 82q0 55 -26 86q-39 41 -160 41z" />
    <glyph glyph-name="U" unicode="U" horiz-adv-x="1548" 
d="M697 -29q-275 -1 -401 105t-126 280q0 111 28 216q144 552 144 620q0 63 -78 61l-39 -2q-35 0 -35 37q0 68 60 68l299 -13q86 1 164 7t84 6q53 0 53 -41q0 -62 -51 -64l-31 2q-49 1 -83 -25t-75 -196q-135 -571 -135 -688t73 -180t189 -64q215 0 317 106t164 380
q118 509 119 604q0 57 -86 57l-51 -2q-35 0 -35 37q1 30 17 52t45 22l225 -13q57 1 126 7t71 6q49 0 49 -37q0 -68 -41 -68l-49 2q-55 -4 -80 -34q-41 -55 -72 -185q-48 -215 -77 -354q-30 -140 -42 -191q-59 -262 -212 -390t-428 -128z" />
    <glyph glyph-name="V" unicode="V" horiz-adv-x="1415" 
d="M1212 1204q0 49 -56 49h-46l-20 -2q-35 0 -35 39q0 66 55 66l252 -8l178 8q45 0 45 -41q0 -63 -55 -64l-37 2q-49 0 -82 -40t-133 -194t-303 -480q-203 -327 -219 -351t-49 -80t-55 -94t-76 -37q-54 0 -60 48q-6 38 -22 179q-17 140 -136 851q-18 113 -36 156t-58 42
l-47 -2q-37 0 -37 31q0 74 60 74l282 -8q51 0 172 4l121 4q45 0 45 -43q0 -25 -15 -44t-42 -20l-55 2q-57 0 -81 -17q-24 -16 -24 -68t10 -117l72 -543q8 -56 12 -70q3 -14 13 -14t20 13t41 67l319 538q82 137 82 164z" />
    <glyph glyph-name="W" unicode="W" horiz-adv-x="2035" 
d="M1333 -23q-43 0 -51 31q-14 49 -20 89t-138 757q-6 39 -19 39t-36 -39q-149 -234 -313 -508t-196 -322t-73 -47q-41 0 -51 31q-18 81 -88 1030q-10 136 -25 176t-63 39l-37 -2q-35 0 -35 45q0 25 18 42t46 18l270 -8q51 0 172 2l121 2q45 0 45 -39q0 -64 -53 -66l-51 2
q-70 1 -92 -23t-21 -106q0 -82 2 -116l21 -498q2 -45 14 -45t39 43l389 645q82 133 95 155q27 45 68 45q40 1 52 -49q8 -35 27 -145l120 -668q8 -39 19 -38q12 0 35 40l248 500q82 164 82 198t-21 48q-20 14 -78 14l-51 -2q-31 0 -31 33q0 70 53 72l267 -4l166 8
q43 0 43 -47q0 -21 -14 -39t-38 -19l-41 2q-29 0 -50 -22t-99 -167q-377 -706 -460 -865q-84 -160 -104 -191t-63 -31z" />
    <glyph glyph-name="X" unicode="X" horiz-adv-x="1552" 
d="M920 145q0 51 -74 191l-98 190q-16 39 -26 39t-50 -41l-176 -188q-14 -16 -36 -39t-33 -36t-48 -52t-37 -65t14 -34t56 -10l67 2q31 0 31 -41q0 -63 -53 -63q-6 0 -90 6t-163 6t-149 -7t-71 -7q-45 0 -45 47q0 59 57 59l35 -2q43 0 93 42t208 200l309 315q21 27 21 33
t-15 41l-147 293q-43 86 -115 199q-18 31 -61 30l-37 -2q-29 0 -29 47q0 58 55 60l332 -12l246 12q12 0 23 -10t12 -31q0 -66 -56 -66l-49 2q-63 0 -63 -41q0 -23 78 -184l59 -123q23 -45 34 -45t56 45l109 117q119 130 132 154t13 44t-14 26q-14 7 -54 7l-55 -2
q-33 0 -33 52t52 53l249 -13q60 1 118 7t63 6q45 0 45 -52t-45 -53l-35 2q-41 0 -74 -28t-199 -199l-249 -252q-25 -25 -25 -35t10 -34l185 -361q76 -145 116 -209q27 -35 72 -35l35 2q35 0 35 -47q0 -57 -58 -57l-299 12l-299 -12q-37 0 -37 37q0 68 56 67l49 -2
q72 0 72 45z" />
    <glyph glyph-name="Y" unicode="Y" horiz-adv-x="1411" 
d="M967 59q-1 -23 -15 -42t-45 -19l-301 12l-309 -12q-37 0 -37 37q0 25 13 47t40 20l49 -2q72 0 102 45t60 181l43 186q8 29 8 48t-12 50l-155 396q-22 63 -48 121q-26 59 -36 85q-16 41 -66 41l-35 -2q-33 0 -33 37q0 70 62 70q8 0 98 -6t191 -6l329 12q31 0 31 -39
q0 -68 -59 -68l-39 2q-113 0 -113 -75q0 -55 39 -166l68 -199q25 -74 44 -74t77 72l157 205q117 150 117 186t-18 43q-18 8 -54 8h-55l-18 -2q-31 0 -31 33q0 74 57 74l86 -6q83 -6 153 -6t142 6t88 6q40 0 41 -41q0 -27 -13 -45t-30 -19l-43 2q-37 -1 -82 -39t-178 -198
l-332 -402q-4 -4 -11 -19t-14 -24t-12 -38l-49 -211q-43 -172 -2 -205q20 -18 80 -19l35 2q35 0 35 -43z" />
    <glyph glyph-name="Z" unicode="Z" horiz-adv-x="1310" 
d="M1395 1323q0 -25 -23 -47q-588 -711 -893 -1088q-29 -35 -28 -43q0 -20 28 -20l248 -2q219 0 297 51q47 29 77 65t60 105q15 45 61 45t46 -41q0 -27 -109 -317q-12 -33 -55 -33l-76 2l-457 2l-542 -2q-31 0 -31 33q0 23 20 47q311 358 918 1102q23 27 22 37q0 18 -32 18
q-94 2 -224 2t-175 -4q-46 -4 -78 -23q-66 -37 -127 -178q-16 -35 -60 -35t-43 39q0 10 30 95t62 184q14 43 66 43l463 -8h222l302 2q31 0 31 -31z" />
    <glyph glyph-name="bracketleft" unicode="[" horiz-adv-x="677" 
d="M238 -186q0 -19 84 -19l86 2q33 0 32 -39q0 -61 -49 -61l-119 2l-231 -2q-35 0 -35 29q0 16 12 62t17 62l336 1461q14 59 26 121t15 67q10 47 51 47l213 -2l129 2q39 0 39 -37q0 -63 -49 -63l-93 2q-42 0 -66 -3t-34 -46l-360 -1561q-4 -16 -4 -24z" />
    <glyph glyph-name="backslash" unicode="\" horiz-adv-x="978" 
d="M823 -66q0 -45 -58 -45t-75 54l-432 1337q-12 43 -12 59q0 15 17 31t48 16t46 -11t26 -40l428 -1341q12 -33 12 -60z" />
    <glyph glyph-name="bracketright" unicode="]" horiz-adv-x="677" 
d="M494 1425q0 12 -11 17q-18 6 -71 6l-86 -2q-33 0 -33 39q0 61 49 61l119 -2l231 2q35 0 35 -28q0 -32 -29 -125l-336 -1461q-14 -59 -26 -120t-14 -68q-10 -47 -52 -47l-213 2l-129 -2q-39 0 -39 37q0 63 50 63l92 -2q41 0 65 3t35 46l361 1561q2 8 2 20z" />
    <glyph glyph-name="asciicircum" unicode="^" horiz-adv-x="1314" 
d="M1112 541q0 -20 -31 -21h-127q-18 0 -26 21l-119 524l-367 -524q-10 -20 -34 -21h-146q-23 0 -22 15q0 6 14 26l508 688q12 20 35 21h106q23 -1 29 -21l176 -688q4 -6 4 -20z" />
    <glyph glyph-name="underscore" unicode="_" horiz-adv-x="1034" 
d="M950 -201q29 0 29 -22q0 -31 -10 -76q-6 -25 -31 -25h-1032q-31 0 -31 31q0 94 55 92h1020z" />
    <glyph glyph-name="grave" unicode="`" horiz-adv-x="600" 
d="M241 1473q50 0 78 -60q104 -209 125 -245t21 -54t-12 -30t-34 -13q-22 0 -48 29q-139 133 -207 213q-29 33 -29 76q4 35 30 59t76 25z" />
    <glyph glyph-name="a" unicode="a" horiz-adv-x="1220" 
d="M784 784q0 68 -96 68q-68 0 -121 -42t-119 -135t-111 -221q-44 -128 -44 -218q-1 -90 67 -90t150 81q82 82 154 220q120 227 120 337zM885 172q0 -51 54 -51t97 53t56 107q10 31 38 30q41 0 41 -35q1 -24 -41 -100t-138 -139t-187 -64q-137 0 -137 129q0 90 23 157t23 76
t-12 9t-22 -16q-49 -86 -70 -117q-90 -139 -180 -189t-192 -50t-160 58q-59 60 -60 152q0 262 193 504q209 264 481 264q94 0 158 -18l57 -17q20 0 33 17l21 41q19 35 81 35t62 -41q0 -23 -57 -187t-109 -350q-52 -188 -53 -258z" />
    <glyph glyph-name="b" unicode="b" horiz-adv-x="1165" 
d="M831 674q0 104 -75 104q-88 0 -190 -116t-155 -246q-55 -131 -55 -233t101 -101q162 0 288 270q86 187 86 322zM1108 764q0 -223 -137 -463q-84 -145 -237 -236t-296 -92q-319 0 -319 238q0 82 37 219q38 137 156 522t118 442q0 58 -94 81q-20 7 -20 35t24 32
q215 47 367 105q25 8 32 8q29 0 29 -25q0 -10 -10 -39t-75 -223t-132 -389q-89 -244 -107 -289t-18 -52t12 -7t19 12q89 135 205 228t249 94q85 -1 141 -55t56 -146z" />
    <glyph glyph-name="c" unicode="c" horiz-adv-x="907" 
d="M621 881q-142 -1 -264 -299q-64 -156 -64 -268t42 -166q42 -52 114 -52q170 0 256 133q12 19 23 55t42 35q49 0 49 -40q0 -16 -22 -58q-68 -115 -181 -183q-114 -68 -260 -67q-146 0 -228 84t-83 211q0 279 181 490t438 211q94 0 164 -44t69 -114q0 -100 -100 -100
q-84 0 -88 65q-5 55 -23 81t-65 26z" />
    <glyph glyph-name="d" unicode="d" horiz-adv-x="1249" 
d="M807 796q0 76 -114 75t-232 -173q-66 -92 -117 -229t-51 -230t75 -93q76 0 148 75q72 76 155 212q83 137 109 233t27 130zM907 176q0 -55 45 -55q86 0 144 117q8 18 15 46t43 28t36 -31q0 -20 -16 -58q-46 -104 -150 -177t-201 -73q-133 0 -133 113q0 74 24 154t23 90
q0 8 -11 8q-12 0 -22 -13t-32 -49t-45 -65q-182 -240 -383 -240q-117 -1 -171 63t-55 159q0 209 152 438q221 336 532 336q74 -1 107 -11t50 -10t30 45l69 252q27 98 27 150q0 61 -92 82q-23 5 -23 33t27 34q227 49 371 105q25 8 28 8q33 0 33 -27q0 -8 -107 -309t-268 -887
q-47 -176 -47 -256z" />
    <glyph glyph-name="e" unicode="e" horiz-adv-x="931" 
d="M342 547q0 -16 20 -17q8 0 54 14t103 48q56 34 85 66q70 78 70 151q0 74 -70 74t-140 -87t-116 -221q-6 -12 -6 -28zM293 268q0 -76 45 -124q45 -50 104 -50q98 0 156 33q100 57 131 158q10 35 38 35q52 -1 52 -37q0 -20 -24 -64q-63 -106 -175 -177t-258 -71t-232 84
q-85 84 -85 215q0 324 250 557q74 70 171 105t183 35q244 0 244 -176q0 -135 -186 -230q-77 -39 -137 -57t-212 -49q-43 -11 -54 -61t-11 -126z" />
    <glyph glyph-name="f" unicode="f" horiz-adv-x="710" 
d="M-238 -610q-100 0 -163 39q-41 27 -41 67t25 68q26 26 60 26t46 -26q25 -43 47 -60q25 -16 76 -16q78 0 137 72q90 109 211 676q70 355 92 456t22 114t-16 13l-139 -2q-27 0 -27 21q0 63 33 69q94 12 133 27q25 8 44 50q18 42 64 176t93 210q47 78 83 112t95 74
q125 88 332 89q143 0 202 -52q43 -37 43 -88t-36 -84t-78 -32q-70 0 -86 45q-2 6 -8 28t-15 41q-29 49 -76 49t-91 -26q-121 -73 -214 -389q-49 -169 -49 -191t19 -22l180 4q31 0 31 -37q0 -74 -56 -74l-176 2q-18 0 -22 -20q-97 -455 -111 -512q-82 -355 -169 -525
t-181 -251q-135 -121 -314 -121z" />
    <glyph glyph-name="g" unicode="g" horiz-adv-x="1019" 
d="M412 -524q142 0 216 68q72 68 72 146q0 77 -57 120q-91 66 -225 66t-225 -58q-91 -56 -91 -148t84 -143t226 -51zM461 365q96 -1 146 107t50 214t-23 148q-24 40 -86 40t-111 -61q-82 -105 -84 -276q-1 -172 108 -172zM348 152q0 -51 107 -70q301 -53 406 -119t106 -190
q1 -174 -147 -283q-148 -108 -403 -108t-385 78t-130 200q0 141 200 225q90 37 144 47t55 21q0 10 -18 14q-80 19 -121 59t-41 87q0 104 147 155q37 12 37 24t-18 19q-174 59 -174 262q0 170 120 280q121 110 326 110q160 0 246 -52q18 -14 41 -14t47 25q70 66 126 66
q109 -1 107 -89q0 -47 -26 -72t-50 -25t-64 18q-40 17 -50 18q-35 0 -35 -60l6 -76q1 -98 -27 -170t-112 -140t-240 -107q-80 -20 -112 -43q-68 -47 -68 -90z" />
    <glyph glyph-name="h" unicode="h" horiz-adv-x="1222" 
d="M210 -16q-64 0 -99 28t-35 63q0 36 8 64q61 205 212 701t153 544q0 63 -93 91q-22 6 -22 24q0 17 8 29t16 14q217 47 365 105q25 8 37 8q26 1 26 -17t-146 -444t-206 -569q-4 -12 -4 -15q0 -12 11 -12t18 10q74 117 129 172q176 176 356 176q59 0 97 -30t38 -82
q-1 -104 -99 -360t-98 -307q0 -52 42 -52q74 0 120 86q18 39 27 63q10 37 48 37t38 -37q-1 -18 -21 -58t-57 -85q-135 -158 -317 -158q-139 0 -139 113q0 65 44 184q140 379 140 455q0 47 -41 47q-52 0 -118 -60t-164 -209q-98 -150 -142 -345q-4 -18 -9 -78t-32 -78
t-91 -18z" />
    <glyph glyph-name="i" unicode="i" horiz-adv-x="724" 
d="M509 1161q-66 0 -103 38q-37 37 -37 105t45 113q44 45 106 45t98 -34t41 -93q0 -76 -42 -125t-108 -49zM369 172q0 -47 49 -47t96 61q25 33 40 79t42 46q47 0 47 -39q0 -20 -26 -66t-62 -87q-135 -145 -291 -145t-155 116q0 58 100 334t100 332t-37 55q-68 0 -116 -80
q-12 -20 -24 -52t-38 -32q-46 0 -47 31q0 25 21 57q63 98 161 163t205 65q135 0 135 -123q0 -76 -100 -356t-100 -312z" />
    <glyph glyph-name="j" unicode="j" horiz-adv-x="677" 
d="M522 1462q62 0 100 -34t37 -102q0 -68 -42 -116q-42 -49 -108 -49t-103 38q-37 37 -37 105t45 113q46 45 108 45zM-186 -606q-102 0 -156 32q-53 32 -53 74t23 71q24 28 73 28t63 -39q28 -70 90 -70t111 90q82 147 287 907q57 217 57 271t-37 53q-68 0 -116 -80
q-12 -20 -24 -52t-38 -32q-46 0 -47 31q0 25 21 57q63 98 161 163t205 65q135 0 135 -123q1 -96 -107 -468t-169 -531t-150 -277q-45 -62 -136 -116t-193 -54z" />
    <glyph glyph-name="k" unicode="k" horiz-adv-x="1210" 
d="M978 809q-40 -1 -100 -31t-116 -75q-55 -45 -55 -69q0 -57 163 -355q62 -117 112 -117t80 42t37 79t46 37t39 -44t-78 -147q-117 -154 -256 -154q-86 0 -133 68q-45 68 -111 232t-80 183q-12 18 -28 36t-16 38t34 60q178 215 363 323q91 55 163 55t112 -26q40 -27 40 -76
t-29 -83q-29 -33 -67 -33t-59 28t-61 29zM210 -16q-66 0 -98 28t-32 64q0 37 8 65q246 829 334 1135q20 76 20 108q0 63 -90 91q-22 6 -22 24q0 17 8 29t16 14q231 51 371 105q25 8 37 8q27 0 26 -23q0 -12 -45 -140t-226 -707q-181 -578 -187 -680q-2 -25 -4 -53t-26 -48
t-90 -20z" />
    <glyph glyph-name="l" unicode="l" horiz-adv-x="710" 
d="M791 1632q0 -12 -16 -56t-116 -366q-99 -321 -205 -645t-106 -382t43 -58q55 0 103 61q25 33 40 79t41 46q47 0 48 -39q0 -20 -26 -66t-62 -87q-135 -145 -291 -145t-156 116q0 61 180 640t182 648q1 69 -90 97q-22 6 -22 24q0 17 8 29t16 14q217 47 365 105q25 8 37 8
q27 0 27 -23z" />
    <glyph glyph-name="m" unicode="m" horiz-adv-x="1757" 
d="M248 -16q-141 0 -142 104q0 36 96 314t97 362q0 47 -33 47q-45 0 -83 -44t-52 -89q-10 -31 -47 -31t-37 35q0 25 31 70q62 92 158 151t202 60q51 0 80 -27t29 -77t-92 -259q-4 -12 -4 -19t11 -7t17 10q84 147 133 204q145 168 308 168q135 0 135 -114q0 -61 -84 -242
q-4 -12 -4 -19t11 -7t17 10q72 127 135 196q160 176 343 176q141 0 141 -116q0 -65 -22 -134t-51 -144q-121 -324 -124 -392q0 -45 41 -45q61 0 111 70q23 33 35 75t50 41q38 0 38 -37q0 -18 -33 -78t-94 -114q-129 -109 -269 -109t-139 107q0 49 92 321q92 271 92 332
q0 39 -42 39t-95 -45q-145 -125 -205 -266q-80 -193 -88 -267t-9 -112t-8 -54q-18 -44 -108 -44q-141 0 -141 104q1 25 15 73t82 256q68 207 69 281q0 74 -45 74q-39 0 -88 -45q-207 -191 -305 -565q-7 -23 -10 -70t-9 -63q-6 -17 -32 -31t-74 -14z" />
    <glyph glyph-name="n" unicode="n" horiz-adv-x="1253" 
d="M248 -16q-141 0 -142 104q0 24 10 60t97 280q86 244 86 336q0 47 -33 47q-45 0 -83 -44t-52 -89q-10 -31 -47 -31t-37 35q0 25 31 70q62 92 158 151t202 60q51 0 80 -27t29 -77t-92 -259q-4 -12 -4 -19t11 -7t17 10q213 372 490 372q141 0 141 -116q0 -75 -60 -242
q-10 -25 -28 -78t-62 -176t-46 -171q-1 -48 40 -48q61 0 111 70q23 33 35 75t50 41q38 0 38 -37q0 -18 -33 -78t-94 -114q-129 -109 -268 -109t-140 107q0 44 92 319t93 334q0 39 -45 39t-95 -45q-138 -125 -208 -255t-117 -310q-5 -23 -9 -70t-10 -63q-6 -17 -32 -31
t-74 -14z" />
    <glyph glyph-name="o" unicode="o" horiz-adv-x="1036" 
d="M735 729q0 143 -108 143q-96 0 -168 -118t-117 -266q-45 -146 -45 -242q0 -184 115 -185q98 0 170 125q57 98 105 274t48 269zM635 967q158 1 249 -87t91 -225t-44 -267t-117 -221t-176 -143t-222 -53q-170 1 -268 95t-99 249q0 262 184 480q70 78 181 125t221 47z" />
    <glyph glyph-name="p" unicode="p" horiz-adv-x="1216" 
d="M397 166q0 -80 131 -80q109 0 203 143q63 97 107 229t45 206q0 115 -68 114q-72 0 -139 -57q-100 -86 -190 -262t-89 -293zM383 -526q0 -66 -51 -66l-107 4q-109 4 -174 4l-254 -8q-31 0 -33 39q0 59 48 59l43 -2q85 0 135 176q26 92 122 412t136 463q40 144 40 200
t-34 56q-61 0 -117 -94q-4 -8 -16 -39t-48 -31t-36 31q0 18 12 41q59 102 163 173t230 71q47 0 76 -27q29 -26 29 -82t-90 -250q-4 -12 -4 -18t9 -6t21 12q216 370 484 371q90 -1 141 -59t51 -142q0 -246 -149 -477q-94 -147 -224 -223t-268 -76q-76 0 -122 7t-52 7
q-14 0 -22 -29q-117 -380 -116 -412t21 -43t66 -12l55 2q35 0 35 -32z" />
    <glyph glyph-name="q" unicode="q" horiz-adv-x="1153" 
d="M788 772q0 72 -106 72t-207 -137q-72 -97 -127 -231t-55 -204t15 -98q15 -27 61 -27q78 0 163 103q118 134 176 264t69 174t11 84zM710 346q-8 0 -18 -14t-76 -115q-160 -246 -368 -246q-111 1 -170 61t-60 158q0 236 185 488q98 135 229 206q132 70 246 70t162 -18
t72 -18t33 9t31 45t84 36q61 0 60 -39q0 -25 -40 -158t-165 -585t-149 -536t-25 -120q0 -63 82 -64l49 2q31 0 31 -38q0 -61 -45 -62l-342 8l-211 -8q-35 0 -35 37q0 25 12 42t25 17l62 -2q67 0 99 46t60 145q139 473 185 618l6 25q0 10 -9 10z" />
    <glyph glyph-name="r" unicode="r" horiz-adv-x="933" 
d="M238 -16q-53 0 -93 24q-39 25 -39 70t15 90t61 169q47 124 79 224t32 197q0 53 -39 53q-57 0 -113 -86q-10 -18 -22 -53q-6 -25 -44 -25t-38 31q0 25 20 57q154 227 379 228q39 0 69 -22q30 -21 30 -83t-82 -266q-16 -33 4 -33q8 0 14 12q78 156 176 272q98 115 218 115
t120 -94q0 -45 -31 -93t-90 -48q-32 1 -52 21t-52 20t-78 -37q-47 -37 -113 -132q-65 -95 -97 -157t-68 -170t-38 -150t-14 -88t-114 -46z" />
    <glyph glyph-name="s" unicode="s" horiz-adv-x="813" 
d="M150 692q0 115 104 195t258 80t217 -60q41 -41 41 -91t-31 -76t-71 -25q-76 0 -90 51q-2 6 -4 24q-7 84 -82 84q-55 0 -92 -33q-36 -34 -36 -82t32 -93t138 -123t144 -145q39 -67 39 -144q0 -115 -97 -200q-98 -85 -274 -85t-287 80q-70 53 -69 133q0 49 26 80
q27 31 78 31t75 -22t24 -50l-5 -47q0 -43 33 -76q33 -32 107 -32t118 34q46 34 46 87q0 55 -37 101t-171 148t-134 256z" />
    <glyph glyph-name="t" unicode="t" horiz-adv-x="753" 
d="M383 176q0 -45 41 -45q31 0 75 31t68 82q2 6 15 41q8 33 48 33t40 -37q0 -14 -17 -52q-49 -102 -154 -179t-235 -77q-66 0 -108 37t-43 109q0 72 95 362t95 326q0 12 -16 12l-117 -2q-33 0 -33 27q0 18 8 43q8 20 43 22q111 12 142 25q92 39 151 162q33 70 93 70t61 -50
q-1 -24 -23 -100t-22 -80q0 -12 24 -12l158 4q41 0 41 -33q0 -78 -55 -78l-170 2q-20 0 -27 -20q-20 -61 -61 -197t-79 -258q-38 -123 -38 -168z" />
    <glyph glyph-name="u" unicode="u" horiz-adv-x="1280" 
d="M961 186q0 -64 49 -65q66 0 125 117q2 4 14 41q8 33 44 33t36 -26t-21 -71q-53 -113 -144 -177t-181 -65q-154 0 -154 125q0 68 72 273q4 12 4 17t-9 5t-16 -12q-49 -98 -162 -229q-158 -178 -328 -178t-171 159q0 59 95 312t95 323q0 43 -37 43q-63 0 -116 -80
q-14 -23 -26 -53t-47 -31q-36 0 -36 32t27 69q158 215 377 215q51 0 85 -29t33 -76q0 -100 -93 -336t-93 -296t51 -60q66 0 152 87t164 228q131 242 133 373q0 92 94 92q164 0 164 -69q-1 -23 -11 -55t-20 -68q-10 -35 -21 -73q-11 -39 -31 -105t-59 -196q-38 -130 -38 -194
z" />
    <glyph glyph-name="v" unicode="v" horiz-adv-x="1120" 
d="M1042 756q0 -315 -206 -549q-207 -233 -500 -234q-98 1 -150 49t-51 140q0 92 87 310t87 279q0 60 -35 60q-91 0 -147 -139q-10 -25 -45 -25t-35 31t23 63q61 92 159 157q97 65 191 65t122 -36t28 -100t-88 -287q-86 -223 -86 -277t24 -79q25 -25 67 -24q186 0 307 162
q120 162 119 354q0 135 -98 209q-39 27 -39 59t30 63t83 31t92 -57q61 -90 61 -225z" />
    <glyph glyph-name="w" unicode="w" horiz-adv-x="1640" 
d="M1563 755q-1 -137 -59 -283q-117 -293 -348 -431q-112 -68 -205 -68q-191 0 -191 183q0 56 13 124t13 81t-10 14q-10 0 -14 -13q-88 -192 -207 -290t-246 -99q-182 0 -182 160q0 57 19 122t91 255t72 246t-37 55q-66 0 -120 -86q-4 -8 -27 -59q-7 -18 -31 -18
q-46 -1 -47 29q0 30 27 71q66 96 162 155t184 59t119 -33q31 -34 31 -78q0 -45 -18 -105q-17 -60 -91 -256t-74 -246q0 -82 59 -82q74 0 158 95t152 269t86 332q4 44 39 64t121 20t88 -55q0 -57 -31 -168q-72 -264 -72 -457q0 -100 78 -100q143 0 254 175t111 349
q0 131 -95 199q-39 27 -39 59t30 63t83 31t92 -57q62 -90 62 -226z" />
    <glyph glyph-name="x" unicode="x" horiz-adv-x="1185" 
d="M-51 74q-1 40 21 64t52 24t54 -16q26 -16 62 -16q80 2 311 304q10 14 10 26q-1 12 -29 95q-28 85 -60 149t-46 78q-16 14 -37 15q-70 0 -113 -138q-8 -33 -46 -33t-38 38q0 18 16 51q123 248 310 248q90 0 137 -105q45 -96 82 -223q8 -23 17 -23t20 15q68 87 174 211
t224 124q120 0 120 -83q0 -84 -84 -84q-33 0 -49 15t-43 15q-49 0 -119 -69q-96 -100 -188 -211q-19 -23 -19 -34t32 -97t68 -160q36 -72 55 -92t58 -20t67 44q28 46 40 94q10 48 51 48q16 0 26 -12q26 -30 -20 -121q-102 -211 -285 -211q-131 0 -182 114q-23 49 -88 228
q-6 16 -17 16t-20 -14q-109 -148 -207 -248t-205 -98q-49 0 -81 26t-31 66z" />
    <glyph glyph-name="y" unicode="y" horiz-adv-x="1179" 
d="M1077 721q0 -166 -50 -378t-96 -336q-46 -125 -116 -241q-229 -381 -604 -380q-145 0 -214 39t-69 104q0 41 33 72t68 30q57 0 75 -46q18 -45 68 -71t118 -26q173 0 303 252q79 154 204 489q4 11 4 19t-9 8t-16 -8q-201 -274 -465 -275q-98 0 -144 41t-46 117t65 239
q6 15 21 55q14 40 22 60q80 215 80 271t-39 55q-63 0 -116 -84q-4 -6 -27 -57q-8 -23 -44 -23t-36 31t27 70q66 96 162 155t196 60q137 0 137 -117q0 -84 -92 -320t-92 -300q0 -63 76 -62q129 0 239 104t160 224q51 120 51 196q0 129 -59 197q-39 45 -39 71t30 55
q30 27 84 27t91 -57q59 -94 59 -260z" />
    <glyph glyph-name="z" unicode="z" horiz-adv-x="997" 
d="M160 612q-37 0 -37 23q0 5 11 35t33 124t28 111q16 45 76 45q61 0 233 -13t255 -13t105 8t36 30t32 21q18 0 36 -11q18 -12 17 -26q0 -14 -16 -41q-193 -231 -433 -434q-85 -72 -245 -201q-14 -12 -15 -22q0 -12 35 -16q54 -5 183 -38q129 -34 215 -34q85 0 108 22t35 99
q8 31 45 31t37 -29t-20 -119t-37 -131q-41 -84 -156 -84q-75 0 -305 53t-290 53t-93 -37q-19 -18 -37 -18t-33 12q-14 12 -14 30t33 50q180 173 374 349q193 176 283 259q12 12 12 26t-22 15l-215 11q-104 0 -150 -25t-61 -92q-6 -23 -43 -23z" />
    <glyph glyph-name="braceleft" unicode="{" horiz-adv-x="749" 
d="M340 -88q0 -125 115 -125l37 2q33 0 32 -35q0 -66 -94 -65q-166 0 -240 51t-74 154t59 296q58 193 58 263q1 71 -31 99t-100 36q-35 2 -34 43q0 57 61 63q84 10 137 60t82 161q41 205 62 289q43 190 140 272t312 80q63 0 64 -47q0 -23 -14 -39t-35 -16l-48 2
q-81 0 -123 -56t-75 -194q-41 -198 -58 -252q-39 -132 -92 -200t-155 -109q-14 -6 -15 -12q0 -8 13 -12q119 -57 118 -191q0 -63 -51 -251q-51 -187 -51 -267z" />
    <glyph glyph-name="bar" unicode="|" horiz-adv-x="516" 
d="M58 -334q-66 0 -66 39q0 6 6 31l412 1792q6 27 25 38t85 11t66 -35q0 -25 -6 -43l-412 -1786q-6 -27 -24 -37q-20 -10 -86 -10z" />
    <glyph glyph-name="braceright" unicode="}" horiz-adv-x="749" 
d="M477 626q0 8 -12 11q-119 57 -119 190q0 58 50 240q50 181 50 264q0 125 -114 125l-37 -2q-33 0 -33 35q0 66 94 65q166 0 240 -51t74 -155t-58 -287q-58 -184 -57 -255q0 -72 32 -100t99 -36q35 -2 35 -43q0 -57 -62 -64q-86 -10 -139 -59t-80 -162q-41 -203 -63 -301
q-43 -190 -140 -271t-313 -81q-63 0 -63 47q0 23 14 39t35 16l47 -2q80 0 125 57q45 56 83 236t50 225q35 131 89 198t159 107q14 6 14 14z" />
    <glyph glyph-name="asciitilde" unicode="~" horiz-adv-x="1314" 
d="M168 470q0 11 12 24q162 201 305 200q49 0 95 -15t144 -75q99 -60 172 -59q73 0 171 125q15 16 27 16t22 -8l70 -60q6 -4 6 -16t-10 -22q-154 -197 -310 -197q-82 0 -214 76t-180 76q-46 1 -86 -29t-78 -72t-48 -42q-12 0 -20 5l-68 54q-10 8 -10 19z" />
    <glyph glyph-name="exclamdown" unicode="&#xa1;" horiz-adv-x="653" 
d="M201 802q0 72 47 126q47 53 120 53q72 0 112 -40q40 -39 40 -113t-49 -123t-117 -49t-110 36q-43 38 -43 110zM309 516q51 0 51 -47q0 -25 -11 -115t-32 -346q-21 -255 -33 -325q-25 -136 -184 -136q-70 0 -108 31t-39 88q1 58 35 152t114 291t110 285t48 105
q16 17 49 17z" />
    <glyph glyph-name="cent" unicode="&#xa2;" horiz-adv-x="1130" 
d="M422 298q0 -146 57 -189q16 -12 27 -13q12 0 16 21l156 682q4 16 4 27q0 12 -16 12t-33 -9q-87 -31 -149 -207q-62 -178 -62 -324zM506 -203q-47 0 -47 29q0 23 4 39l18 82q4 16 4 28t-22 17q-139 14 -225 100t-86 225q0 244 147 424q66 80 170 133t223 60q20 0 25 22
l35 154q10 39 56 39t46 -29q0 -10 -4 -26l-27 -125q-4 -15 -4 -27q-1 -12 53 -16t120 -43t67 -103q0 -106 -103 -106q-78 0 -82 74q-8 96 -52 96q-24 0 -34 -33l-159 -688q-2 -7 -2 -19t12 -12t20 2h7q131 18 208 142q18 26 28 54t44 27q41 0 41 -38q0 -29 -22 -60
q-129 -193 -344 -225q-25 -4 -29 -27l-31 -129q-8 -41 -55 -41z" />
    <glyph glyph-name="sterling" unicode="&#xa3;" horiz-adv-x="1288" 
d="M203 70q-51 0 -85 -30q-63 -55 -90 -13q-12 17 -12 43q-1 45 166 98q177 55 224 340q0 27 -23 27h-139q-37 0 -37 38q0 76 61 76h131q23 1 26 19t5 98t6 113q20 193 162 307t369 114q171 0 247 -53t76 -121t-36 -99q-36 -30 -89 -30t-82 22q-29 21 -33 83t-26 84
q-25 29 -88 28q-172 0 -203 -256q-20 -178 -20 -288q0 -20 22 -21h230q35 0 34 -39q0 -76 -55 -75h-235q-23 0 -27 -21q-33 -94 -78 -152t-164 -126q-18 -10 -18 -24t17 -15t99 -11t215 -30q132 -20 228 -19q96 0 119 30q22 31 26 55t4 50q6 37 50 37t45 -51q0 -28 -26 -94
q-27 -66 -71 -128q-89 -122 -219 -122q-184 0 -534 117q-121 39 -172 39z" />
    <glyph glyph-name="currency" unicode="&#xa4;" horiz-adv-x="954" 
d="M518 813q-100 0 -162 -69t-63 -172q1 -103 65 -166q64 -64 157 -64t159 64t65 168q0 105 -61 172q-60 67 -160 67zM856 572q0 -103 -55 -179q-6 -8 -6 -20t10 -23l78 -74q14 -12 14 -32t-25 -42t-44 -22t-31 13l-80 81q-17 21 -43 2q-76 -38 -172 -38t-156 32
q-10 6 -20 6t-19 -12l-65 -69q-42 -42 -86 1q-23 22 -23 42t17 36l75 76q20 20 4 39q-55 76 -55 182t55 183q16 23 -2 41l-77 73q-33 33 16 76q29 27 47 27t29 -15l69 -79q9 -13 21 -13t20 6q80 48 176 48t160 -46q8 -6 16 -6t25 13l59 67q27 27 48 27q22 0 44 -24
q38 -40 5 -72l-80 -80q-8 -7 -8 -19t6 -22q53 -81 53 -184z" />
    <glyph glyph-name="yen" unicode="&#xa5;" horiz-adv-x="1497" 
d="M569 481q39 -1 39 49q0 22 -6 37l-20 49q-8 18 -27 19h-270q-37 0 -37 33q0 72 51 71h199q25 0 24 17q0 6 -6 24l-59 146q-53 129 -88 204q-18 43 -72 44l-45 -3q-35 0 -35 43q0 68 55 68q8 0 99 -6t188 -6l295 12q27 0 35 -9t8 -34t-13 -45t-38 -20l-60 2q-82 0 -81 -62
q0 -78 45 -180l73 -176q20 -51 33 -51q18 0 59 47l160 182q137 160 137 200t-69 40l-62 -2q-37 0 -37 38q0 70 60 70l96 -6q98 -6 178 -6t140 6t76 6q36 0 36 -43q0 -25 -14 -45t-33 -20l-43 2q-52 0 -116 -50t-197 -196l-144 -156q-16 -16 -16 -25t20 -10h193q41 0 41 -34
q0 -23 -12 -47t-39 -23h-293q-16 0 -33 -17l-39 -47q-26 -32 -26 -75q0 -14 18 -15h326q20 0 28 -8t9 -31q0 -66 -56 -65h-332q-25 0 -30 -25l-11 -45q-20 -88 -20 -137q0 -68 90 -70l57 2q31 0 31 -36q0 -70 -57 -70q-6 0 -54 3t-117 6t-124 3t-124 -3t-116 -6t-51 -3
q-47 0 -47 43q0 25 15 44t42 19l45 -2q72 0 101 41q29 35 47 119l12 55q8 33 8 39q0 23 -22 23h-320q-39 0 -39 35q0 70 50 69h331z" />
    <glyph glyph-name="brokenbar" unicode="&#xa6;" horiz-adv-x="516" 
d="M65 -307q-67 0 -67 39q0 6 6 30l152 662q6 27 25 38t85 11t66 -35q0 -25 -6 -43l-152 -655q-6 -27 -24 -37t-85 -10zM300 715q-67 0 -67 39q0 6 7 30l151 662q5 27 25 38t86 11t65 -35q0 -25 -6 -43l-151 -655q-6 -27 -24 -37t-86 -10z" />
    <glyph glyph-name="section" unicode="&#xa7;" horiz-adv-x="1005" 
d="M592 303q22 0 37 12q86 51 86 151t-187 269q-12 9 -32 29l-32 32t-30 11q-16 0 -44 -15q-28 -16 -52 -56t-25 -83q0 -100 240 -334q17 -16 39 -16zM300 -328q-169 0 -255 54t-86 149q0 53 32 83t77 30q94 0 102 -88q8 -76 33 -102t97 -26t119 42q48 41 48 120
q0 109 -178 283q-106 104 -151 180q-44 76 -44 154q0 223 277 309q23 8 22 21q0 4 -12 22q-53 74 -53 168q0 154 121 232q121 77 281 77t232 -50t70 -126q0 -104 -100 -104q-45 0 -70 19t-28 46q-6 61 -35 97q-23 24 -87 24t-109 -37q-46 -37 -46 -96t35 -111t133 -141
q215 -197 215 -348q0 -211 -272 -301q-23 -8 -23 -26t6 -25q63 -86 64 -191q0 -160 -123 -249t-292 -89z" />
    <glyph glyph-name="dieresis" unicode="&#xa8;" horiz-adv-x="593" 
d="M468 1366q50 0 81 -28t31 -79q0 -53 -33 -91t-83 -38t-81 30t-31 82t33 88t83 36zM130 1366q50 0 81 -28t31 -79q0 -53 -33 -91t-83 -38t-81 30t-31 82t33 88t83 36z" />
    <glyph glyph-name="copyright" unicode="&#xa9;" horiz-adv-x="1648" 
d="M927 1034q-140 0 -214 -124t-74 -270t59 -226t158 -80q131 0 191 65q33 37 63 95q14 24 43 24t29 -24q0 -10 -20 -64t-32 -83q-14 -28 -57 -44q-107 -49 -244 -49q-190 0 -287 104q-98 104 -98 291t130 325t376 138q131 0 232 -31q31 -10 30 -37l-6 -176q0 -24 -34 -24
t-37 24q-12 88 -31 115q-37 51 -177 51zM254 680q0 -266 178 -448t440 -181q262 -1 434 181q173 182 173 448t-173 448q-174 182 -436 182t-439 -182t-177 -448zM1569 686q0 -301 -201 -509t-500 -208q-300 0 -502 205t-202 505t206 504q206 203 502 203t496 -200
q201 -200 201 -500z" />
    <glyph glyph-name="ordfeminine" unicode="&#xaa;" horiz-adv-x="706" 
d="M530 1051q0 41 -60 41t-136 -103q-45 -61 -72 -134q-26 -73 -26 -126t38 -53q89 0 195 196q61 122 61 179zM731 1165q1 -14 -31 -101t-67 -210t-35 -159t31 -36t57 33t33 60q5 18 31 18t26 -25q0 -16 -26 -60t-82 -82q-58 -38 -108 -38q-104 0 -101 78q0 49 13 90t13 45
t-8 4t-27 -36q-100 -183 -257 -183q-57 0 -91 39q-33 39 -32 96q0 156 120 306t287 151q59 0 96 -10q19 -10 33 -10t21 10l12 24q8 23 50 23t42 -27z" />
    <glyph glyph-name="guillemotleft" unicode="&#xab;" horiz-adv-x="1003" 
d="M860 201q0 -15 -16 -31t-36 -16t-66 46q-45 46 -271 259q-16 16 -16 45t45 57q102 63 399 268q41 29 61 29t32 -16q14 -16 14 -36t-36 -55q-52 -52 -247 -227q-12 -12 -12 -22t6 -25q45 -77 131 -235q12 -25 12 -41zM398 154q-20 0 -66 46q-45 46 -271 259q-16 16 -16 45
t45 57q102 63 399 268q41 29 61 29t32 -16q14 -16 14 -36t-36 -55q-52 -52 -247 -227q-12 -12 -12 -22t6 -25q45 -77 131 -235q23 -48 1 -68q-21 -20 -41 -20z" />
    <glyph glyph-name="logicalnot" unicode="&#xac;" horiz-adv-x="1314" 
d="M211 471q-25 0 -25 23q0 4 4 24l23 88q4 29 33 29h919q25 0 25 -23q0 -4 -4 -24l-123 -522q-6 -27 -33 -27h-115q-25 0 -24 20l6 39l86 373h-772z" />
    <glyph glyph-name="uni00AD" unicode="&#xad;" horiz-adv-x="569" 
d="M461 424h-357q-43 0 -43 51t29 113q16 37 51 37h355q47 0 47 -49q1 -48 -21 -100t-61 -52z" />
    <glyph glyph-name="registered" unicode="&#xae;" horiz-adv-x="1648" 
d="M813 772q0 -33 70 -33t124 46t54 120t-30 109t-75 35t-63 -7q-23 -6 -29 -38l-45 -195q-6 -20 -6 -37zM1153 281q-106 0 -154 67q-25 34 -59 142t-60 137t-42 33t-29 4q-20 0 -29 -31l-35 -154q-10 -55 -10 -72t2 -27q5 -23 58 -24l30 2q31 0 31 -36t-33 -35l-209 8
l-172 -8q-26 0 -26 36t28 35l29 -2q41 0 63 32t33 89l93 422q14 57 14 87t-16 41t-50 11l-32 -2q-25 0 -25 39t37 39l207 -4l188 4q139 0 206 -52t67 -141t-64 -149q-63 -60 -168 -80q-16 -2 -16 -8t10 -14q44 -29 66 -75t44 -101t35 -78q37 -63 80 -64l29 4q22 0 22 -30
t-36 -38q-36 -7 -107 -7zM254 680q0 -266 178 -448t440 -181q262 -1 434 181q173 182 173 448t-173 448q-174 182 -436 182t-439 -182t-177 -448zM1569 686q0 -301 -201 -509t-500 -208q-300 0 -502 205t-202 505t206 504q206 203 502 203t496 -200q201 -200 201 -500z" />
    <glyph glyph-name="macron" unicode="&#xaf;" horiz-adv-x="595" 
d="M563 1219q0 -106 -57 -107h-432q-43 0 -43 37q0 57 17 86t40 29h438q37 0 37 -45z" />
    <glyph glyph-name="degree" unicode="&#xb0;" horiz-adv-x="579" 
d="M600 1141q0 73 -38 113t-101 40t-103 -41t-41 -113q0 -72 39 -113q38 -40 100 -40t103 40t41 114zM700 1143q0 -111 -72 -177t-173 -67q-102 -1 -171 63t-69 174t72 179q72 67 173 67q100 0 170 -64t70 -175z" />
    <glyph glyph-name="plusminus" unicode="&#xb1;" horiz-adv-x="1314" 
d="M1026 0h-922q-25 0 -24 25q0 6 4 14l20 96q8 27 37 27h918q25 0 24 -23l-2 -4v-12l-24 -96q-6 -27 -31 -27zM559 279q-27 0 -27 20q0 2 7 27l84 366h-373q-25 0 -25 23l27 112q4 29 33 29h372l93 385q2 27 30 27h119q23 0 23 -21q0 -6 -4 -16l-87 -375h371q27 0 27 -22
q0 -8 -4 -17l-23 -100q-6 -25 -31 -25h-374l-90 -387q-6 -27 -31 -26h-117z" />
    <glyph glyph-name="twosuperior" unicode="&#xb2;" 
d="M616 1384q0 136 -115 136q-106 0 -153 -101q-12 -29 -48 -29t-36 35q0 23 21 54q84 135 295 135q123 0 186 -58t63 -152q0 -93 -52 -160q-91 -117 -333 -257q-16 -10 -16 -17t130 -7t163 15t49 66q8 27 40 27t32 -27q0 -16 -18 -92t-25 -108q-8 -25 -54 -25l-266 6
l-309 -6q-27 0 -27 29t31 47q183 105 232 147q126 108 157 167q53 101 53 175z" />
    <glyph glyph-name="threesuperior" unicode="&#xb3;" 
d="M803 1083q0 -77 -50 -139t-131 -96q-147 -60 -335 -62q-53 0 -83 16t-30 40q0 23 13 41t31 18t48 -13q29 -13 72 -14q121 0 182 48q62 48 62 166t-103 118q-39 0 -76 -9t-47 -9q-29 0 -28 37q0 39 60 44t110 23q104 48 104 144t-84 96q-68 0 -110 -37q-18 -16 -39 -47
q-10 -20 -39 -21q-35 0 -35 35q0 20 20 45q100 104 273 105q223 0 223 -158q0 -61 -59 -107t-160 -71q-18 -4 -19 -10q0 -6 19 -9q211 -16 211 -174z" />
    <glyph glyph-name="acute" unicode="&#xb4;" horiz-adv-x="600" 
d="M145 1073q-37 0 -36 35q0 20 20 45q96 133 180 260q39 59 97 60q84 0 83 -78q1 -41 -40 -82q-76 -76 -246 -213q-35 -27 -58 -27z" />
    <glyph glyph-name="mu" unicode="&#xb5;" horiz-adv-x="1333" 
d="M24 -518q-114 0 -114 61q0 31 12 64q74 197 181 487t167 443t60 231q0 43 -37 43q-63 0 -117 -80q-14 -23 -25 -53t-47 -31q-36 0 -36 33q0 31 26 68q158 215 377 215q51 0 85 -29t34 -76q0 -100 -94 -336t-93 -296q0 -60 52 -60q69 0 153 85t161 228q123 228 136 375
q10 92 92 92q131 0 152 -36q8 -12 8 -36t-88 -324t-88 -364t49 -65q66 0 125 117q2 4 14 41q8 33 44 33t36 -26t-20 -71q-53 -113 -145 -177t-181 -65q-154 0 -153 125q0 68 71 273q4 12 4 17t-9 5t-15 -12q-70 -139 -151 -231t-133 -126t-106 -34t-85 37q-16 18 -24 18
q-17 -1 -68 -217t-74 -285q-22 -61 -136 -61z" />
    <glyph glyph-name="paragraph" unicode="&#xb6;" horiz-adv-x="1073" 
d="M141 623q0 283 198 445t513 165q34 0 56 42t72 88t118 46t69 -61q0 -32 -19 -50t-42 -20q-80 -8 -110 -42t-50 -112l-225 -979q-72 -313 -207 -458q-78 -83 -190 -137t-213 -54q-70 0 -70 60q-1 40 21 68t61 28l86 -14q96 0 181 64t129 169q43 103 67 207t24 115
q0 27 -32 26l-68 -2q-150 0 -260 113t-109 293z" />
    <glyph glyph-name="periodcentered" unicode="&#xb7;" horiz-adv-x="497" 
d="M434 584q0 -72 -47 -125t-120 -53t-113 40t-39 113q0 74 49 123q48 49 116 49t111 -37q43 -38 43 -110z" />
    <glyph glyph-name="cedilla" unicode="&#xb8;" horiz-adv-x="583" 
d="M211 -185q0 34 96 193h88q-51 -98 -51 -115t21 -26q127 -39 127 -156q0 -76 -60 -134q-116 -111 -291 -109q-49 0 -49 49t64 51q154 4 159 110q0 68 -75 93q-29 10 -29 44z" />
    <glyph glyph-name="onesuperior" unicode="&#xb9;" 
d="M725 1622q23 0 23 -25q0 -16 -14 -61t-48 -180l-74 -314q-12 -63 -12 -98q0 -51 55 -51l41 2q25 0 25 -25q0 -51 -41 -51l-197 8l-196 -8q-31 0 -31 38t37 38l39 -2q46 0 66 35t36 110l66 281q18 88 18 104q0 31 -35 31l-69 -4q-20 0 -20 33t38 41q41 8 134 41
q94 33 120 45t39 12z" />
    <glyph glyph-name="ordmasculine" unicode="&#xba;" horiz-adv-x="727" 
d="M582 1016q0 88 -72 88q-66 0 -115 -76q-94 -147 -94 -313q1 -41 21 -68t55 -26q68 0 112 75q37 59 65 161t28 159zM745 963q0 -170 -100 -287q-103 -117 -289 -117q-98 0 -159 56t-62 155q-1 172 107 284t268 113q113 0 174 -57t61 -147z" />
    <glyph glyph-name="guillemotright" unicode="&#xbb;" horiz-adv-x="1003" 
d="M194 858q20 0 66 -46q45 -46 270 -259q16 -16 16 -45t-44 -57q-102 -63 -400 -269q-41 -28 -60 -28t-33 16q-13 16 -13 36t36 55q107 107 247 226q12 13 12 23t-6 25q-142 243 -143 267q0 24 16 40t36 16zM551 811q0 15 16 31q17 16 37 16t65 -46t271 -259q16 -16 16 -45
t-45 -57q-102 -63 -399 -269q-41 -28 -60 -28t-33 16q-13 16 -13 36q0 26 100 117q100 92 182 164q12 13 12 23t-6 25q-45 77 -131 235q-12 25 -12 41z" />
    <glyph glyph-name="onequarter" unicode="&#xbc;" horiz-adv-x="1671" 
d="M1276 586q0 6 -5 6t-18 -12q-168 -168 -216 -212t-48 -52t17 -9h176q30 1 32 21l62 254v4zM1212 -31q-70 0 -71 35q0 2 4 23l31 129q4 20 4 22q0 12 -21 12h-301q-35 0 -35 36t31 63q78 75 242 233t262 248q29 33 84 33t55 -23q0 -12 -24 -114l-76 -328q-2 -8 -2 -17
t18 -10h78q27 1 27 -29t-15 -61q-12 -29 -37 -28h-84q-18 0 -22 -25l-37 -158q-5 -23 -23 -32t-88 -9zM508 629q0 -51 55 -51l41 2q25 0 25 -25q0 -51 -41 -51l-197 8l-196 -8q-31 0 -31 38t37 38l39 -2q46 0 66 34t36 111l66 281q18 88 18 104q0 31 -35 31l-69 -4
q-20 1 -20 33t38 40q41 8 134 41q94 33 120 45t39 13q23 0 22 -25q0 -16 -14 -61t-47 -181l-74 -313q-12 -63 -12 -98zM456 -4q-42 0 -42 29q0 12 20 43l789 1177q25 37 67 37t41 -29q0 -8 -14 -32l-797 -1192q-22 -33 -64 -33z" />
    <glyph glyph-name="onehalf" unicode="&#xbd;" horiz-adv-x="1671" 
d="M872 29q0 29 31 47q183 105 232 147q126 108 157 167q52 99 53 174t-31 106q-32 30 -83 30q-105 -1 -154 -100q-12 -29 -48 -29t-36 35q0 23 21 53q84 135 295 136q123 -1 186 -59t63 -151t-52 -160q-93 -119 -332 -257q-16 -10 -16 -18t129 -7q130 -1 163 15t49 67
q8 27 40 27t32 -27q-1 -16 -19 -92t-24 -108q-8 -25 -53 -25l-267 6l-309 -6q-27 0 -27 29zM625 1282q-1 -16 -15 -61t-47 -181l-74 -313q-12 -63 -12 -98q0 -51 55 -51l41 2q25 0 25 -25q0 -51 -41 -51l-197 8l-196 -8q-31 0 -31 38t37 38l39 -2q45 0 65 34t37 111l66 281
q18 88 18 104q0 31 -35 31l-69 -4q-21 1 -21 33t39 40q41 8 134 41t119 45q62 28 63 -12zM424 -4q-42 0 -41 29q0 12 20 43l789 1177q25 37 67 37t41 -29q0 -8 -14 -32l-797 -1192q-23 -33 -65 -33z" />
    <glyph glyph-name="threequarters" unicode="&#xbe;" horiz-adv-x="1671" 
d="M1311 586q0 6 -5 6t-18 -12q-168 -168 -216 -212t-48 -52t16 -9h177q30 1 32 21l62 254v4zM1246 -31q-70 0 -70 35q0 2 4 23l30 129q4 20 4 22q0 12 -20 12h-301q-35 0 -35 36t31 63q77 75 241 233t263 248q29 33 84 33t55 -23q0 -12 -25 -114l-75 -328q-2 -8 -2 -17
t18 -10h78q26 1 26 -29t-13 -60t-38 -29h-84q-18 0 -22 -25l-37 -158q-4 -23 -22 -32q-20 -9 -90 -9zM780 767q0 -77 -50 -139t-131 -96q-149 -62 -335 -61q-53 0 -83 16t-29 39q0 23 13 41q24 33 83 2q25 -10 67 -10q121 0 183 47q61 47 61 166t-102 119q-39 0 -76 -9
t-47 -10q-29 0 -29 38q1 38 61 43t109 24q105 49 105 144t-84 96q-68 0 -111 -37q-18 -16 -39 -47q-10 -20 -39 -21q-35 0 -35 35q0 20 21 45q100 104 272 104q223 0 223 -157q0 -61 -59 -107t-160 -71q-18 -5 -18 -11t18 -8q103 -8 157 -53t54 -122zM521 -4q-42 0 -42 29
q0 12 21 43l788 1177q25 37 67 37t42 -29q0 -8 -15 -32l-796 -1192q-23 -33 -65 -33z" />
    <glyph glyph-name="questiondown" unicode="&#xbf;" horiz-adv-x="989" 
d="M440 802q0 72 47 126q47 53 120 53t113 -40q40 -39 40 -113t-49 -123t-117 -49t-111 36q-43 38 -43 110zM557 524q37 0 51 -24t14 -102q0 -80 -46 -149q-48 -69 -146 -145q-178 -133 -178 -307q0 -57 34 -91t83 -34q123 0 145 131q2 9 3 23t3 30t2 23q12 94 129 94
q51 1 81 -29t30 -75q0 -100 -72 -169q-127 -122 -373 -122q-174 0 -268 70t-94 192t81 208q81 87 233 165t194 115q41 37 41 92l-2 55q0 49 55 49z" />
    <glyph glyph-name="Agrave" unicode="&#xc0;" horiz-adv-x="1501" 
d="M670 1695q0 41 36 71t74 30t70 -39q68 -84 207 -231q20 -25 20 -42q0 -16 -16 -30q-15 -14 -33 -14t-103 45t-216 139q-39 31 -39 71zM557 623q0 -15 11 -19t53 -4h178q63 0 63 29q0 20 -4 53l-39 322q-2 20 -15 20t-30 -27l-192 -323q-25 -37 -25 -51zM924 180
q0 41 -11 119l-16 135q-4 37 -17 50t-44 14h-314q-25 0 -38 -10t-31 -39l-95 -148q-53 -80 -60 -109q-7 -28 -7 -45q0 -47 100 -47q10 0 27 2h14q37 0 37 -41q0 -63 -49 -63l-299 12q-53 0 -113 -6t-63 -6q-37 0 -37 41q0 23 12 43t37 20l39 -2q41 0 78 41q49 49 119 158
q397 618 557 887q35 63 47 96t49 51q86 43 164 43q39 0 45 -43q0 -53 153 -1034q16 -111 40 -155t87 -44l33 2q37 0 37 -45q0 -59 -55 -59l-310 12l-297 -12q-39 0 -38 41q0 63 51 63l53 -2q71 0 93 20t22 60z" />
    <glyph glyph-name="Aacute" unicode="&#xc1;" horiz-adv-x="1501" 
d="M784 1483q0 18 29 43q29 26 116 98t127 110t81 38t69 -28t27 -68q0 -40 -57 -79q-80 -47 -206 -102t-147 -55q-39 4 -39 43zM557 623q0 -15 11 -19t53 -4h178q63 0 63 29q0 20 -4 53l-39 322q-2 20 -15 20t-30 -27l-192 -323q-25 -37 -25 -51zM924 180q0 41 -11 119
l-16 135q-4 37 -17 50t-44 14h-314q-25 0 -38 -10t-31 -39l-95 -148q-53 -80 -60 -109q-7 -28 -7 -45q0 -47 100 -47q10 0 27 2h14q37 0 37 -41q0 -63 -49 -63l-299 12q-53 0 -113 -6t-63 -6q-37 0 -37 41q0 23 12 43t37 20l39 -2q41 0 78 41q49 49 119 158q397 618 557 887
q35 63 47 96t49 51q86 43 164 43q39 0 45 -43q0 -53 153 -1034q16 -111 40 -155t87 -44l33 2q37 0 37 -45q0 -59 -55 -59l-310 12l-297 -12q-39 0 -38 41q0 63 51 63l53 -2q71 0 93 20t22 60z" />
    <glyph glyph-name="Acircumflex" unicode="&#xc2;" horiz-adv-x="1501" 
d="M1274 1469q0 -15 -11 -26t-30 -11t-41 16q-116 84 -158 124t-54 40t-38 -17q-176 -115 -218 -139t-61 -24t-30 11q-10 11 -10 26t14 26q254 237 289 273q34 36 74 36t63 -32q80 -117 199 -273q12 -15 12 -30zM557 623q0 -15 11 -19t53 -4h178q63 0 63 29q0 20 -4 53
l-39 322q-2 20 -15 20t-30 -27l-192 -323q-25 -37 -25 -51zM924 180q0 41 -11 119l-16 135q-4 37 -17 50t-44 14h-314q-25 0 -38 -10t-31 -39l-95 -148q-53 -80 -60 -109q-7 -28 -7 -45q0 -47 100 -47q10 0 27 2h14q37 0 37 -41q0 -63 -49 -63l-299 12q-53 0 -113 -6t-63 -6
q-37 0 -37 41q0 23 12 43t37 20l39 -2q41 0 78 41q49 49 119 158q397 618 557 887q35 63 47 96t49 51q86 43 164 43q39 0 45 -43q0 -53 153 -1034q16 -111 40 -155t87 -44l33 2q37 0 37 -45q0 -59 -55 -59l-310 12l-297 -12q-39 0 -38 41q0 63 51 63l53 -2q71 0 93 20t22 60
z" />
    <glyph glyph-name="Atilde" unicode="&#xc3;" horiz-adv-x="1501" 
d="M831 1718q49 0 143 -48t143 -48q48 0 81 78q14 31 52 31t38 -37q0 -20 -12 -45q-66 -174 -193 -174q-53 0 -142 45t-139 45t-93 -72q-16 -25 -43 -25q-43 0 -43 39q0 12 14 41q74 170 194 170zM557 623q0 -15 11 -19t53 -4h178q63 0 63 29q0 20 -4 53l-39 322
q-2 20 -15 20t-30 -27l-192 -323q-25 -37 -25 -51zM924 180q0 41 -11 119l-16 135q-4 37 -17 50t-44 14h-314q-25 0 -38 -10t-31 -39l-95 -148q-53 -80 -60 -109q-7 -28 -7 -45q0 -47 100 -47q10 0 27 2h14q37 0 37 -41q0 -63 -49 -63l-299 12q-53 0 -113 -6t-63 -6
q-37 0 -37 41q0 23 12 43t37 20l39 -2q41 0 78 41q49 49 119 158q397 618 557 887q35 63 47 96t49 51q86 43 164 43q39 0 45 -43q0 -53 153 -1034q16 -111 40 -155t87 -44l33 2q37 0 37 -45q0 -59 -55 -59l-310 12l-297 -12q-39 0 -38 41q0 63 51 63l53 -2q71 0 93 20t22 60
z" />
    <glyph glyph-name="Adieresis" unicode="&#xc4;" horiz-adv-x="1501" 
d="M1253 1579q1 -51 -33 -87t-82 -36t-80 32t-32 84t35 87t84 35t79 -32t29 -83zM891 1579q0 -51 -34 -87t-83 -36t-80 32q-30 32 -30 84t34 87q35 35 84 35t79 -32t30 -83zM557 623q0 -15 11 -19t53 -4h178q63 0 63 29q0 20 -4 53l-39 322q-2 20 -15 20t-30 -27l-192 -323
q-25 -37 -25 -51zM924 180q0 41 -11 119l-16 135q-4 37 -17 50t-44 14h-314q-25 0 -38 -10t-31 -39l-95 -148q-53 -80 -60 -109q-7 -28 -7 -45q0 -47 100 -47q10 0 27 2h14q37 0 37 -41q0 -63 -49 -63l-299 12q-53 0 -113 -6t-63 -6q-37 0 -37 41q0 23 12 43t37 20l39 -2
q41 0 78 41q49 49 119 158q397 618 557 887q35 63 47 96t49 51q86 43 164 43q39 0 45 -43q0 -53 153 -1034q16 -111 40 -155t87 -44l33 2q37 0 37 -45q0 -59 -55 -59l-310 12l-297 -12q-39 0 -38 41q0 63 51 63l53 -2q71 0 93 20t22 60z" />
    <glyph glyph-name="Aring" unicode="&#xc5;" horiz-adv-x="1501" 
d="M1087 1627q0 106 -100 106q-47 0 -80 -35t-33 -86t26 -80t75 -29t81 35q31 35 31 89zM1171 1632q0 -82 -55 -144t-143 -62t-136 48q-49 50 -49 134t60 142t142 58q83 0 132 -47t49 -129zM557 623q0 -15 11 -19t53 -4h178q63 0 63 29q0 20 -4 53l-39 322q-2 20 -15 20
t-30 -27l-192 -323q-25 -37 -25 -51zM924 180q0 41 -11 119l-16 135q-4 37 -17 50t-44 14h-314q-25 0 -38 -10t-31 -39l-95 -148q-53 -80 -60 -109q-7 -28 -7 -45q0 -47 100 -47q10 0 27 2h14q37 0 37 -41q0 -63 -49 -63l-299 12q-53 0 -113 -6t-63 -6q-37 0 -37 41
q0 23 12 43t37 20l39 -2q41 0 78 41q49 49 119 158q397 618 557 887q35 63 47 96t49 51q86 43 164 43q39 0 45 -43q0 -53 153 -1034q16 -111 40 -155t87 -44l33 2q37 0 37 -45q0 -59 -55 -59l-310 12l-297 -12q-39 0 -38 41q0 63 51 63l53 -2q71 0 93 20t22 60z" />
    <glyph glyph-name="AE" unicode="&#xc6;" horiz-adv-x="2109" 
d="M1243 1154q0 13 -13 13t-34 -26l-391 -447q-27 -31 -27 -49t43 -18h228q57 0 73 28q7 6 17 45l98 416q6 25 6 38zM690 520q-45 0 -88 -49l-135 -156q-115 -133 -121 -146t-6 -24q0 -45 76 -45l49 2q33 0 33 -36q0 -68 -58 -68l-278 8l-213 -8q-41 0 -41 43q0 61 53 61
l39 -2q66 0 109 39q78 63 178 172q580 616 792 869q23 27 23 44q0 29 -101 29l-57 -2q-33 0 -33 43q0 63 60 64l508 -12l573 8q43 0 43 -39q0 -8 -8 -78t-19 -186q-4 -39 -52 -39t-48 39q0 113 -24 145t-59 40q-34 7 -124 7l-168 -6q-35 0 -49 -53l-80 -340q-6 -23 -6 -47
q0 -43 66 -43q96 0 147 20t92 144q11 32 55 32t44 -37q0 -14 -40 -152t-63 -257q-6 -37 -51 -37t-45 35l2 43q0 74 -28 93q-27 19 -107 19t-97 -10t-24 -39l-74 -327q-12 -53 -12 -95t41 -57q42 -14 196 -14t224 39t143 180q18 31 49 31q51 0 52 -39q0 -23 -33 -114
t-60 -144q-33 -70 -88 -70l-547 12l-462 -12q-39 0 -39 37q0 25 14 47t43 20l35 -2q67 0 97 35t63 182l32 140q6 23 7 35q0 29 -41 28h-359z" />
    <glyph glyph-name="Ccedilla" unicode="&#xc7;" horiz-adv-x="1415" 
d="M430 551q0 -223 100 -345t261 -122q73 0 153 28t135 78t113 162q16 29 56 29t40 -27q0 -20 -26 -109t-54 -127q-29 -38 -104 -71q-125 -57 -301 -67q-29 -4 -39 -29q-25 -55 -25 -67t25 -21q127 -43 127 -160t-120 -187t-241 -69q-47 0 -47 52q0 53 67 55t115 30t48 90
q0 64 -78 88q-31 10 -31 37q0 14 31 82t31 72q0 20 -35 24q-392 39 -489 359q-58 189 -1 431q27 111 89 223t154 197t238 138t348 53t367 -55q49 -16 49 -57q0 -4 -5 -57t-5 -208q0 -47 -47 -47q-35 0 -46 12t-11 38q-2 109 -45 172q-63 94 -249 94t-312 -115
q-124 -115 -180 -275t-56 -329z" />
    <glyph glyph-name="Egrave" unicode="&#xc8;" horiz-adv-x="1236" 
d="M473 1695q0 41 36 71t75 30t69 -39q68 -84 207 -231q37 -46 4 -73q-16 -13 -34 -13t-102 45q-85 45 -216 139q-39 31 -39 71zM-25 -4q-37 0 -36 41q0 63 49 63l41 -2q66 0 90 43q31 59 59 183l170 729q34 156 -1 184q-19 16 -68 16l-39 -2q-33 0 -33 35q0 70 47 70
l451 -10l475 8q43 0 43 -39q-1 -13 -11 -101t-16 -163q-4 -39 -52 -39t-48 39q0 106 -29 151q-23 27 -57 34t-122 7q-89 0 -167 -6q-35 0 -49 -53l-80 -340q-6 -20 -6 -47q0 -43 65 -43q95 0 147 20t93 144q12 32 55 32t43 -37q0 -14 -41 -160t-61 -249q-6 -37 -51 -37
t-45 35l2 43q0 74 -28 93t-108 19t-97 -10t-23 -39l-74 -327q-12 -53 -12 -95t41 -57q41 -14 195 -14t224 39t144 180q18 31 49 31q51 0 51 -39q0 -23 -33 -114t-59 -144q-33 -70 -88 -70l-629 12q-127 0 -246 -7t-125 -7z" />
    <glyph glyph-name="Eacute" unicode="&#xc9;" horiz-adv-x="1236" 
d="M606 1483q0 18 29 43q29 26 116 98t127 110t81 38t69 -28t26 -68q0 -40 -57 -79q-80 -47 -305 -145q-29 -12 -47 -12q-39 4 -39 43zM-25 -4q-37 0 -36 41q0 63 49 63l41 -2q66 0 90 43q31 59 59 183l170 729q34 156 -1 184q-19 16 -68 16l-39 -2q-33 0 -33 35q0 70 47 70
l451 -10l475 8q43 0 43 -39q-1 -13 -11 -101t-16 -163q-4 -39 -52 -39t-48 39q0 106 -29 151q-23 27 -57 34t-122 7q-89 0 -167 -6q-35 0 -49 -53l-80 -340q-6 -20 -6 -47q0 -43 65 -43q95 0 147 20t93 144q12 32 55 32t43 -37q0 -14 -41 -160t-61 -249q-6 -37 -51 -37
t-45 35l2 43q0 74 -28 93t-108 19t-97 -10t-23 -39l-74 -327q-12 -53 -12 -95t41 -57q41 -14 195 -14t224 39t144 180q18 31 49 31q51 0 51 -39q0 -23 -33 -114t-59 -144q-33 -70 -88 -70l-629 12q-127 0 -246 -7t-125 -7z" />
    <glyph glyph-name="Ecircumflex" unicode="&#xca;" horiz-adv-x="1236" 
d="M1094 1469q0 -15 -12 -26t-30 -11t-40 16q-115 84 -158 124t-54 40t-38 -17q-176 -115 -218 -139t-62 -24q-19 0 -29 11q-27 29 4 52q255 237 289 273t74 36t63 -32q80 -117 198 -273q13 -15 13 -30zM-25 -4q-37 0 -36 41q0 63 49 63l41 -2q66 0 90 43q31 59 59 183
l170 729q34 156 -1 184q-19 16 -68 16l-39 -2q-33 0 -33 35q0 70 47 70l451 -10l475 8q43 0 43 -39q-1 -13 -11 -101t-16 -163q-4 -39 -52 -39t-48 39q0 106 -29 151q-23 27 -57 34t-122 7q-89 0 -167 -6q-35 0 -49 -53l-80 -340q-6 -20 -6 -47q0 -43 65 -43q95 0 147 20
t93 144q12 32 55 32t43 -37q0 -14 -41 -160t-61 -249q-6 -37 -51 -37t-45 35l2 43q0 74 -28 93t-108 19t-97 -10t-23 -39l-74 -327q-12 -53 -12 -95t41 -57q41 -14 195 -14t224 39t144 180q18 31 49 31q51 0 51 -39q0 -23 -33 -114t-59 -144q-33 -70 -88 -70l-629 12
q-127 0 -246 -7t-125 -7z" />
    <glyph glyph-name="Edieresis" unicode="&#xcb;" horiz-adv-x="1236" 
d="M1069 1579q0 -51 -34 -87t-82 -36t-80 32q-31 32 -31 84t35 87t84 35t79 -32t29 -83zM707 1579q0 -51 -34 -87t-83 -36t-80 32t-31 84t35 87t84 35t79 -32t30 -83zM-25 -4q-37 0 -36 41q0 63 49 63l41 -2q66 0 90 43q31 59 59 183l170 729q34 156 -1 184q-19 16 -68 16
l-39 -2q-33 0 -33 35q0 70 47 70l451 -10l475 8q43 0 43 -39q-1 -13 -11 -101t-16 -163q-4 -39 -52 -39t-48 39q0 106 -29 151q-23 27 -57 34t-122 7q-89 0 -167 -6q-35 0 -49 -53l-80 -340q-6 -20 -6 -47q0 -43 65 -43q95 0 147 20t93 144q12 32 55 32t43 -37
q0 -14 -41 -160t-61 -249q-6 -37 -51 -37t-45 35l2 43q0 74 -28 93t-108 19t-97 -10t-23 -39l-74 -327q-12 -53 -12 -95t41 -57q41 -14 195 -14t224 39t144 180q18 31 49 31q51 0 51 -39q0 -23 -33 -114t-59 -144q-33 -70 -88 -70l-629 12q-127 0 -246 -7t-125 -7z" />
    <glyph glyph-name="Igrave" unicode="&#xcc;" horiz-adv-x="729" 
d="M254 1695q0 41 36 71t74 30t70 -39q68 -84 207 -231q37 -46 4 -73q-15 -13 -33 -13t-103 45t-216 139q-39 31 -39 71zM446 166q0 -68 82 -68l45 2q33 0 33 -34q0 -70 -53 -70q-6 0 -94 6t-183 6l-294 -12q-43 0 -43 41q0 25 12 44t35 19l41 -2q57 0 87 36t64 190l164 706
q25 104 25 156q0 68 -82 67l-45 -2q-33 0 -33 35q0 70 53 70l277 -13l294 13q43 0 43 -41q0 -25 -12 -44t-35 -20l-41 2q-57 1 -86 -35t-65 -192l-162 -698q-27 -113 -27 -162z" />
    <glyph glyph-name="Iacute" unicode="&#xcd;" horiz-adv-x="729" 
d="M436 1483q0 18 29 43q29 26 116 98t127 110t81 38t69 -28t26 -68q0 -40 -57 -79q-80 -47 -206 -102t-146 -55q-39 4 -39 43zM446 166q0 -68 82 -68l45 2q33 0 33 -34q0 -70 -53 -70q-6 0 -94 6t-183 6l-294 -12q-43 0 -43 41q0 25 12 44t35 19l41 -2q57 0 87 36t64 190
l164 706q25 104 25 156q0 68 -82 67l-45 -2q-33 0 -33 35q0 70 53 70l277 -13l294 13q43 0 43 -41q0 -25 -12 -44t-35 -20l-41 2q-57 1 -86 -35t-65 -192l-162 -698q-27 -113 -27 -162z" />
    <glyph glyph-name="Icircumflex" unicode="&#xce;" horiz-adv-x="729" 
d="M889 1469q0 -15 -11 -26t-30 -11t-41 16q-115 84 -157 124t-54 40t-39 -17q-176 -115 -218 -139q-41 -24 -61 -24t-30 11t-10 26t14 26q254 237 289 273t75 36t62 -32q80 -117 199 -273q12 -15 12 -30zM446 166q0 -68 82 -68l45 2q33 0 33 -34q0 -70 -53 -70q-6 0 -94 6
t-183 6l-294 -12q-43 0 -43 41q0 25 12 44t35 19l41 -2q57 0 87 36t64 190l164 706q25 104 25 156q0 68 -82 67l-45 -2q-33 0 -33 35q0 70 53 70l277 -13l294 13q43 0 43 -41q0 -25 -12 -44t-35 -20l-41 2q-57 1 -86 -35t-65 -192l-162 -698q-27 -113 -27 -162z" />
    <glyph glyph-name="Idieresis" unicode="&#xcf;" horiz-adv-x="729" 
d="M866 1579q0 -51 -34 -87t-82 -36q-49 0 -80 32t-31 84t35 87t84 35q48 0 78 -32t30 -83zM504 1579q0 -51 -34 -87t-82 -36t-80 32t-32 84t35 87t84 35t79 -32t30 -83zM446 166q0 -68 82 -68l45 2q33 0 33 -34q0 -70 -53 -70q-6 0 -94 6t-183 6l-294 -12q-43 0 -43 41
q0 25 12 44t35 19l41 -2q57 0 87 36t64 190l164 706q25 104 25 156q0 68 -82 67l-45 -2q-33 0 -33 35q0 70 53 70l277 -13l294 13q43 0 43 -41q0 -25 -12 -44t-35 -20l-41 2q-57 1 -86 -35t-65 -192l-162 -698q-27 -113 -27 -162z" />
    <glyph glyph-name="Eth" unicode="&#xd0;" horiz-adv-x="1533" 
d="M459 212q0 -54 48 -79t177 -24q225 0 370 194q144 195 144 514q0 221 -76 313q-96 115 -286 115q-100 0 -129 -20t-50 -105l-67 -289q-6 -20 -6 -32q0 -23 22 -23h260q33 0 33 -26t-12 -58q-12 -31 -49 -30h-258q-29 0 -37 -33l-70 -301q-14 -62 -14 -116zM248 637
q0 25 -25 25h-143q-29 0 -29 20q1 30 15 62t40 32h146q33 0 39 31l51 217q25 106 25 164q0 66 -97 65l-34 -2q-35 0 -35 41q0 63 53 64l268 -8l248 6q360 0 524 -97q106 -61 164 -170t60 -247q0 -424 -232 -633t-647 -209l-459 6l-203 -8q-39 0 -38 43q0 25 13 43t34 18
l39 -2q66 0 92 42t59 184l66 276q6 31 6 37z" />
    <glyph glyph-name="Ntilde" unicode="&#xd1;" horiz-adv-x="1568" 
d="M889 1718q49 0 143 -48t143 -48q48 0 80 78q15 31 53 31t38 -37q0 -20 -13 -45q-66 -174 -192 -174q-53 0 -143 45t-139 45q-50 0 -93 -72q-16 -25 -43 -25q-43 0 -43 39q0 12 14 41q74 170 195 170zM476 1020q-14 0 -25 -50q-12 -50 -35 -153q-23 -104 -75 -332
t-52 -282t10 -68q12 -35 96 -35l45 2q35 0 35 -30q0 -74 -59 -74l-223 10q-119 0 -175 -5q-57 -5 -63 -5q-41 0 -41 37q0 68 61 67l35 -2q63 0 99 41q33 45 63 174q123 493 160 655t37 208q0 77 -103 75l-41 -2q-35 0 -35 33q0 70 54 70l219 -11l176 11q17 0 24 -10t10 -12
q3 -3 21 -40t186 -316q168 -280 296 -472q14 -23 26 -23t17 23q129 572 131 688q0 61 -86 61l-60 -2q-41 0 -41 35q-1 29 15 49q16 21 32 21t78 -6q61 -6 185 -7l210 13q49 0 50 -39q1 -25 -13 -45t-41 -21l-49 2q-61 1 -97 -35t-73 -194q-90 -373 -221 -1001
q-11 -49 -67 -49t-72 32q-103 215 -445 752q-106 168 -157 252q-8 10 -22 10z" />
    <glyph glyph-name="Ograve" unicode="&#xd2;" horiz-adv-x="1503" 
d="M625 1695q-1 41 35 71t75 30t70 -39q68 -84 207 -231q20 -25 20 -42q0 -16 -16 -30t-34 -14t-102 45q-85 45 -216 139q-39 31 -39 71zM1143 903q1 175 -61 271t-185 96q-225 0 -346 -255t-121 -546q0 -181 69 -285t199 -104q207 0 312 205q133 264 133 618zM1460 838
q0 -389 -196 -627t-551 -238q-279 -1 -440 147t-160 419q0 147 45 298t125 255q109 143 254 215t356 71q267 0 417 -140t150 -400z" />
    <glyph glyph-name="Oacute" unicode="&#xd3;" horiz-adv-x="1503" 
d="M729 1483q0 18 29 43q30 26 116 98t126 110t82 38q40 0 68 -28t28 -68t-58 -79q-80 -47 -206 -102t-146 -55q-39 4 -39 43zM1143 903q1 175 -61 271t-185 96q-225 0 -346 -255t-121 -546q0 -181 69 -285t199 -104q207 0 312 205q133 264 133 618zM1460 838
q0 -389 -196 -627t-551 -238q-279 -1 -440 147t-160 419q0 147 45 298t125 255q109 143 254 215t356 71q267 0 417 -140t150 -400z" />
    <glyph glyph-name="Ocircumflex" unicode="&#xd4;" horiz-adv-x="1503" 
d="M1225 1469q1 -15 -11 -26t-30 -11t-41 16q-115 84 -158 124t-54 40t-38 -17q-177 -115 -219 -139t-61 -24t-29 11q-27 29 4 52q254 237 289 273t75 36t62 -32q80 -117 198 -273q13 -15 13 -30zM1143 903q1 175 -61 271t-185 96q-225 0 -346 -255t-121 -546
q0 -181 69 -285t199 -104q207 0 312 205q133 264 133 618zM1460 838q0 -389 -196 -627t-551 -238q-279 -1 -440 147t-160 419q0 147 45 298t125 255q109 143 254 215t356 71q267 0 417 -140t150 -400z" />
    <glyph glyph-name="Otilde" unicode="&#xd5;" horiz-adv-x="1503" 
d="M815 1718q49 0 143 -48t143 -48q48 0 81 78q14 31 52 31t38 -37q0 -20 -12 -45q-66 -174 -193 -174q-53 0 -142 45t-139 45t-94 -72q-16 -25 -43 -25q-43 0 -43 39q0 12 15 41q74 170 194 170zM1143 903q1 175 -61 271t-185 96q-225 0 -346 -255t-121 -546
q0 -181 69 -285t199 -104q207 0 312 205q133 264 133 618zM1460 838q0 -389 -196 -627t-551 -238q-279 -1 -440 147t-160 419q0 147 45 298t125 255q109 143 254 215t356 71q267 0 417 -140t150 -400z" />
    <glyph glyph-name="Odieresis" unicode="&#xd6;" horiz-adv-x="1503" 
d="M1245 1579q0 -51 -34 -87t-82 -36q-47 0 -79 32t-32 84t35 87t84 35t79 -32t29 -83zM883 1579q0 -51 -34 -87t-83 -36t-80 32t-31 84t35 87t84 35t79 -32t30 -83zM1143 903q1 175 -61 271t-185 96q-225 0 -346 -255t-121 -546q0 -181 69 -285t199 -104q207 0 312 205
q133 264 133 618zM1460 838q0 -389 -196 -627t-551 -238q-279 -1 -440 147t-160 419q0 147 45 298t125 255q109 143 254 215t356 71q267 0 417 -140t150 -400z" />
    <glyph glyph-name="multiply" unicode="&#xd7;" horiz-adv-x="1314" 
d="M374 139q-11 0 -18 11l-73 77q-11 9 -11 21t15 20l307 281l-264 287q-8 8 -8 16t12 20l94 82q18 18 37 0l260 -282l303 284q21 21 37 0l76 -79q8 -7 8 -15t-12 -24l-306 -285l254 -287q20 -15 -2 -37l-92 -79q-16 -24 -39 -3l-252 285l-307 -285q-8 -8 -19 -8z" />
    <glyph glyph-name="Oslash" unicode="&#xd8;" horiz-adv-x="1503" 
d="M430 446q0 -23 14 -22q6 0 17 10l633 672q10 10 10 19t-4 18q-59 127 -203 127q-225 0 -346 -258t-121 -566zM1143 903q0 31 -1 51t-16 19q-8 0 -18 -10l-637 -680q-8 -11 -8 -21t6 -22q68 -160 229 -160q207 0 312 205q133 264 133 618zM168 -20q-18 0 -42 22t-24 36
q0 15 15 30l86 92q10 10 10 20t-6 17q-94 139 -94 342q0 147 45 298t125 255q109 143 254 215q145 71 355 71t343 -84q12 -6 21 -6t18 12l90 97q12 14 32 14t42 -20q38 -33 6 -72l-88 -94q-10 -9 -10 -19t8 -18q106 -135 106 -350q0 -389 -196 -627t-551 -238
q-242 0 -394 111l-18 6q-10 0 -20 -10l-80 -86q-15 -14 -33 -14z" />
    <glyph glyph-name="Ugrave" unicode="&#xd9;" horiz-adv-x="1548" 
d="M698 1695q0 41 36 71t75 30t70 -39q68 -84 206 -231q36 -46 5 -73q-16 -13 -34 -13t-102 45q-86 45 -217 139q-39 31 -39 71zM697 -29q-275 -1 -401 105t-126 280q0 111 28 216q144 552 144 620q0 63 -78 61l-39 -2q-35 0 -35 37q0 68 60 68l299 -13q86 1 164 7t84 6
q53 0 53 -41q0 -62 -51 -64l-31 2q-49 1 -83 -25t-75 -196q-135 -571 -135 -688t73 -180t189 -64q215 0 317 106t164 380q118 509 119 604q0 57 -86 57l-51 -2q-35 0 -35 37q1 30 17 52t45 22l225 -13q57 1 126 7t71 6q49 0 49 -37q0 -68 -41 -68l-49 2q-55 -4 -80 -34
q-41 -55 -72 -185q-48 -215 -77 -354q-30 -140 -42 -191q-59 -262 -212 -390t-428 -128z" />
    <glyph glyph-name="Uacute" unicode="&#xda;" horiz-adv-x="1548" 
d="M823 1483q0 18 29 43q29 26 116 98t127 110t81 38q40 0 68 -28t28 -68t-58 -79q-80 -47 -305 -145q-29 -12 -47 -12q-39 4 -39 43zM697 -29q-275 -1 -401 105t-126 280q0 111 28 216q144 552 144 620q0 63 -78 61l-39 -2q-35 0 -35 37q0 68 60 68l299 -13q86 1 164 7
t84 6q53 0 53 -41q0 -62 -51 -64l-31 2q-49 1 -83 -25t-75 -196q-135 -571 -135 -688t73 -180t189 -64q215 0 317 106t164 380q118 509 119 604q0 57 -86 57l-51 -2q-35 0 -35 37q1 30 17 52t45 22l225 -13q57 1 126 7t71 6q49 0 49 -37q0 -68 -41 -68l-49 2q-55 -4 -80 -34
q-41 -55 -72 -185q-48 -215 -77 -354q-30 -140 -42 -191q-59 -262 -212 -390t-428 -128z" />
    <glyph glyph-name="Ucircumflex" unicode="&#xdb;" horiz-adv-x="1548" 
d="M1303 1469q1 -15 -11 -26t-30 -11t-41 16q-115 84 -158 124t-54 40t-38 -17q-177 -115 -219 -139t-61 -24t-29 11q-27 29 4 52q254 237 288 273t75 36q40 0 63 -32q80 -117 198 -273q13 -15 13 -30zM697 -29q-275 -1 -401 105t-126 280q0 111 28 216q144 552 144 620
q0 63 -78 61l-39 -2q-35 0 -35 37q0 68 60 68l299 -13q86 1 164 7t84 6q53 0 53 -41q0 -62 -51 -64l-31 2q-49 1 -83 -25t-75 -196q-135 -571 -135 -688t73 -180t189 -64q215 0 317 106t164 380q118 509 119 604q0 57 -86 57l-51 -2q-35 0 -35 37q1 30 17 52t45 22l225 -13
q57 1 126 7t71 6q49 0 49 -37q0 -68 -41 -68l-49 2q-55 -4 -80 -34q-41 -55 -72 -185q-48 -215 -77 -354q-30 -140 -42 -191q-59 -262 -212 -390t-428 -128z" />
    <glyph glyph-name="Udieresis" unicode="&#xdc;" horiz-adv-x="1548" 
d="M1276 1579q0 -51 -34 -87t-83 -36t-80 32t-31 84t35 87t84 35t79 -32t30 -83zM913 1579q1 -51 -33 -87t-82 -36t-80 32t-32 84t35 87t84 35t79 -32t29 -83zM697 -29q-275 -1 -401 105t-126 280q0 111 28 216q144 552 144 620q0 63 -78 61l-39 -2q-35 0 -35 37q0 68 60 68
l299 -13q86 1 164 7t84 6q53 0 53 -41q0 -62 -51 -64l-31 2q-49 1 -83 -25t-75 -196q-135 -571 -135 -688t73 -180t189 -64q215 0 317 106t164 380q118 509 119 604q0 57 -86 57l-51 -2q-35 0 -35 37q1 30 17 52t45 22l225 -13q57 1 126 7t71 6q49 0 49 -37q0 -68 -41 -68
l-49 2q-55 -4 -80 -34q-41 -55 -72 -185q-48 -215 -77 -354q-30 -140 -42 -191q-59 -262 -212 -390t-428 -128z" />
    <glyph glyph-name="Yacute" unicode="&#xdd;" horiz-adv-x="1411" 
d="M766 1483q0 18 29 43q29 26 115 98t127 110q40 38 81 38t69 -28q27 -28 27 -68t-57 -79q-80 -47 -206 -102t-146 -55q-39 4 -39 43zM967 59q-1 -23 -15 -42t-45 -19l-301 12l-309 -12q-37 0 -37 37q0 25 13 47t40 20l49 -2q72 0 102 45t60 181l43 186q8 29 8 48t-12 50
l-155 396q-22 63 -48 121q-26 59 -36 85q-16 41 -66 41l-35 -2q-33 0 -33 37q0 70 62 70q8 0 98 -6t191 -6l329 12q31 0 31 -39q0 -68 -59 -68l-39 2q-113 0 -113 -75q0 -55 39 -166l68 -199q25 -74 44 -74t77 72l157 205q117 150 117 186t-18 43q-18 8 -54 8h-55l-18 -2
q-31 0 -31 33q0 74 57 74l86 -6q83 -6 153 -6t142 6t88 6q40 0 41 -41q0 -27 -13 -45t-30 -19l-43 2q-37 -1 -82 -39t-178 -198l-332 -402q-4 -4 -11 -19t-14 -24t-12 -38l-49 -211q-43 -172 -2 -205q20 -18 80 -19l35 2q35 0 35 -43z" />
    <glyph glyph-name="Thorn" unicode="&#xde;" horiz-adv-x="1284" 
d="M506 455q0 -43 63 -43q201 0 286 87t85 271q0 92 -59 150t-158 59q-49 0 -74 -8q-31 -8 -41 -60l-96 -415q-6 -25 -6 -41zM446 160q0 -35 27 -47t82 -13l49 2q37 0 37 -43q0 -61 -66 -61l-317 10q-128 0 -202 -5t-79 -5q-39 0 -38 31q0 74 49 73l45 -2q59 0 88 43
q27 47 57 176l162 707q27 119 27 164q0 63 -84 63l-43 -2q-33 0 -33 33q0 72 53 72l297 -13l285 13q45 0 45 -39q-1 -25 -13 -45t-36 -21l-45 2q-77 -1 -97 -29t-30 -64t-11 -56q0 -25 31 -25l156 4q422 0 422 -311q0 -236 -178 -352t-472 -117l-106 4q-37 0 -47 -41
q-15 -71 -15 -106z" />
    <glyph glyph-name="germandbls" unicode="&#xdf;" horiz-adv-x="1280" 
d="M92 838q0 66 35 69q81 9 115 23t48 40q12 26 42 102t41 104q59 154 121 236t145 140q131 92 336 93q139 0 237 -67q98 -68 98 -192t-77 -233q-78 -109 -225 -220q-83 -63 -101 -103q-8 -19 -8 -39q0 -55 127 -201q158 -180 158 -310t-112 -220t-281 -89q-72 1 -139 19
q-68 18 -104 49t-36 69t25 74q25 35 67 35t64 -33q14 -27 37 -55q24 -27 33 -31t28 -14t64 -10q46 0 86 32t40 87q0 109 -140 267t-140 259q0 59 41 102q67 70 132 125q64 55 91 80q64 56 116 162t52 188t-45 129t-117 47q-118 0 -198 -98t-138 -317q-15 -54 -91 -411
q-75 -357 -93 -439q-82 -353 -168 -523t-182 -253q-135 -121 -314 -121q-100 0 -163 39q-41 27 -41 67t25 68q26 26 60 26t46 -26q25 -43 47 -60q25 -16 76 -16q78 0 137 72q90 109 211 676q70 355 92 456t22 114t-16 13l-139 -2q-27 0 -27 21z" />
    <glyph glyph-name="agrave" unicode="&#xe0;" horiz-adv-x="1220" 
d="M630 1473q50 0 79 -60q105 -209 125 -245t20 -54t-12 -30t-34 -13q-22 0 -48 29q-139 133 -207 213q-29 33 -29 76q4 35 30 59t76 25zM784 784q0 68 -96 68q-68 0 -121 -42t-119 -135t-111 -221q-44 -128 -44 -218q-1 -90 67 -90t150 81q82 82 154 220q120 227 120 337z
M885 172q0 -51 54 -51t97 53t56 107q10 31 38 30q41 0 41 -35q1 -24 -41 -100t-138 -139t-187 -64q-137 0 -137 129q0 90 23 157t23 76t-12 9t-22 -16q-49 -86 -70 -117q-90 -139 -180 -189t-192 -50t-160 58q-59 60 -60 152q0 262 193 504q209 264 481 264q94 0 158 -18
l57 -17q20 0 33 17l21 41q19 35 81 35t62 -41q0 -23 -57 -187t-109 -350q-52 -188 -53 -258z" />
    <glyph glyph-name="aacute" unicode="&#xe1;" horiz-adv-x="1220" 
d="M727 1073q-37 0 -37 35q0 20 58 99t143 206q39 59 96 60q84 0 84 -78q0 -41 -41 -82q-76 -76 -246 -213q-35 -27 -57 -27zM784 784q0 68 -96 68q-68 0 -121 -42t-119 -135t-111 -221q-44 -128 -44 -218q-1 -90 67 -90t150 81q82 82 154 220q120 227 120 337zM885 172
q0 -51 54 -51t97 53t56 107q10 31 38 30q41 0 41 -35q1 -24 -41 -100t-138 -139t-187 -64q-137 0 -137 129q0 90 23 157t23 76t-12 9t-22 -16q-49 -86 -70 -117q-90 -139 -180 -189t-192 -50t-160 58q-59 60 -60 152q0 262 193 504q209 264 481 264q94 0 158 -18l57 -17
q20 0 33 17l21 41q19 35 81 35t62 -41q0 -23 -57 -187t-109 -350q-52 -188 -53 -258z" />
    <glyph glyph-name="acircumflex" unicode="&#xe2;" horiz-adv-x="1220" 
d="M515 1073q-17 0 -29 10q-11 11 -11 25q1 14 13 30t110 127q98 112 140 163t84 51t57 -37q51 -123 96 -223t45 -107q0 -39 -45 -39q-23 0 -53 34t-119 146q-22 26 -49 -2q-111 -94 -203 -161q-19 -17 -36 -17zM784 784q0 68 -96 68q-68 0 -121 -42t-119 -135t-111 -221
q-44 -128 -44 -218q-1 -90 67 -90t150 81q82 82 154 220q120 227 120 337zM885 172q0 -51 54 -51t97 53t56 107q10 31 38 30q41 0 41 -35q1 -24 -41 -100t-138 -139t-187 -64q-137 0 -137 129q0 90 23 157t23 76t-12 9t-22 -16q-49 -86 -70 -117q-90 -139 -180 -189
t-192 -50t-160 58q-59 60 -60 152q0 262 193 504q209 264 481 264q94 0 158 -18l57 -17q20 0 33 17l21 41q19 35 81 35t62 -41q0 -23 -57 -187t-109 -350q-52 -188 -53 -258z" />
    <glyph glyph-name="atilde" unicode="&#xe3;" horiz-adv-x="1220" 
d="M965 1268q43 0 75 78q14 31 50 30q37 0 36 -37q0 -4 -10 -45q-61 -174 -182 -174q-43 0 -131 47t-113 47q-53 0 -90 -69q-14 -25 -43 -25q-41 0 -41 37q0 2 12 39q76 172 187 172q35 0 124 -50t126 -50zM784 784q0 68 -96 68q-68 0 -121 -42t-119 -135t-111 -221
q-44 -128 -44 -218q-1 -90 67 -90t150 81q82 82 154 220q120 227 120 337zM885 172q0 -51 54 -51t97 53t56 107q10 31 38 30q41 0 41 -35q1 -24 -41 -100t-138 -139t-187 -64q-137 0 -137 129q0 90 23 157t23 76t-12 9t-22 -16q-49 -86 -70 -117q-90 -139 -180 -189
t-192 -50t-160 58q-59 60 -60 152q0 262 193 504q209 264 481 264q94 0 158 -18l57 -17q20 0 33 17l21 41q19 35 81 35t62 -41q0 -23 -57 -187t-109 -350q-52 -188 -53 -258z" />
    <glyph glyph-name="adieresis" unicode="&#xe4;" horiz-adv-x="1220" 
d="M980 1366q50 0 81 -28t31 -79q0 -53 -33 -91t-83 -38t-81 30t-31 82t33 88t83 36zM642 1366q50 0 81 -28t31 -79q0 -53 -33 -91t-83 -38t-81 30t-31 82t33 88t83 36zM784 784q0 68 -96 68q-68 0 -121 -42t-119 -135t-111 -221q-44 -128 -44 -218q-1 -90 67 -90t150 81
q82 82 154 220q120 227 120 337zM885 172q0 -51 54 -51t97 53t56 107q10 31 38 30q41 0 41 -35q1 -24 -41 -100t-138 -139t-187 -64q-137 0 -137 129q0 90 23 157t23 76t-12 9t-22 -16q-49 -86 -70 -117q-90 -139 -180 -189t-192 -50t-160 58q-59 60 -60 152q0 262 193 504
q209 264 481 264q94 0 158 -18l57 -17q20 0 33 17l21 41q19 35 81 35t62 -41q0 -23 -57 -187t-109 -350q-52 -188 -53 -258z" />
    <glyph glyph-name="aring" unicode="&#xe5;" horiz-adv-x="1220" 
d="M899 1250q0 54 -27 80q-28 26 -74 26t-79 -35t-33 -86t26 -80t74 -29t81 35q32 35 32 89zM983 1256q0 -82 -55 -144q-56 -62 -144 -63q-88 0 -136 49t-48 133t59 142q59 59 143 59t132 -47q49 -47 49 -129zM784 784q0 68 -96 68q-68 0 -121 -42t-119 -135t-111 -221
q-44 -128 -44 -218q-1 -90 67 -90t150 81q82 82 154 220q120 227 120 337zM885 172q0 -51 54 -51t97 53t56 107q10 31 38 30q41 0 41 -35q1 -24 -41 -100t-138 -139t-187 -64q-137 0 -137 129q0 90 23 157t23 76t-12 9t-22 -16q-49 -86 -70 -117q-90 -139 -180 -189
t-192 -50t-160 58q-59 60 -60 152q0 262 193 504q209 264 481 264q94 0 158 -18l57 -17q20 0 33 17l21 41q19 35 81 35t62 -41q0 -23 -57 -187t-109 -350q-52 -188 -53 -258z" />
    <glyph glyph-name="ae" unicode="&#xe6;" horiz-adv-x="1550" 
d="M958 552q0 -22 15 -22q14 0 20 2q160 43 231 113q70 69 70 145t-69 76q-85 0 -151 -78t-105 -204q-11 -10 -11 -32zM784 772q0 74 -90 74q-125 0 -252 -182q-51 -74 -100 -200t-49 -222t69 -97q80 0 173 109q51 60 125 188t99 212t25 118zM911 301q1 -70 21 -115
q41 -90 145 -90q196 0 273 191q10 33 36 33q51 -1 54 -33q0 -27 -23 -62q-162 -254 -454 -254q-123 0 -195 49q-72 50 -86 134t-14 99t-10 15t-17 -12q-35 -55 -57 -86q-145 -199 -346 -199q-111 1 -165 63t-55 156q0 248 185 484q113 145 231 210t285 64q68 0 121 -18
t67 -18q26 -1 49 65q14 45 70 45t57 -29q0 -14 -16 -53t-16 -47t7 -8t27 14q113 66 209 66t155 -37q60 -37 60 -113q0 -131 -114 -211q-84 -59 -168 -88t-258 -65q-58 -13 -58 -150z" />
    <glyph glyph-name="ccedilla" unicode="&#xe7;" horiz-adv-x="907" 
d="M621 881q-142 -1 -264 -299q-64 -156 -64 -268t42 -166q42 -52 114 -52q170 0 256 133q12 19 23 55t42 35q49 0 49 -40q0 -16 -22 -58q-127 -215 -369 -246q-23 1 -39 -33t-16 -50t20 -25q127 -39 127 -156q0 -76 -60 -134q-115 -111 -290 -109q-49 0 -49 49t63 51
q154 4 160 110q0 68 -76 93q-28 10 -28 33t28 81t29 64q0 27 -23 31q-111 24 -170 102t-59 184q0 279 181 490t438 211q94 0 164 -44t69 -114q0 -100 -100 -100q-84 0 -88 65q-5 55 -23 81t-65 26z" />
    <glyph glyph-name="egrave" unicode="&#xe8;" horiz-adv-x="931" 
d="M472 1473q50 0 79 -60q105 -209 125 -245t20 -54t-12 -30t-34 -13q-22 0 -48 29q-139 133 -207 213q-29 33 -27 72t28 63t76 25zM342 547q0 -16 20 -17q8 0 54 14t103 48q56 34 85 66q70 78 70 151q0 74 -70 74t-140 -87t-116 -221q-6 -12 -6 -28zM293 268q0 -76 45 -124
q45 -50 104 -50q98 0 156 33q100 57 131 158q10 35 38 35q52 -1 52 -37q0 -20 -24 -64q-63 -106 -175 -177t-258 -71t-232 84q-85 84 -85 215q0 324 250 557q74 70 171 105t183 35q244 0 244 -176q0 -135 -186 -230q-77 -39 -137 -57t-212 -49q-43 -11 -54 -61t-11 -126z
" />
    <glyph glyph-name="eacute" unicode="&#xe9;" horiz-adv-x="931" 
d="M561 1073q-37 0 -37 35q0 20 58 99t143 206q39 59 96 60q84 0 84 -78q0 -41 -41 -82q-76 -76 -246 -213q-35 -27 -57 -27zM342 547q0 -16 20 -17q8 0 54 14t103 48q56 34 85 66q70 78 70 151q0 74 -70 74t-140 -87t-116 -221q-6 -12 -6 -28zM293 268q0 -76 45 -124
q45 -50 104 -50q98 0 156 33q100 57 131 158q10 35 38 35q52 -1 52 -37q0 -20 -24 -64q-63 -106 -175 -177t-258 -71t-232 84q-85 84 -85 215q0 324 250 557q74 70 171 105t183 35q244 0 244 -176q0 -135 -186 -230q-77 -39 -137 -57t-212 -49q-43 -11 -54 -61t-11 -126z
" />
    <glyph glyph-name="ecircumflex" unicode="&#xea;" horiz-adv-x="931" 
d="M409 1073q-17 0 -29 10q-11 11 -11 25t12 30t111 127q98 112 149 175q33 39 75 39t56 -37q51 -123 96 -223t45 -107q0 -39 -45 -39q-22 0 -52 34t-120 146q-12 15 -22 15t-74 -56t-156 -122q-18 -17 -35 -17zM342 547q0 -16 20 -17q8 0 54 14t103 48q56 34 85 66
q70 78 70 151q0 74 -70 74t-140 -87t-116 -221q-6 -12 -6 -28zM293 268q0 -76 45 -124q45 -50 104 -50q98 0 156 33q100 57 131 158q10 35 38 35q52 -1 52 -37q0 -20 -24 -64q-63 -106 -175 -177t-258 -71t-232 84q-85 84 -85 215q0 324 250 557q74 70 171 105t183 35
q244 0 244 -176q0 -135 -186 -230q-77 -39 -137 -57t-212 -49q-43 -11 -54 -61t-11 -126z" />
    <glyph glyph-name="edieresis" unicode="&#xeb;" horiz-adv-x="931" 
d="M843 1366q51 0 81 -28t30 -79q0 -52 -32 -91q-33 -38 -83 -38t-81 30t-31 82t33 88t83 36zM505 1366q51 0 81 -28t30 -79q0 -52 -32 -91q-33 -38 -83 -38t-81 30t-31 82t33 88t83 36zM342 547q0 -16 20 -17q8 0 54 14t103 48q56 34 85 66q70 78 70 151q0 74 -70 74
t-140 -87t-116 -221q-6 -12 -6 -28zM293 268q0 -76 45 -124q45 -50 104 -50q98 0 156 33q100 57 131 158q10 35 38 35q52 -1 52 -37q0 -20 -24 -64q-63 -106 -175 -177t-258 -71t-232 84q-85 84 -85 215q0 324 250 557q74 70 171 105t183 35q244 0 244 -176
q0 -135 -186 -230q-77 -39 -137 -57t-212 -49q-43 -11 -54 -61t-11 -126z" />
    <glyph glyph-name="igrave" unicode="&#xec;" horiz-adv-x="724" 
d="M320 1473q50 0 79 -60q104 -209 131 -257t2 -73q-12 -12 -34 -12t-47 29q-139 133 -207 213q-29 33 -29 76q4 35 30 59q25 24 75 25zM369 172q0 -47 49 -47t96 61q25 33 40 79t42 46q47 0 47 -39q0 -20 -26 -66t-62 -87q-135 -145 -291 -145t-155 116q0 58 100 334
t100 332t-37 55q-68 0 -116 -80q-12 -20 -24 -52t-38 -32q-46 0 -47 31q0 25 21 57q63 98 161 163t205 65q135 0 135 -123q0 -76 -100 -356t-100 -312z" />
    <glyph glyph-name="iacute" unicode="&#xed;" horiz-adv-x="724" 
d="M377 1073q-37 0 -37 35q0 20 20 45q96 133 181 260q39 59 96 60q84 0 84 -78q0 -41 -41 -82q-76 -76 -246 -213q-35 -27 -57 -27zM369 172q0 -47 49 -47t96 61q25 33 40 79t42 46q47 0 47 -39q0 -20 -26 -66t-62 -87q-135 -145 -291 -145t-155 116q0 58 100 334t100 332
t-37 55q-68 0 -116 -80q-12 -20 -24 -52t-38 -32q-46 0 -47 31q0 25 21 57q63 98 161 163t205 65q135 0 135 -123q0 -76 -100 -356t-100 -312z" />
    <glyph glyph-name="icircumflex" unicode="&#xee;" horiz-adv-x="724" 
d="M198 1073q-17 0 -29 10q-11 11 -11 25t12 30t111 127q98 112 149 175q33 39 75 39t56 -37q51 -123 96 -223t45 -107q0 -39 -45 -39q-23 0 -53 34t-119 146q-12 15 -22 15t-74 -56t-156 -122q-18 -17 -35 -17zM369 172q0 -47 49 -47t96 61q25 33 40 79t42 46q47 0 47 -39
q0 -20 -26 -66t-62 -87q-135 -145 -291 -145t-155 116q0 58 100 334t100 332t-37 55q-68 0 -116 -80q-12 -20 -24 -52t-38 -32q-46 0 -47 31q0 25 21 57q63 98 161 163t205 65q135 0 135 -123q0 -76 -100 -356t-100 -312z" />
    <glyph glyph-name="idieresis" unicode="&#xef;" horiz-adv-x="724" 
d="M650 1366q50 0 81 -28t31 -79q0 -53 -33 -91t-83 -38t-81 30t-31 82t33 88t83 36zM312 1366q50 0 81 -28t31 -79q0 -53 -33 -91t-83 -38t-81 30t-31 82t33 88t83 36zM369 172q0 -47 49 -47t96 61q25 33 40 79t42 46q47 0 47 -39q0 -20 -26 -66t-62 -87
q-135 -145 -291 -145t-155 116q0 58 100 334t100 332t-37 55q-68 0 -116 -80q-12 -20 -24 -52t-38 -32q-46 0 -47 31q0 25 21 57q63 98 161 163t205 65q135 0 135 -123q0 -76 -100 -356t-100 -312z" />
    <glyph glyph-name="eth" unicode="&#xf0;" horiz-adv-x="1038" 
d="M723 707q0 143 -109 143q-98 0 -172 -121q-145 -240 -145 -512q0 -68 31 -112t84 -44q167 0 268 386q43 166 43 260zM997 786q0 -156 -56 -342q-56 -184 -128 -276t-175 -144t-222 -53q-170 1 -268 95t-99 249q0 258 172 461q70 80 171 126q100 46 200 46t145 -39
q19 -18 31 -18t12 22q0 178 -59 320q-4 10 -14 10t-19 -4l-211 -104q-53 -26 -73 7q-11 19 -11 41t27 36l215 106q16 8 16 21q0 2 -4 14q-29 63 -108 135q-33 27 -77 57t-42 50q0 55 55 55q33 0 103 -33q117 -53 235 -180q8 -8 17 -8t18 4l162 84q14 8 30 8t30 -20t13 -42
q0 -22 -41 -45l-137 -67q-24 -14 -16 -31q66 -135 87 -260t21 -281z" />
    <glyph glyph-name="ntilde" unicode="&#xf1;" horiz-adv-x="1253" 
d="M891 1268q43 0 76 78q14 31 49 30q37 0 37 -37q0 -4 -11 -45q-61 -174 -182 -174q-43 0 -131 47t-113 47q-53 0 -90 -69q-14 -25 -43 -25q-41 0 -41 37q0 2 13 39q76 172 186 172q35 0 124 -50t126 -50zM248 -16q-141 0 -142 104q0 24 10 60t97 280q86 244 86 336
q0 47 -33 47q-45 0 -83 -44t-52 -89q-10 -31 -47 -31t-37 35q0 25 31 70q62 92 158 151t202 60q51 0 80 -27t29 -77t-92 -259q-4 -12 -4 -19t11 -7t17 10q213 372 490 372q141 0 141 -116q0 -75 -60 -242q-10 -25 -28 -78t-62 -176t-46 -171q-1 -48 40 -48q61 0 111 70
q23 33 35 75t50 41q38 0 38 -37q0 -18 -33 -78t-94 -114q-129 -109 -268 -109t-140 107q0 44 92 319t93 334q0 39 -45 39t-95 -45q-138 -125 -208 -255t-117 -310q-5 -23 -9 -70t-10 -63q-6 -17 -32 -31t-74 -14z" />
    <glyph glyph-name="ograve" unicode="&#xf2;" horiz-adv-x="1036" 
d="M526 1473q50 0 78 -60q104 -209 131 -257t2 -73q-11 -12 -33 -12t-49 29q-138 133 -206 213q-29 33 -29 76q4 35 30 59t76 25zM735 729q0 143 -108 143q-96 0 -168 -118t-117 -266q-45 -146 -45 -242q0 -184 115 -185q98 0 170 125q57 98 105 274t48 269zM635 967
q158 1 249 -87t91 -225t-44 -267t-117 -221t-176 -143t-222 -53q-170 1 -268 95t-99 249q0 262 184 480q70 78 181 125t221 47z" />
    <glyph glyph-name="oacute" unicode="&#xf3;" horiz-adv-x="1036" 
d="M578 1073q-37 0 -37 35q0 20 20 45q96 133 180 260q39 59 97 60q84 0 84 -78q0 -41 -41 -82q-76 -76 -246 -213q-35 -27 -57 -27zM735 729q0 143 -108 143q-96 0 -168 -118t-117 -266q-45 -146 -45 -242q0 -184 115 -185q98 0 170 125q57 98 105 274t48 269zM635 967
q158 1 249 -87t91 -225t-44 -267t-117 -221t-176 -143t-222 -53q-170 1 -268 95t-99 249q0 262 184 480q70 78 181 125t221 47z" />
    <glyph glyph-name="ocircumflex" unicode="&#xf4;" horiz-adv-x="1036" 
d="M419 1073q-17 0 -29 10q-11 11 -11 25t12 30t111 127q98 112 149 175q33 39 75 39t56 -37q51 -123 96 -223t46 -107q0 -39 -45 -39q-23 0 -53 34t-119 146q-13 15 -23 15t-74 -56t-119 -97q-55 -42 -72 -42zM735 729q0 143 -108 143q-96 0 -168 -118t-117 -266
q-45 -146 -45 -242q0 -184 115 -185q98 0 170 125q57 98 105 274t48 269zM635 967q158 1 249 -87t91 -225t-44 -267t-117 -221t-176 -143t-222 -53q-170 1 -268 95t-99 249q0 262 184 480q70 78 181 125t221 47z" />
    <glyph glyph-name="otilde" unicode="&#xf5;" horiz-adv-x="1036" 
d="M846 1268q43 0 76 78q14 31 49 30q37 0 37 -37q0 -4 -11 -45q-61 -174 -182 -174q-43 0 -131 47t-113 47q-53 0 -90 -69q-14 -25 -43 -25q-41 0 -41 37q0 2 13 39q76 172 186 172q35 0 124 -50t126 -50zM735 729q0 143 -108 143q-96 0 -168 -118t-117 -266
q-45 -146 -45 -242q0 -184 115 -185q98 0 170 125q57 98 105 274t48 269zM635 967q158 1 249 -87t91 -225t-44 -267t-117 -221t-176 -143t-222 -53q-170 1 -268 95t-99 249q0 262 184 480q70 78 181 125t221 47z" />
    <glyph glyph-name="odieresis" unicode="&#xf6;" horiz-adv-x="1036" 
d="M867 1366q50 0 81 -28t31 -79q0 -53 -33 -91t-83 -38t-81 30q-30 30 -30 82t32 88q33 36 83 36zM530 1366q50 0 80 -28t31 -79q0 -53 -33 -91t-83 -38t-81 30q-30 30 -30 82t32 88q34 36 84 36zM735 729q0 143 -108 143q-96 0 -168 -118t-117 -266q-45 -146 -45 -242
q0 -184 115 -185q98 0 170 125q57 98 105 274t48 269zM635 967q158 1 249 -87t91 -225t-44 -267t-117 -221t-176 -143t-222 -53q-170 1 -268 95t-99 249q0 262 184 480q70 78 181 125t221 47z" />
    <glyph glyph-name="divide" unicode="&#xf7;" horiz-adv-x="1314" 
d="M626 369q122 1 122 -119q0 -62 -44 -105t-100 -43q-117 0 -117 118q0 58 41 104q42 45 98 45zM775 999q120 1 120 -121q0 -62 -42 -105q-42 -42 -99 -42t-88 31q-31 32 -31 90t42 102t98 45zM1137 471h-918q-25 0 -24 18q0 4 4 37l20 80q10 29 33 29h919q25 0 25 -23
q0 -2 -4 -34l-21 -82q-7 -25 -34 -25z" />
    <glyph glyph-name="oslash" unicode="&#xf8;" horiz-adv-x="1036" 
d="M301 373q0 -12 10 -13q8 0 19 13l391 424q10 10 10 18t-6 19q-29 41 -88 40q-111 1 -195 -131t-135 -333q-6 -25 -6 -37zM739 636q0 12 -8 13q-8 0 -22 -14l-410 -447q-12 -12 -12 -28t10 -31q33 -70 106 -70q123 0 193 125q94 168 139 420q4 20 4 32zM58 -53
q-18 0 -38 17q-18 16 -18 32t14 33l70 75q10 10 10 16t-6 19q-41 78 -41 176q0 262 184 480q70 78 181 125t215 47t182 -39q12 -6 19 -6t18 14l57 63q13 13 33 13t38 -16t17 -32q0 -16 -16 -36l-53 -58q-20 -20 -2 -36q53 -78 53 -197t-44 -249t-117 -221t-176 -143
t-230 -52t-222 61q-8 8 -15 8t-19 -12l-60 -66q-16 -16 -34 -16z" />
    <glyph glyph-name="ugrave" unicode="&#xf9;" horiz-adv-x="1280" 
d="M580 1473q50 0 79 -60q104 -209 125 -245t21 -54t-12 -30t-34 -13q-22 0 -48 29q-139 133 -207 213q-29 33 -29 76q4 35 30 59q25 24 75 25zM961 186q0 -64 49 -65q66 0 125 117q2 4 14 41q8 33 44 33t36 -26t-21 -71q-53 -113 -144 -177t-181 -65q-154 0 -154 125
q0 68 72 273q4 12 4 17t-9 5t-16 -12q-49 -98 -162 -229q-158 -178 -328 -178t-171 159q0 59 95 312t95 323q0 43 -37 43q-63 0 -116 -80q-14 -23 -26 -53t-47 -31q-36 0 -36 32t27 69q158 215 377 215q51 0 85 -29t33 -76q0 -100 -93 -336t-93 -296t51 -60q66 0 152 87
t164 228q131 242 133 373q0 92 94 92q164 0 164 -69q-1 -23 -11 -55t-20 -68q-10 -35 -21 -73q-11 -39 -31 -105t-59 -196q-38 -130 -38 -194z" />
    <glyph glyph-name="uacute" unicode="&#xfa;" horiz-adv-x="1280" 
d="M657 1073q-37 0 -36 35q0 20 20 45q96 133 180 260q39 59 97 60q84 0 83 -78q1 -41 -40 -82q-76 -76 -246 -213q-35 -27 -58 -27zM961 186q0 -64 49 -65q66 0 125 117q2 4 14 41q8 33 44 33t36 -26t-21 -71q-53 -113 -144 -177t-181 -65q-154 0 -154 125q0 68 72 273
q4 12 4 17t-9 5t-16 -12q-49 -98 -162 -229q-158 -178 -328 -178t-171 159q0 59 95 312t95 323q0 43 -37 43q-63 0 -116 -80q-14 -23 -26 -53t-47 -31q-36 0 -36 32t27 69q158 215 377 215q51 0 85 -29t33 -76q0 -100 -93 -336t-93 -296t51 -60q66 0 152 87t164 228
q131 242 133 373q0 92 94 92q164 0 164 -69q-1 -23 -11 -55t-20 -68q-10 -35 -21 -73q-11 -39 -31 -105t-59 -196q-38 -130 -38 -194z" />
    <glyph glyph-name="ucircumflex" unicode="&#xfb;" horiz-adv-x="1280" 
d="M517 1073q-17 0 -29 10q-11 11 -11 25q1 14 13 30t110 127q98 112 140 163t84 51t57 -37q51 -123 96 -223t45 -107q0 -39 -45 -39q-23 0 -53 34t-119 146q-22 26 -49 -2q-111 -94 -203 -161q-19 -17 -36 -17zM961 186q0 -64 49 -65q66 0 125 117q2 4 14 41q8 33 44 33
t36 -26t-21 -71q-53 -113 -144 -177t-181 -65q-154 0 -154 125q0 68 72 273q4 12 4 17t-9 5t-16 -12q-49 -98 -162 -229q-158 -178 -328 -178t-171 159q0 59 95 312t95 323q0 43 -37 43q-63 0 -116 -80q-14 -23 -26 -53t-47 -31q-36 0 -36 32t27 69q158 215 377 215
q51 0 85 -29t33 -76q0 -100 -93 -336t-93 -296t51 -60q66 0 152 87t164 228q131 242 133 373q0 92 94 92q164 0 164 -69q-1 -23 -11 -55t-20 -68q-10 -35 -21 -73q-11 -39 -31 -105t-59 -196q-38 -130 -38 -194z" />
    <glyph glyph-name="udieresis" unicode="&#xfc;" horiz-adv-x="1280" 
d="M941 1366q50 0 81 -28t31 -79q0 -53 -33 -91t-83 -38t-81 30t-31 82t33 88t83 36zM603 1366q50 0 81 -28t31 -79q0 -53 -33 -91t-83 -38t-81 30t-31 82t33 88t83 36zM961 186q0 -64 49 -65q66 0 125 117q2 4 14 41q8 33 44 33t36 -26t-21 -71q-53 -113 -144 -177
t-181 -65q-154 0 -154 125q0 68 72 273q4 12 4 17t-9 5t-16 -12q-49 -98 -162 -229q-158 -178 -328 -178t-171 159q0 59 95 312t95 323q0 43 -37 43q-63 0 -116 -80q-14 -23 -26 -53t-47 -31q-36 0 -36 32t27 69q158 215 377 215q51 0 85 -29t33 -76q0 -100 -93 -336
t-93 -296t51 -60q66 0 152 87t164 228q131 242 133 373q0 92 94 92q164 0 164 -69q-1 -23 -11 -55t-20 -68q-10 -35 -21 -73q-11 -39 -31 -105t-59 -196q-38 -130 -38 -194z" />
    <glyph glyph-name="yacute" unicode="&#xfd;" horiz-adv-x="1179" 
d="M598 1073q-37 0 -37 35q1 20 59 99t142 206q39 59 96 60q84 0 84 -78q0 -41 -41 -82q-76 -76 -246 -213q-35 -27 -57 -27zM1077 721q0 -166 -50 -378t-96 -336q-46 -125 -116 -241q-229 -381 -604 -380q-145 0 -214 39t-69 104q0 41 33 72t68 30q57 0 75 -46
q18 -45 68 -71t118 -26q173 0 303 252q79 154 204 489q4 11 4 19t-9 8t-16 -8q-201 -274 -465 -275q-98 0 -144 41t-46 117t65 239q6 15 21 55q14 40 22 60q80 215 80 271t-39 55q-63 0 -116 -84q-4 -6 -27 -57q-8 -23 -44 -23t-36 31t27 70q66 96 162 155t196 60
q137 0 137 -117q0 -84 -92 -320t-92 -300q0 -63 76 -62q129 0 239 104t160 224q51 120 51 196q0 129 -59 197q-39 45 -39 71t30 55q30 27 84 27t91 -57q59 -94 59 -260z" />
    <glyph glyph-name="thorn" unicode="&#xfe;" horiz-adv-x="1157" 
d="M338 166q0 -80 131 -80q109 0 203 143q63 97 107 229t44 206q0 115 -67 114q-72 0 -140 -57q-100 -86 -189 -261t-89 -294zM324 -526q0 -66 -52 -66l-108 4q-106 4 -172 4l-254 -8q-14 0 -24 11q-9 11 -9 28q0 59 47 59l43 -2q43 0 76 42t68 163q90 311 471 1573
q20 74 20 102q0 63 -92 91q-23 6 -23 24q1 17 9 29t16 14q217 47 365 105q25 8 36 8q27 0 27 -23q0 -12 -8 -33q-262 -772 -350 -976q-4 -12 -4 -15q0 -12 11 -12t17 10q51 86 84 129q182 227 389 228q89 -1 141 -59t52 -142q0 -246 -150 -477q-94 -147 -224 -223t-267 -76
q-76 0 -122 7t-52 7q-14 0 -23 -29q-117 -380 -116 -412q2 -32 22 -43t65 -12l56 2q35 0 35 -32z" />
    <glyph glyph-name="ydieresis" unicode="&#xff;" horiz-adv-x="1179" 
d="M876 1366q50 0 80 -28t31 -79q0 -53 -33 -91t-83 -38q-51 0 -81 30t-30 82t33 88t83 36zM538 1366q50 0 80 -28t31 -79q0 -53 -33 -91t-83 -38q-51 0 -81 30t-30 82t33 88t83 36zM1077 721q0 -166 -50 -378t-96 -336q-46 -125 -116 -241q-229 -381 -604 -380
q-145 0 -214 39t-69 104q0 41 33 72t68 30q57 0 75 -46q18 -45 68 -71t118 -26q173 0 303 252q79 154 204 489q4 11 4 19t-9 8t-16 -8q-201 -274 -465 -275q-98 0 -144 41t-46 117t65 239q6 15 21 55q14 40 22 60q80 215 80 271t-39 55q-63 0 -116 -84q-4 -6 -27 -57
q-8 -23 -44 -23t-36 31t27 70q66 96 162 155t196 60q137 0 137 -117q0 -84 -92 -320t-92 -300q0 -63 76 -62q129 0 239 104t160 224q51 120 51 196q0 129 -59 197q-39 45 -39 71t30 55q30 27 84 27t91 -57q59 -94 59 -260z" />
    <glyph glyph-name="Amacron" unicode="&#x100;" horiz-adv-x="1501" 
d="M1237 1606q0 -37 -15 -69t-48 -32h-461q-43 0 -43 43q0 104 59 105h463q45 0 45 -47zM557 623q0 -15 11 -19t53 -4h178q63 0 63 29q0 20 -4 53l-39 322q-2 20 -15 20t-30 -27l-192 -323q-25 -37 -25 -51zM924 180q0 41 -11 119l-16 135q-4 37 -17 50t-44 14h-314
q-25 0 -38 -10t-31 -39l-95 -148q-53 -80 -60 -109q-7 -28 -7 -45q0 -47 100 -47q10 0 27 2h14q37 0 37 -41q0 -63 -49 -63l-299 12q-53 0 -113 -6t-63 -6q-37 0 -37 41q0 23 12 43t37 20l39 -2q41 0 78 41q49 49 119 158q397 618 557 887q35 63 47 96t49 51q86 43 164 43
q39 0 45 -43q0 -53 153 -1034q16 -111 40 -155t87 -44l33 2q37 0 37 -45q0 -59 -55 -59l-310 12l-297 -12q-39 0 -38 41q0 63 51 63l53 -2q71 0 93 20t22 60z" />
    <glyph glyph-name="amacron" unicode="&#x101;" horiz-adv-x="1220" 
d="M1040 1219q0 -106 -57 -107h-432q-43 0 -43 37q0 57 17 86t40 29h439q36 0 36 -45zM784 784q0 68 -96 68q-68 0 -121 -42t-119 -135t-111 -221q-44 -128 -44 -218q-1 -90 67 -90t150 81q82 82 154 220q120 227 120 337zM885 172q0 -51 54 -51t97 53t56 107q10 31 38 30
q41 0 41 -35q1 -24 -41 -100t-138 -139t-187 -64q-137 0 -137 129q0 90 23 157t23 76t-12 9t-22 -16q-49 -86 -70 -117q-90 -139 -180 -189t-192 -50t-160 58q-59 60 -60 152q0 262 193 504q209 264 481 264q94 0 158 -18l57 -17q20 0 33 17l21 41q19 35 81 35t62 -41
q0 -23 -57 -187t-109 -350q-52 -188 -53 -258z" />
    <glyph glyph-name="Abreve" unicode="&#x102;" horiz-adv-x="1501" 
d="M1198 1776q39 0 39 -43q0 -113 -87 -189q-88 -76 -202 -76t-190 52t-76 151q0 14 4 55q4 51 51 52q41 0 45 -39q8 -127 163 -127t200 123q14 41 53 41zM557 623q0 -15 11 -19t53 -4h178q63 0 63 29q0 20 -4 53l-39 322q-2 20 -15 20t-30 -27l-192 -323q-25 -37 -25 -51z
M924 180q0 41 -11 119l-16 135q-4 37 -17 50t-44 14h-314q-25 0 -38 -10t-31 -39l-95 -148q-53 -80 -60 -109q-7 -28 -7 -45q0 -47 100 -47q10 0 27 2h14q37 0 37 -41q0 -63 -49 -63l-299 12q-53 0 -113 -6t-63 -6q-37 0 -37 41q0 23 12 43t37 20l39 -2q41 0 78 41
q49 49 119 158q397 618 557 887q35 63 47 96t49 51q86 43 164 43q39 0 45 -43q0 -53 153 -1034q16 -111 40 -155t87 -44l33 2q37 0 37 -45q0 -59 -55 -59l-310 12l-297 -12q-39 0 -38 41q0 63 51 63l53 -2q71 0 93 20t22 60z" />
    <glyph glyph-name="abreve" unicode="&#x103;" horiz-adv-x="1220" 
d="M995 1374q39 0 39 -43q0 -115 -78 -189t-189 -75q-111 0 -180 50t-69 153q0 14 4 55q4 51 51 51q41 0 45 -39q8 -127 150 -127q68 0 109 28t65 95q14 41 53 41zM784 784q0 68 -96 68q-68 0 -121 -42t-119 -135t-111 -221q-44 -128 -44 -218q-1 -90 67 -90t150 81
q82 82 154 220q120 227 120 337zM885 172q0 -51 54 -51t97 53t56 107q10 31 38 30q41 0 41 -35q1 -24 -41 -100t-138 -139t-187 -64q-137 0 -137 129q0 90 23 157t23 76t-12 9t-22 -16q-49 -86 -70 -117q-90 -139 -180 -189t-192 -50t-160 58q-59 60 -60 152q0 262 193 504
q209 264 481 264q94 0 158 -18l57 -17q20 0 33 17l21 41q19 35 81 35t62 -41q0 -23 -57 -187t-109 -350q-52 -188 -53 -258z" />
    <glyph glyph-name="Aogonek" unicode="&#x104;" horiz-adv-x="1501" 
d="M557 623q0 -15 11 -19t53 -4h178q63 0 63 29q0 20 -4 53l-39 322q-1 20 -15 20t-30 -27l-192 -323q-25 -37 -25 -51zM958 8l-215 -10q-39 0 -38 41q0 63 51 63l53 -2q71 0 93 20t22 60q0 41 -11 119l-16 135q-4 37 -17 50t-44 14h-314q-25 0 -38 -10t-31 -39l-95 -148
q-53 -80 -60 -109q-7 -28 -7 -45q0 -47 100 -47q10 0 27 2h14q37 0 37 -41q0 -63 -49 -63l-299 12q-53 0 -113 -6t-63 -6q-37 0 -37 41q0 23 12 43t37 20l39 -2q41 0 78 41q49 49 119 158q397 618 557 887q35 63 47 96t49 51q86 43 164 43q39 0 45 -43q0 -53 153 -1034
q16 -111 40 -155t87 -44l33 2q37 0 37 -45q0 -59 -55 -59q-18 0 -203 10q-29 -4 -37 -12q-168 -145 -168 -275q0 -104 98 -104q49 1 83 25q35 24 53 24q38 0 38 -51q0 -25 -30 -45q-90 -74 -198 -74t-158 51t-50 129q0 141 197 299q16 13 16 23q-1 10 -33 10z" />
    <glyph glyph-name="aogonek" unicode="&#x105;" horiz-adv-x="1220" 
d="M788 784q0 68 -98 68q-66 0 -120 -44t-122 -138t-111 -219q-44 -125 -44 -215q-1 -90 67 -90t150 81q82 82 154 218q124 237 124 339zM885 172q0 -51 54 -51t97 53t56 107q10 31 38 30q41 0 41 -35q0 -23 -34 -88q-41 -70 -113 -127t-150 -77q-23 -6 -30 -17
q-131 -115 -131 -226t96 -112q53 1 83 25t48 24q20 0 32 -15t11 -35q0 -20 -33 -44q-88 -72 -194 -72t-156 51q-49 50 -49 124q0 129 168 270q14 14 14 20t-18 21q-47 34 -47 114t23 147t23 76t-12 9t-22 -16q-49 -86 -70 -117q-90 -139 -180 -189t-192 -50t-160 58
q-59 60 -60 152q0 262 193 504q209 264 481 264q94 0 158 -18l57 -17q20 0 33 17l21 41q19 35 81 35t62 -41q0 -23 -57 -187t-109 -350q-52 -188 -53 -258z" />
    <glyph glyph-name="Cacute" unicode="&#x106;" horiz-adv-x="1415" 
d="M756 1483q0 18 28 43q29 26 116 98t127 110t81 38t69 -28q27 -28 27 -68t-57 -79q-80 -47 -305 -145q-29 -12 -47 -12q-39 4 -39 43zM430 551q0 -223 100 -345t261 -122q73 0 153 28t125 70t123 170q12 29 54 29t42 -27q0 -20 -26 -109t-54 -127q-29 -38 -104 -71
q-164 -72 -389 -72q-307 0 -454 159q-146 159 -146 405t115 451q62 112 154 197t238 138t348 53t367 -55q49 -16 49 -57q0 -4 -5 -57t-5 -208q0 -47 -47 -47q-35 0 -46 12t-11 38q-2 109 -45 172q-63 94 -249 94t-312 -115q-124 -115 -180 -275t-56 -329z" />
    <glyph glyph-name="cacute" unicode="&#x107;" horiz-adv-x="907" 
d="M557 1073q-37 0 -37 35q0 20 58 99t143 206q39 59 96 60q84 0 84 -78q0 -41 -41 -82q-76 -76 -246 -213q-35 -27 -57 -27zM621 881q-142 -1 -264 -299q-64 -156 -64 -268t42 -166q42 -52 114 -52q170 0 256 133q12 19 23 55t42 35q49 0 49 -40q0 -16 -22 -58
q-68 -115 -181 -183q-114 -68 -260 -67q-146 0 -228 84t-83 211q0 279 181 490t438 211q94 0 164 -44t69 -114q0 -100 -100 -100q-84 0 -88 65q-5 55 -23 81t-65 26z" />
    <glyph glyph-name="Ccircumflex" unicode="&#x108;" horiz-adv-x="1415" 
d="M1266 1469q0 -15 -12 -26t-30 -11t-40 16q-115 84 -158 124t-54 40t-38 -17q-176 -115 -218 -139t-62 -24q-19 0 -29 11q-27 29 4 52q254 237 289 273q34 36 74 36t63 -32q80 -117 198 -273q13 -15 13 -30zM430 551q0 -223 100 -345t261 -122q73 0 153 28t125 70t123 170
q12 29 54 29t42 -27q0 -20 -26 -109t-54 -127q-29 -38 -104 -71q-164 -72 -389 -72q-307 0 -454 159q-146 159 -146 405t115 451q62 112 154 197t238 138t348 53t367 -55q49 -16 49 -57q0 -4 -5 -57t-5 -208q0 -47 -47 -47q-35 0 -46 12t-11 38q-2 109 -45 172
q-63 94 -249 94t-312 -115q-124 -115 -180 -275t-56 -329z" />
    <glyph glyph-name="ccircumflex" unicode="&#x109;" horiz-adv-x="907" 
d="M413 1073q-17 0 -29 10q-11 11 -11 25t12 30t111 127q98 112 149 175q33 39 75 39t56 -37q51 -123 96 -223t46 -107q0 -39 -46 -39q-23 0 -52 34t-120 146q-12 15 -22 15t-74 -56t-119 -97q-55 -42 -72 -42zM621 881q-142 -1 -264 -299q-64 -156 -64 -268t42 -166
q42 -52 114 -52q170 0 256 133q12 19 23 55t42 35q49 0 49 -40q0 -16 -22 -58q-68 -115 -181 -183q-114 -68 -260 -67q-146 0 -228 84t-83 211q0 279 181 490t438 211q94 0 164 -44t69 -114q0 -100 -100 -100q-84 0 -88 65q-5 55 -23 81t-65 26z" />
    <glyph glyph-name="Cdotaccent" unicode="&#x10a;" horiz-adv-x="1415" 
d="M1059 1579q0 -51 -34 -87t-83 -36t-80 32t-31 84t35 87t84 35t79 -32t30 -83zM430 551q0 -223 100 -345t261 -122q73 0 153 28t125 70t123 170q12 29 54 29t42 -27q0 -20 -26 -109t-54 -127q-29 -38 -104 -71q-164 -72 -389 -72q-307 0 -454 159q-146 159 -146 405
t115 451q62 112 154 197t238 138t348 53t367 -55q49 -16 49 -57q0 -4 -5 -57t-5 -208q0 -47 -47 -47q-35 0 -46 12t-11 38q-2 109 -45 172q-63 94 -249 94t-312 -115q-124 -115 -180 -275t-56 -329z" />
    <glyph glyph-name="cdotaccent" unicode="&#x10b;" horiz-adv-x="907" 
d="M677 1366q51 0 81 -28t30 -79q0 -52 -32 -91q-33 -38 -83 -38t-81 30t-31 82t33 88t83 36zM621 881q-142 -1 -264 -299q-64 -156 -64 -268t42 -166q42 -52 114 -52q170 0 256 133q12 19 23 55t42 35q49 0 49 -40q0 -16 -22 -58q-68 -115 -181 -183q-114 -68 -260 -67
q-146 0 -228 84t-83 211q0 279 181 490t438 211q94 0 164 -44t69 -114q0 -100 -100 -100q-84 0 -88 65q-5 55 -23 81t-65 26z" />
    <glyph glyph-name="Ccaron" unicode="&#x10c;" horiz-adv-x="1415" 
d="M659 1777q-1 15 11 26q29 27 71 -5q115 -84 158 -124t54 -40t38 17q176 115 232 146t80 4q24 -28 -7 -50q-254 -237 -288 -273t-75 -36q-40 0 -63 33q-80 117 -198 272q-13 15 -13 30zM430 551q0 -223 100 -345t261 -122q73 0 153 28t125 70t123 170q12 29 54 29t42 -27
q0 -20 -26 -109t-54 -127q-29 -38 -104 -71q-164 -72 -389 -72q-307 0 -454 159q-146 159 -146 405t115 451q62 112 154 197t238 138t348 53t367 -55q49 -16 49 -57q0 -4 -5 -57t-5 -208q0 -47 -47 -47q-35 0 -46 12t-11 38q-2 109 -45 172q-63 94 -249 94t-312 -115
q-124 -115 -180 -275t-56 -329z" />
    <glyph glyph-name="ccaron" unicode="&#x10d;" horiz-adv-x="907" 
d="M628 1282q10 0 74 55t120 97t72 43q16 -1 28 -11t12 -24t-12 -30t-110 -127q-98 -112 -150 -175q-33 -39 -75 -39t-57 37q-51 123 -96 223t-45 107q0 39 45 39q22 0 52 -34t120 -147q12 -14 22 -14zM621 881q-142 -1 -264 -299q-64 -156 -64 -268t42 -166q42 -52 114 -52
q170 0 256 133q12 19 23 55t42 35q49 0 49 -40q0 -16 -22 -58q-68 -115 -181 -183q-114 -68 -260 -67q-146 0 -228 84t-83 211q0 279 181 490t438 211q94 0 164 -44t69 -114q0 -100 -100 -100q-84 0 -88 65q-5 55 -23 81t-65 26z" />
    <glyph glyph-name="Dcaron" unicode="&#x10e;" horiz-adv-x="1533" 
d="M543 1777q0 15 11 26q28 28 71 -5q115 -84 157 -124t54 -40t38 17q176 115 231 146t79 6q10 -11 10 -26t-14 -26q-254 -237 -289 -273t-75 -36t-62 33q-80 117 -199 272q-12 15 -12 30zM459 212q0 -54 48 -79t177 -24q225 0 370 194q144 195 144 514q0 221 -76 313
q-96 115 -286 115q-100 0 -129 -20t-50 -105l-184 -792q-14 -62 -14 -116zM367 1188q0 66 -97 65l-34 -2q-35 0 -35 41q0 63 53 64l268 -8l248 6q360 0 524 -97q106 -61 164 -170t60 -247q0 -424 -232 -633t-647 -209l-459 6l-203 -8q-39 0 -38 43q0 25 13 43t34 18l39 -2
q67 0 93 41t58 185l166 700q25 106 25 164z" />
    <glyph glyph-name="dcaron" unicode="&#x10f;" horiz-adv-x="1249" 
d="M1681 1497q0 -125 -87 -218t-220 -128q-29 -8 -48 -8t-34 11q-14 11 -14 30q0 37 37 43q76 12 125 53t49 92t-34 85t-34 77t34 74t87 30q139 0 139 -141zM807 796q0 76 -114 75t-232 -173q-66 -92 -117 -229t-51 -230t75 -93q76 0 148 75q72 76 155 212q83 137 109 233
t27 130zM907 176q0 -55 45 -55q86 0 144 117q8 18 15 46t43 28t36 -31q0 -20 -16 -58q-46 -104 -150 -177t-201 -73q-133 0 -133 113q0 74 24 154t23 90q0 8 -11 8q-12 0 -22 -13t-32 -49t-45 -65q-182 -240 -383 -240q-117 -1 -171 63t-55 159q0 209 152 438
q221 336 532 336q74 -1 107 -11t50 -10t30 45l69 252q27 98 27 150q0 61 -92 82q-23 5 -23 33t27 34q227 49 371 105q25 8 28 8q33 0 33 -27q0 -8 -107 -309t-268 -887q-47 -176 -47 -256z" />
    <glyph glyph-name="Dcroat" unicode="&#x110;" horiz-adv-x="1533" 
d="M459 212q0 -54 48 -79t177 -24q225 0 370 194q144 195 144 514q0 221 -76 313q-96 115 -286 115q-100 0 -129 -20t-50 -105l-67 -289q-6 -20 -6 -32q0 -23 22 -23h260q33 0 33 -26t-12 -58q-12 -31 -49 -30h-258q-29 0 -37 -33l-70 -301q-14 -62 -14 -116zM248 637
q0 25 -25 25h-143q-29 0 -29 20q1 30 15 62t40 32h146q33 0 39 31l51 217q25 106 25 164q0 66 -97 65l-34 -2q-35 0 -35 41q0 63 53 64l268 -8l248 6q360 0 524 -97q106 -61 164 -170t60 -247q0 -424 -232 -633t-647 -209l-459 6l-203 -8q-39 0 -38 43q0 25 13 43t34 18
l39 -2q66 0 92 42t59 184l66 276q6 31 6 37z" />
    <glyph glyph-name="dcroat" unicode="&#x111;" horiz-adv-x="1249" 
d="M807 791q-1 30 -23 51t-98 20q-109 0 -225 -164q-66 -90 -117 -228t-51 -231t75 -93q76 0 148 75q72 76 155 212t109 232t27 126zM907 176q0 -55 45 -55q86 0 144 117q8 18 15 46t43 28t36 -31q0 -20 -16 -58q-46 -104 -150 -177t-201 -73q-133 0 -133 113q0 74 24 154
t23 90q0 8 -11 8q-12 0 -22 -13t-32 -49t-45 -65q-182 -240 -383 -240q-117 -1 -171 63t-55 159q0 209 152 438q221 336 532 336q74 -1 107 -11t50 -10t38 72t21 82q0 20 -25 20h-191q-37 0 -36 33q0 27 14 47t41 21h209q25 0 31 24q25 90 24 148q0 61 -92 82q-23 5 -23 33
t27 34q227 49 371 105q25 8 28 8q33 0 33 -27q0 -8 -8 -29l-43 -120q-80 -225 -80 -242q0 -16 25 -16h104q43 0 43 -41q0 -27 -16 -43t-39 -17h-135q-25 0 -30 -22t-50 -160q-45 -139 -146 -506q-47 -176 -47 -256z" />
    <glyph glyph-name="Emacron" unicode="&#x112;" horiz-adv-x="1236" 
d="M1059 1606q1 -37 -15 -69t-49 -32h-460q-43 0 -43 43q0 104 59 105h463q45 0 45 -47zM-25 -4q-37 0 -36 41q0 63 49 63l41 -2q66 0 90 43q31 59 59 183l170 729q34 156 -1 184q-19 16 -68 16l-39 -2q-33 0 -33 35q0 70 47 70l451 -10l475 8q43 0 43 -39q-1 -13 -11 -101
t-16 -163q-4 -39 -52 -39t-48 39q0 106 -29 151q-23 27 -57 34t-122 7q-89 0 -167 -6q-35 0 -49 -53l-80 -340q-6 -20 -6 -47q0 -43 65 -43q95 0 147 20t93 144q12 32 55 32t43 -37q0 -14 -41 -160t-61 -249q-6 -37 -51 -37t-45 35l2 43q0 74 -28 93t-108 19t-97 -10
t-23 -39l-74 -327q-12 -53 -12 -95t41 -57q41 -14 195 -14t224 39t144 180q18 31 49 31q51 0 51 -39q0 -23 -33 -114t-59 -144q-33 -70 -88 -70l-629 12q-127 0 -246 -7t-125 -7z" />
    <glyph glyph-name="emacron" unicode="&#x113;" horiz-adv-x="931" 
d="M918 1219q0 -106 -58 -107h-432q-43 0 -43 37q0 57 17 86t40 29h439q37 0 37 -45zM342 547q0 -16 20 -17q8 0 54 14t103 48q56 34 85 66q70 78 70 151q0 74 -70 74t-140 -87t-116 -221q-6 -12 -6 -28zM293 268q0 -76 45 -124q45 -50 104 -50q98 0 156 33q100 57 131 158
q10 35 38 35q52 -1 52 -37q0 -20 -24 -64q-63 -106 -175 -177t-258 -71t-232 84q-85 84 -85 215q0 324 250 557q74 70 171 105t183 35q244 0 244 -176q0 -135 -186 -230q-77 -39 -137 -57t-212 -49q-43 -11 -54 -61t-11 -126z" />
    <glyph glyph-name="Ebreve" unicode="&#x114;" horiz-adv-x="1236" 
d="M1040 1776q39 0 39 -43q0 -113 -87 -189q-88 -76 -202 -76t-190 52t-76 151q0 14 4 55q4 52 48 52t49 -39q8 -127 163 -127t199 123q14 41 53 41zM-25 -4q-37 0 -36 41q0 63 49 63l41 -2q66 0 90 43q31 59 59 183l170 729q34 156 -1 184q-19 16 -68 16l-39 -2
q-33 0 -33 35q0 70 47 70l451 -10l475 8q43 0 43 -39q-1 -13 -11 -101t-16 -163q-4 -39 -52 -39t-48 39q0 106 -29 151q-23 27 -57 34t-122 7q-89 0 -167 -6q-35 0 -49 -53l-80 -340q-6 -20 -6 -47q0 -43 65 -43q95 0 147 20t93 144q12 32 55 32t43 -37q0 -14 -41 -160
t-61 -249q-6 -37 -51 -37t-45 35l2 43q0 74 -28 93t-108 19t-97 -10t-23 -39l-74 -327q-12 -53 -12 -95t41 -57q41 -14 195 -14t224 39t144 180q18 31 49 31q51 0 51 -39q0 -23 -33 -114t-59 -144q-33 -70 -88 -70l-629 12q-127 0 -246 -7t-125 -7z" />
    <glyph glyph-name="ebreve" unicode="&#x115;" horiz-adv-x="931" 
d="M874 1374q39 0 39 -43q1 -115 -77 -189t-190 -75q-112 0 -180 50q-69 50 -69 153q0 14 4 55q4 51 52 51q41 0 45 -39q8 -127 149 -127q68 0 109 28t65 95q14 41 53 41zM342 547q0 -16 20 -17q8 0 54 14t103 48q56 34 85 66q70 78 70 151q0 74 -70 74t-140 -87t-116 -221
q-6 -12 -6 -28zM293 268q0 -76 45 -124q45 -50 104 -50q98 0 156 33q100 57 131 158q10 35 38 35q52 -1 52 -37q0 -20 -24 -64q-63 -106 -175 -177t-258 -71t-232 84q-85 84 -85 215q0 324 250 557q74 70 171 105t183 35q244 0 244 -176q0 -135 -186 -230q-77 -39 -137 -57
t-212 -49q-43 -11 -54 -61t-11 -126z" />
    <glyph glyph-name="Edotaccent" unicode="&#x116;" horiz-adv-x="1236" 
d="M907 1579q0 -51 -34 -87q-35 -36 -83 -36t-79 32t-31 84t35 87t84 35t79 -32t29 -83zM-25 -4q-37 0 -36 41q0 63 49 63l41 -2q66 0 90 43q31 59 59 183l170 729q34 156 -1 184q-19 16 -68 16l-39 -2q-33 0 -33 35q0 70 47 70l451 -10l475 8q43 0 43 -39q-1 -13 -11 -101
t-16 -163q-4 -39 -52 -39t-48 39q0 106 -29 151q-23 27 -57 34t-122 7q-89 0 -167 -6q-35 0 -49 -53l-80 -340q-6 -20 -6 -47q0 -43 65 -43q95 0 147 20t93 144q12 32 55 32t43 -37q0 -14 -41 -160t-61 -249q-6 -37 -51 -37t-45 35l2 43q0 74 -28 93t-108 19t-97 -10
t-23 -39l-74 -327q-12 -53 -12 -95t41 -57q41 -14 195 -14t224 39t144 180q18 31 49 31q51 0 51 -39q0 -23 -33 -114t-59 -144q-33 -70 -88 -70l-629 12q-127 0 -246 -7t-125 -7z" />
    <glyph glyph-name="edotaccent" unicode="&#x117;" horiz-adv-x="931" 
d="M669 1366q51 0 81 -28t30 -79q0 -52 -32 -91q-33 -38 -83 -38t-81 30t-31 82t33 88t83 36zM342 547q0 -16 20 -17q8 0 54 14t103 48q56 34 85 66q70 78 70 151q0 74 -70 74t-140 -87t-116 -221q-6 -12 -6 -28zM293 268q0 -76 45 -124q45 -50 104 -50q98 0 156 33
q100 57 131 158q10 35 38 35q52 -1 52 -37q0 -20 -24 -64q-63 -106 -175 -177t-258 -71t-232 84q-85 84 -85 215q0 324 250 557q74 70 171 105t183 35q244 0 244 -176q0 -135 -186 -230q-77 -39 -137 -57t-212 -49q-43 -11 -54 -61t-11 -126z" />
    <glyph glyph-name="Eogonek" unicode="&#x118;" horiz-adv-x="1236" 
d="M1030 -334q40 0 39 -53q0 -23 -31 -43q-90 -74 -197 -74t-158 51q-50 51 -50 129q0 135 184 289q19 15 19 25t-25 10q-342 10 -431 10t-176 -3t-155 -7t-74 -4q-37 0 -36 41q0 63 49 63l41 -2q66 0 90 43q31 59 59 183l170 729q34 156 -1 184q-19 16 -68 16l-39 -2
q-33 0 -33 35q0 70 47 70l451 -10l475 8q43 0 43 -39q-1 -13 -11 -101t-16 -163q-4 -39 -52 -39t-48 39q0 113 -24 145t-59 40q-34 7 -86 7t-206 -6q-35 0 -49 -53l-80 -340q-6 -20 -6 -47q0 -43 65 -43q95 0 147 20t93 144q12 32 55 32t43 -37q0 -14 -41 -160t-61 -249
q-6 -37 -51 -37t-45 35l2 43q0 74 -28 93t-108 19t-97 -10t-23 -39l-74 -327q-12 -53 -12 -95t41 -57q41 -14 195 -14t224 39t144 180q18 31 49 31q51 0 51 -39q0 -23 -33 -114q-34 -91 -62 -149t-81 -65q-14 0 -27 -12q-156 -135 -155 -265q0 -104 98 -104q49 1 83 25
t52 24z" />
    <glyph glyph-name="eogonek" unicode="&#x119;" horiz-adv-x="931" 
d="M342 547q0 -16 20 -17q8 0 54 14t103 48q56 34 85 66q70 78 70 151q0 74 -70 74t-140 -87t-116 -221q-6 -12 -6 -28zM293 268q0 -76 45 -124q45 -50 104 -50q98 0 156 33q100 57 131 158q10 35 38 35q52 -1 52 -37q0 -20 -24 -64q-86 -143 -232 -207q-10 -2 -33 -18
q-164 -137 -163 -262q0 -102 96 -103q53 1 83 25t48 24q20 0 32 -15t11 -35q0 -20 -33 -44q-88 -72 -194 -72t-156 51q-49 50 -49 124q0 119 137 241q25 23 25 33t-17 10q-135 0 -220 84t-85 215q0 324 250 557q74 70 171 105t183 35q244 0 244 -176q0 -135 -186 -230
q-77 -39 -137 -57t-212 -49q-43 -11 -54 -61t-11 -126z" />
    <glyph glyph-name="Ecaron" unicode="&#x11a;" horiz-adv-x="1236" 
d="M494 1777q0 15 11 26q28 28 70 -5q115 -84 158 -124t55 -40t37 17q176 115 231 146t79 6q10 -11 10 -26t-15 -26q-254 -237 -288 -273t-75 -36q-40 0 -62 33q-80 117 -199 272q-12 15 -12 30zM-25 -4q-37 0 -36 41q0 63 49 63l41 -2q66 0 90 43q31 59 59 183l170 729
q34 156 -1 184q-19 16 -68 16l-39 -2q-33 0 -33 35q0 70 47 70l451 -10l475 8q43 0 43 -39q-1 -13 -11 -101t-16 -163q-4 -39 -52 -39t-48 39q0 106 -29 151q-23 27 -57 34t-122 7q-89 0 -167 -6q-35 0 -49 -53l-80 -340q-6 -20 -6 -47q0 -43 65 -43q95 0 147 20t93 144
q12 32 55 32t43 -37q0 -14 -41 -160t-61 -249q-6 -37 -51 -37t-45 35l2 43q0 74 -28 93t-108 19t-97 -10t-23 -39l-74 -327q-12 -53 -12 -95t41 -57q41 -14 195 -14t224 39t144 180q18 31 49 31q51 0 51 -39q0 -23 -33 -114t-59 -144q-33 -70 -88 -70l-629 12
q-127 0 -246 -7t-125 -7z" />
    <glyph glyph-name="ecaron" unicode="&#x11b;" horiz-adv-x="931" 
d="M670 1282q10 0 74 55t118 97q56 42 73 43q17 -1 29 -11t11 -24t-13 -30t-110 -127q-98 -112 -140 -163t-84 -51t-57 37q-51 123 -96 223t-45 107q0 39 45 39q23 0 53 -34t119 -147q13 -14 23 -14zM342 547q0 -16 20 -17q8 0 54 14t103 48q56 34 85 66q70 78 70 151
q0 74 -70 74t-140 -87t-116 -221q-6 -12 -6 -28zM293 268q0 -76 45 -124q45 -50 104 -50q98 0 156 33q100 57 131 158q10 35 38 35q52 -1 52 -37q0 -20 -24 -64q-63 -106 -175 -177t-258 -71t-232 84q-85 84 -85 215q0 324 250 557q74 70 171 105t183 35q244 0 244 -176
q0 -135 -186 -230q-77 -39 -137 -57t-212 -49q-43 -11 -54 -61t-11 -126z" />
    <glyph glyph-name="Gcircumflex" unicode="&#x11c;" horiz-adv-x="1544" 
d="M1278 1469q0 -15 -11 -26t-30 -11t-41 16q-116 84 -158 124t-54 40t-38 -17q-176 -115 -218 -139t-61 -24t-30 11q-10 11 -10 26t14 26q254 237 289 273t75 36t62 -32q80 -117 199 -273q12 -15 12 -30zM115 543q0 360 239 598q240 238 623 237q244 0 397 -55
q39 -12 39 -57q0 -8 -4 -58t-4 -207q-1 -47 -55 -47t-58 45q-10 121 -49 181q-59 92 -264 92q-145 0 -255 -67t-171 -179q-121 -221 -121 -504q0 -202 95 -316t274 -114q92 0 134 18t66 58q23 39 42 132t20 128q0 80 -105 80l-49 -2q-35 0 -35 45q0 25 12 47t38 23l338 -9
q68 0 146 6t81 7q43 0 43 -52q0 -27 -15 -45t-36 -18l-37 2q-41 0 -68 -35q-24 -39 -44 -137t-19 -152l8 -79q0 -17 -14 -33q-15 -16 -29 -20t-71 -10q-57 -7 -76 -12q-19 -6 -54 -16t-51 -13t-82 -16t-158 -14q-334 0 -502 155t-169 413z" />
    <glyph glyph-name="gcircumflex" unicode="&#x11d;" horiz-adv-x="1019" 
d="M368 1073q-17 0 -29 10q-11 11 -11 25t12 30t111 127q98 112 149 175q33 39 75 39t56 -37q51 -123 96 -223t45 -107q0 -39 -45 -39q-23 0 -53 34t-119 146q-12 15 -22 15t-74 -56t-156 -122q-18 -17 -35 -17zM412 -524q142 0 216 68q72 68 72 146q0 77 -57 120
q-91 66 -225 66t-225 -58q-91 -56 -91 -148t84 -143t226 -51zM461 365q96 -1 146 107t50 214t-23 148q-24 40 -86 40t-111 -61q-82 -105 -84 -276q-1 -172 108 -172zM348 152q0 -51 107 -70q301 -53 406 -119t106 -190q1 -174 -147 -283q-148 -108 -403 -108t-385 78
t-130 200q0 141 200 225q90 37 144 47t55 21q0 10 -18 14q-80 19 -121 59t-41 87q0 104 147 155q37 12 37 24t-18 19q-174 59 -174 262q0 170 120 280q121 110 326 110q160 0 246 -52q18 -14 41 -14t47 25q70 66 126 66q109 -1 107 -89q0 -47 -26 -72t-50 -25t-64 18
q-40 17 -50 18q-35 0 -35 -60l6 -76q1 -98 -27 -170t-112 -140t-240 -107q-80 -20 -112 -43q-68 -47 -68 -90z" />
    <glyph glyph-name="Gbreve" unicode="&#x11e;" horiz-adv-x="1544" 
d="M1219 1776q39 0 38 -43q0 -113 -87 -189q-88 -76 -202 -76t-190 52t-76 151q0 14 5 55q4 51 51 52q41 0 45 -39q8 -127 163 -127t199 123q15 41 54 41zM115 543q0 360 239 598q240 238 623 237q244 0 397 -55q39 -12 39 -57q0 -8 -4 -58t-4 -207q-1 -47 -55 -47t-58 45
q-10 121 -49 181q-59 92 -264 92q-145 0 -255 -67t-171 -179q-121 -221 -121 -504q0 -202 95 -316t274 -114q92 0 134 18t66 58q23 39 42 132t20 128q0 80 -105 80l-49 -2q-35 0 -35 45q0 25 12 47t38 23l338 -9q68 0 146 6t81 7q43 0 43 -52q0 -27 -15 -45t-36 -18l-37 2
q-41 0 -68 -35q-24 -39 -44 -137t-19 -152l8 -79q0 -17 -14 -33q-15 -16 -29 -20t-71 -10q-57 -7 -76 -12q-19 -6 -54 -16t-51 -13t-82 -16t-158 -14q-334 0 -502 155t-169 413z" />
    <glyph glyph-name="gbreve" unicode="&#x11f;" horiz-adv-x="1019" 
d="M819 1374q39 0 39 -43q0 -115 -78 -189t-189 -75q-111 0 -180 50t-69 153q0 14 4 55q4 51 51 51q41 0 45 -39q8 -127 150 -127q68 0 108 28t66 95q14 41 53 41zM412 -524q142 0 216 68q72 68 72 146q0 77 -57 120q-91 66 -225 66t-225 -58q-91 -56 -91 -148t84 -143
t226 -51zM461 365q96 -1 146 107t50 214t-23 148q-24 40 -86 40t-111 -61q-82 -105 -84 -276q-1 -172 108 -172zM348 152q0 -51 107 -70q301 -53 406 -119t106 -190q1 -174 -147 -283q-148 -108 -403 -108t-385 78t-130 200q0 141 200 225q90 37 144 47t55 21q0 10 -18 14
q-80 19 -121 59t-41 87q0 104 147 155q37 12 37 24t-18 19q-174 59 -174 262q0 170 120 280q121 110 326 110q160 0 246 -52q18 -14 41 -14t47 25q70 66 126 66q109 -1 107 -89q0 -47 -26 -72t-50 -25t-64 18q-40 17 -50 18q-35 0 -35 -60l6 -76q1 -98 -27 -170t-112 -140
t-240 -107q-80 -20 -112 -43q-68 -47 -68 -90z" />
    <glyph glyph-name="Gdotaccent" unicode="&#x120;" horiz-adv-x="1544" 
d="M1049 1579q0 -51 -34 -87t-82 -36t-80 32t-32 84t35 87t84 35t79 -32t30 -83zM115 543q0 360 239 598q240 238 623 237q244 0 397 -55q39 -12 39 -57q0 -8 -4 -58t-4 -207q-1 -47 -55 -47t-58 45q-10 121 -49 181q-59 92 -264 92q-145 0 -255 -67t-171 -179
q-121 -221 -121 -504q0 -202 95 -316t274 -114q92 0 134 18t66 58q23 39 42 132t20 128q0 80 -105 80l-49 -2q-35 0 -35 45q0 25 12 47t38 23l338 -9q68 0 146 6t81 7q43 0 43 -52q0 -27 -15 -45t-36 -18l-37 2q-41 0 -68 -35q-24 -39 -44 -137t-19 -152l8 -79
q0 -17 -14 -33q-15 -16 -29 -20t-71 -10q-57 -7 -76 -12q-19 -6 -54 -16t-51 -13t-82 -16t-158 -14q-334 0 -502 155t-169 413z" />
    <glyph glyph-name="gdotaccent" unicode="&#x121;" horiz-adv-x="1019" 
d="M601 1366q50 0 81 -28t31 -79q0 -53 -33 -91t-83 -38t-81 30t-31 82t33 88t83 36zM412 -524q142 0 216 68q72 68 72 146q0 77 -57 120q-91 66 -225 66t-225 -58q-91 -56 -91 -148t84 -143t226 -51zM461 365q96 -1 146 107t50 214t-23 148q-24 40 -86 40t-111 -61
q-82 -105 -84 -276q-1 -172 108 -172zM348 152q0 -51 107 -70q301 -53 406 -119t106 -190q1 -174 -147 -283q-148 -108 -403 -108t-385 78t-130 200q0 141 200 225q90 37 144 47t55 21q0 10 -18 14q-80 19 -121 59t-41 87q0 104 147 155q37 12 37 24t-18 19
q-174 59 -174 262q0 170 120 280q121 110 326 110q160 0 246 -52q18 -14 41 -14t47 25q70 66 126 66q109 -1 107 -89q0 -47 -26 -72t-50 -25t-64 18q-40 17 -50 18q-35 0 -35 -60l6 -76q1 -98 -27 -170t-112 -140t-240 -107q-80 -20 -112 -43q-68 -47 -68 -90z" />
    <glyph glyph-name="Gcommaaccent" unicode="&#x122;" horiz-adv-x="1544" 
d="M874 -244q0 -125 -87 -218t-220 -128q-29 -8 -48 -8t-34 11q-14 11 -14 30q0 37 37 43q76 12 125 53t49 93t-34 84q-34 34 -34 77t34 74t87 31q139 -1 139 -142zM115 543q0 360 239 598q240 238 623 237q244 0 397 -55q39 -12 39 -57q0 -8 -4 -58t-4 -207q-1 -47 -55 -47
t-58 45q-10 121 -49 181q-59 92 -264 92q-145 0 -255 -67t-171 -179q-121 -221 -121 -504q0 -202 95 -316t274 -114q92 0 134 18t66 58q23 39 42 132t20 128q0 80 -105 80l-49 -2q-35 0 -35 45q0 25 12 47t38 23l338 -9q68 0 146 6t81 7q43 0 43 -52q0 -27 -15 -45t-36 -18
l-37 2q-41 0 -68 -35q-24 -39 -44 -137t-19 -152l8 -79q0 -17 -14 -33q-15 -16 -29 -20t-71 -10q-57 -7 -76 -12q-19 -6 -54 -16t-51 -13t-82 -16t-158 -14q-334 0 -502 155t-169 413z" />
    <glyph glyph-name="gcommaaccent" unicode="&#x123;" horiz-adv-x="1019" 
d="M412 -524q142 0 216 68q72 68 72 146q0 77 -57 120q-91 66 -225 66t-225 -58q-91 -56 -91 -148t84 -143t226 -51zM461 365q96 -1 146 107t50 214t-23 148q-24 40 -86 40t-111 -61q-82 -105 -84 -276q-1 -172 108 -172zM348 152q0 -51 107 -70q301 -53 406 -119t106 -190
q1 -174 -147 -283q-148 -108 -403 -108t-385 78t-130 200q0 141 200 225q90 37 144 47t55 21q0 10 -18 14q-80 19 -121 59t-41 87q0 104 147 155q37 12 37 24t-18 19q-174 59 -174 262q0 170 120 280q121 110 326 110q160 0 246 -52q18 -14 41 -14t47 25q70 66 126 66
q109 -1 107 -89q0 -47 -26 -72t-50 -25t-64 18q-40 17 -50 18q-35 0 -35 -60l6 -76q1 -98 -27 -170t-112 -140t-240 -107q-80 -20 -112 -43q-68 -47 -68 -90zM459 1198q0 125 87 218t220 128q29 8 48 8q20 0 34 -11t14 -30q0 -37 -37 -43q-76 -12 -125 -53t-49 -92t34 -85
t34 -77t-34 -74t-87 -30q-139 0 -139 141z" />
    <glyph glyph-name="Hcircumflex" unicode="&#x124;" horiz-adv-x="1574" 
d="M1300 1469q0 -15 -11 -26t-29 -11t-41 16q-115 84 -158 124t-54 40t-38 -17q-177 -115 -219 -139t-61 -24t-30 11q-10 11 -10 26t15 26q254 237 288 273t75 36q40 0 63 -32q80 -117 198 -273q12 -15 12 -30zM991 647h-315q-94 0 -114 -9t-27 -42l-62 -268
q-27 -113 -27 -162q0 -68 82 -68l45 2q33 0 33 -34q0 -70 -53 -70q-6 0 -94 6t-183 6l-294 -12q-43 0 -43 41q0 25 12 44t35 19l41 -2q57 0 87 36t64 190l164 706q25 104 25 156q0 68 -82 67l-45 -2q-33 0 -33 35q0 70 53 70l277 -13l294 13q43 0 43 -41q0 -25 -12 -44
t-35 -20l-41 2q-57 1 -86 -35t-65 -192l-47 -203l-6 -37q0 -18 22 -23t96 -5h320q80 0 94 10t25 49l49 213q25 104 24 156q0 68 -82 67l-45 -2q-33 0 -32 35q0 70 53 70l276 -13l295 13q43 0 43 -41q0 -25 -12 -44t-35 -20l-41 2q-57 1 -86 -35t-65 -192l-162 -698
q-27 -113 -27 -162q0 -68 82 -68l45 2q33 0 33 -34q0 -70 -53 -70q-6 0 -94 6t-183 6l-295 -12q-43 0 -43 41q0 25 12 44t35 19l41 -2q57 0 87 36t65 190l61 264q4 16 5 30q0 29 -99 29z" />
    <glyph glyph-name="hcircumflex" unicode="&#x125;" horiz-adv-x="1222" 
d="M1038 1674q0 -15 -11 -26q-27 -27 -71 5q-116 83 -158 123t-54 40t-37 -16q-176 -115 -231 -146t-79 -6q-10 11 -10 26t14 26q254 238 289 274t75 35q40 0 62 -33q80 -117 199 -272q12 -15 12 -30zM210 -16q-64 0 -99 28t-35 63q0 36 8 64q61 205 212 701t153 544
q0 63 -93 91q-22 6 -22 24q0 17 8 29t16 14q217 47 365 105q25 8 37 8q26 1 26 -17t-146 -444t-206 -569q-4 -12 -4 -15q0 -12 11 -12t18 10q74 117 129 172q176 176 356 176q59 0 97 -30t38 -82q-1 -104 -99 -360t-98 -307q0 -52 42 -52q74 0 120 86q18 39 27 63
q10 37 48 37t38 -37q-1 -18 -21 -58t-57 -85q-135 -158 -317 -158q-139 0 -139 113q0 65 44 184q140 379 140 455q0 47 -41 47q-52 0 -118 -60t-164 -209q-98 -150 -142 -345q-4 -18 -9 -78t-32 -78t-91 -18z" />
    <glyph glyph-name="Hbar" unicode="&#x126;" horiz-adv-x="1574" 
d="M1137 942h-498q-23 0 -29 -22l-22 -97l-6 -37q0 -18 22 -23t96 -5h320q80 0 94 10t31 74t16 80q0 20 -24 20zM1495 1075q0 -20 23 -20h108q49 0 49 -37q0 -32 -17 -54t-52 -22h-121q-23 0 -31 -27l-135 -587q-27 -113 -27 -162q0 -68 82 -68l45 2q33 0 33 -34
q0 -70 -53 -70q-6 0 -94 6t-183 6l-295 -12q-43 0 -43 41q0 25 12 44t35 19l41 -2q57 0 87 36t65 190l61 264q4 16 5 30q0 29 -99 29h-315q-94 0 -114 -9t-27 -42l-62 -268q-27 -113 -27 -162q0 -68 82 -68l45 2q33 0 33 -34q0 -70 -53 -70q-6 0 -94 6t-183 6l-294 -12
q-43 0 -43 41q0 25 12 44t35 19l41 -2q57 0 87 36t64 190l133 571q4 12 4 27q0 20 -24 20h-109q-47 0 -47 41q1 29 17 51t47 21h125q23 0 30 26q12 57 13 105q0 68 -82 67l-45 -2q-33 0 -33 35q0 70 53 70l277 -13l294 13q43 0 43 -41q0 -25 -12 -44t-35 -20l-41 2
q-60 1 -82 -29t-38 -83t-17 -66q0 -20 23 -20h497q23 0 31 26q12 57 12 105q0 68 -82 67l-45 -2q-33 0 -32 35q0 70 53 70l276 -13l295 13q43 0 43 -41q0 -25 -12 -44t-35 -20l-41 2q-56 0 -80 -27t-53 -122q-4 -24 -4 -29z" />
    <glyph glyph-name="hbar" unicode="&#x127;" horiz-adv-x="1222" 
d="M441 598q11 0 18 10q74 117 129 172q176 176 356 176q59 0 97 -30t38 -82q-1 -104 -99 -360t-98 -307q0 -52 42 -52q74 0 120 86q18 39 27 63q10 37 48 37t38 -37q-1 -18 -21 -58t-57 -85q-135 -158 -317 -158q-139 0 -139 113q0 65 44 184q140 379 140 455q0 47 -41 47
q-52 0 -118 -60t-164 -209q-98 -150 -142 -345q-4 -18 -9 -78t-32 -78t-91 -18t-99 28t-35 63q0 36 8 64q59 203 174 577t115 389q0 16 -25 15h-108q-37 0 -37 33q0 27 14 47t41 21h129q23 0 29 22l12 39q20 74 21 102q0 63 -93 91q-22 6 -22 24q0 17 8 29t16 14
q217 47 365 105q25 8 37 8q27 0 26 -23q0 -12 -8 -33l-112 -329q-6 -12 -6 -31t20 -18h184q43 0 43 -41q0 -27 -16 -43t-39 -17h-215q-27 1 -33 -24q-142 -401 -158 -442q-16 -40 -16 -48t11 -8z" />
    <glyph glyph-name="Itilde" unicode="&#x128;" horiz-adv-x="729" 
d="M453 1718q49 0 143 -48t142 -48t81 78q14 31 52 31t38 -37q0 -20 -12 -45q-66 -174 -192 -174q-53 0 -143 45t-139 45q-50 0 -93 -72q-14 -25 -43 -25q-43 0 -43 39q0 12 14 41q74 170 195 170zM446 166q0 -68 82 -68l45 2q33 0 33 -34q0 -70 -53 -70q-6 0 -94 6t-183 6
l-294 -12q-43 0 -43 41q0 25 12 44t35 19l41 -2q57 0 87 36t64 190l164 706q25 104 25 156q0 68 -82 67l-45 -2q-33 0 -33 35q0 70 53 70l277 -13l294 13q43 0 43 -41q0 -25 -12 -44t-35 -20l-41 2q-57 1 -86 -35t-65 -192l-162 -698q-27 -113 -27 -162z" />
    <glyph glyph-name="itilde" unicode="&#x129;" horiz-adv-x="724" 
d="M604 1268q43 0 76 78q14 31 49 30q37 0 37 -37q0 -4 -10 -45q-61 -174 -183 -174q-43 0 -131 47t-112 47q-53 0 -90 -69q-14 -25 -43 -25q-41 0 -41 37q0 2 12 39q76 172 186 172q36 0 125 -50t125 -50zM369 172q0 -47 49 -47t96 61q25 33 40 79t42 46q47 0 47 -39
q0 -20 -26 -66t-62 -87q-135 -145 -291 -145t-155 116q0 58 100 334t100 332t-37 55q-68 0 -116 -80q-12 -20 -24 -52t-38 -32q-46 0 -47 31q0 25 21 57q63 98 161 163t205 65q135 0 135 -123q0 -76 -100 -356t-100 -312z" />
    <glyph glyph-name="Imacron" unicode="&#x12a;" horiz-adv-x="729" 
d="M872 1616q0 -37 -15 -69t-48 -31h-461q-43 0 -43 43q0 104 60 104h462q45 0 45 -47zM446 166q0 -68 82 -68l45 2q33 0 33 -34q0 -70 -53 -70q-6 0 -94 6t-183 6l-294 -12q-43 0 -43 41q0 25 12 44t35 19l41 -2q57 0 87 36t64 190l164 706q25 104 25 156q0 68 -82 67
l-45 -2q-33 0 -33 35q0 70 53 70l277 -13l294 13q43 0 43 -41q0 -25 -12 -44t-35 -20l-41 2q-57 1 -86 -35t-65 -192l-162 -698q-27 -113 -27 -162z" />
    <glyph glyph-name="imacron" unicode="&#x12b;" horiz-adv-x="724" 
d="M731 1219q0 -106 -57 -107h-432q-43 0 -43 37q0 57 17 86t40 29h438q37 0 37 -45zM369 172q0 -47 49 -47t96 61q25 33 40 79t42 46q47 0 47 -39q0 -20 -26 -66t-62 -87q-135 -145 -291 -145t-155 116q0 58 100 334t100 332t-37 55q-68 0 -116 -80q-12 -20 -24 -52
t-38 -32q-46 0 -47 31q0 25 21 57q63 98 161 163t205 65q135 0 135 -123q0 -76 -100 -356t-100 -312z" />
    <glyph glyph-name="Ibreve" unicode="&#x12c;" horiz-adv-x="729" 
d="M831 1776q39 0 39 -43q0 -113 -87 -189t-201 -76t-191 52q-76 52 -76 151q0 14 4 55q5 52 49 52t48 -39q8 -127 163 -127t199 123q14 41 53 41zM446 166q0 -68 82 -68l45 2q33 0 33 -34q0 -70 -53 -70q-6 0 -94 6t-183 6l-294 -12q-43 0 -43 41q0 25 12 44t35 19l41 -2
q57 0 87 36t64 190l164 706q25 104 25 156q0 68 -82 67l-45 -2q-33 0 -33 35q0 70 53 70l277 -13l294 13q43 0 43 -41q0 -25 -12 -44t-35 -20l-41 2q-57 1 -86 -35t-65 -192l-162 -698q-27 -113 -27 -162z" />
    <glyph glyph-name="ibreve" unicode="&#x12d;" horiz-adv-x="724" 
d="M731 1374q39 0 39 -43q0 -115 -78 -189t-190 -75q-112 0 -180 50t-68 153q0 14 4 55q4 51 51 51q41 0 45 -39q8 -127 150 -127q68 0 108 28t66 95q14 41 53 41zM369 172q0 -47 49 -47t96 61q25 33 40 79t42 46q47 0 47 -39q0 -20 -26 -66t-62 -87q-135 -145 -291 -145
t-155 116q0 58 100 334t100 332t-37 55q-68 0 -116 -80q-12 -20 -24 -52t-38 -32q-46 0 -47 31q0 25 21 57q63 98 161 163t205 65q135 0 135 -123q0 -76 -100 -356t-100 -312z" />
    <glyph glyph-name="Iogonek" unicode="&#x12e;" horiz-adv-x="729" 
d="M394 -334q40 0 40 -53q0 -23 -31 -43q-90 -74 -197 -74t-158 51q-50 51 -50 129q0 141 195 297q14 9 14 21t-34 12t-80 -2t-78 -5t-33 -3q-43 0 -43 41q0 25 12 44t35 19l41 -2q57 0 87 36t64 190l164 706q25 104 25 156q0 68 -82 67l-45 -2q-33 0 -33 35q0 70 53 70
l277 -13l294 13q43 0 43 -41q0 -25 -12 -44t-35 -20l-41 2q-57 0 -86 -34q-28 -37 -65 -193l-162 -698q-27 -113 -27 -162q0 -68 82 -68l45 2q33 0 33 -34q0 -70 -53 -70l-186 10q-25 0 -37 -12q-168 -137 -168 -273q0 -104 98 -104q48 1 82 25t52 24z" />
    <glyph glyph-name="iogonek" unicode="&#x12f;" horiz-adv-x="724" 
d="M509 1161q-66 0 -103 38q-37 37 -37 105t45 113q44 45 106 45t98 -34t41 -93q0 -76 -42 -125t-108 -49zM369 172q0 -47 49 -47t96 61q25 33 40 79t42 46q47 0 47 -39q0 -20 -26 -66q-89 -157 -248 -212q-18 -4 -29 -14q-143 -130 -143 -240t96 -111q53 1 83 25t48 24
q20 0 32 -15t11 -35q0 -20 -33 -44q-88 -72 -194 -72t-156 51q-49 50 -49 124q0 125 155 258q31 26 -8 39q-74 25 -73 106q0 58 100 334t100 332t-37 55q-68 0 -116 -80q-12 -20 -24 -52t-38 -32q-46 0 -47 31q0 25 21 57q63 98 161 163t205 65q135 0 135 -123
q0 -76 -100 -356t-100 -312z" />
    <glyph glyph-name="Idotaccent" unicode="&#x130;" horiz-adv-x="729" 
d="M680 1579q0 -51 -34 -87t-82 -36t-80 32t-32 84t35 87t84 35t79 -32t30 -83zM446 166q0 -68 82 -68l45 2q33 0 33 -34q0 -70 -53 -70q-6 0 -94 6t-183 6l-294 -12q-43 0 -43 41q0 25 12 44t35 19l41 -2q57 0 87 36t64 190l164 706q25 104 25 156q0 68 -82 67l-45 -2
q-33 0 -33 35q0 70 53 70l277 -13l294 13q43 0 43 -41q0 -25 -12 -44t-35 -20l-41 2q-57 1 -86 -35t-65 -192l-162 -698q-27 -113 -27 -162z" />
    <glyph glyph-name="dotlessi" unicode="&#x131;" horiz-adv-x="724" 
d="M369 172q0 -47 49 -47t96 61q25 33 40 79t42 46q47 0 47 -39q0 -20 -26 -66t-62 -87q-135 -145 -291 -145t-155 116q0 58 100 334t100 332t-37 55q-68 0 -116 -80q-12 -20 -24 -52t-38 -32q-46 0 -47 31q0 25 21 57q63 98 161 163t205 65q135 0 135 -123q0 -76 -100 -356
t-100 -312z" />
    <glyph glyph-name="IJ" unicode="&#x132;" horiz-adv-x="1478" 
d="M623 -266q-184 0 -185 102q0 47 28 79t72 32t76 -40t72 -40q109 0 165 139t239 1020q20 100 20 160q0 68 -94 67l-53 -2q-33 0 -33 39q0 66 57 66l307 -13l287 13q45 0 45 -39q0 -66 -49 -66l-39 2q-49 -1 -81 -27t-64 -177q-35 -145 -80 -370t-78 -368t-106 -257
q-129 -201 -339 -284q-89 -36 -167 -36zM446 166q0 -68 82 -68l45 2q33 0 33 -34q0 -70 -53 -70q-6 0 -94 6t-183 6l-294 -12q-43 0 -43 41q0 25 12 44t35 19l41 -2q57 0 87 36t64 190l164 706q25 104 25 156q0 68 -82 67l-45 -2q-33 0 -33 35q0 70 53 70l277 -13l294 13
q43 0 43 -41q0 -25 -12 -44t-35 -20l-41 2q-57 1 -86 -35t-65 -192l-162 -698q-27 -113 -27 -162z" />
    <glyph glyph-name="ij" unicode="&#x133;" horiz-adv-x="1196" 
d="M1284 1326q0 -68 -42 -116q-42 -49 -108 -49t-104 38q-37 37 -37 105t45 113q46 45 108 45t100 -34t38 -102zM438 -606q-104 0 -156 32t-52 74t23 71q24 28 73 28t63 -39q29 -70 90 -70t111 90q82 147 287 907q57 217 57 271t-37 53q-68 0 -117 -80q-12 -20 -24 -52
t-38 -32q-46 0 -46 31q0 25 20 57q64 98 162 163t205 65q135 0 135 -123q0 -96 -108 -468t-168 -531q-61 -159 -150 -277q-45 -62 -136 -116t-194 -54zM509 1161q-66 0 -103 38q-37 37 -37 105t45 113q44 45 106 45t98 -34t41 -93q0 -76 -42 -125t-108 -49zM369 172
q0 -47 49 -47t96 61q25 33 40 79t42 46q47 0 47 -39q0 -20 -26 -66t-62 -87q-135 -145 -291 -145t-155 116q0 58 100 334t100 332t-37 55q-68 0 -116 -80q-12 -20 -24 -52t-38 -32q-46 0 -47 31q0 25 21 57q63 98 161 163t205 65q135 0 135 -123q0 -76 -100 -356t-100 -312z
" />
    <glyph glyph-name="Jcircumflex" unicode="&#x134;" horiz-adv-x="743" 
d="M887 1469q0 -15 -11 -26t-30 -11t-41 16q-115 84 -158 124t-54 40t-38 -17q-176 -115 -218 -139q-41 -24 -61 -24t-30 11t-10 26t14 26q254 237 289 273t75 36t62 -32q80 -117 198 -273q13 -15 13 -30zM-113 -266q-184 0 -184 102q0 47 28 79q27 32 71 32t77 -40t72 -40
q109 0 165 139t238 1020q20 100 20 164t-93 63l-54 -2q-33 0 -32 39q0 66 57 66l307 -13l287 13q45 0 45 -39q0 -66 -49 -66l-39 2q-49 -1 -81 -27t-66 -175t-78 -374t-78 -367q-33 -142 -106 -256q-129 -201 -340 -284q-89 -36 -167 -36z" />
    <glyph glyph-name="jcircumflex" unicode="&#x135;" horiz-adv-x="677" 
d="M191 1073q-17 0 -28 10q-11 11 -11 25t12 30t110 127q98 112 150 175q33 39 75 39t56 -37q51 -123 96 -223t45 -107q0 -39 -45 -39q-23 0 -53 34t-119 146q-12 15 -22 15t-74 -56q-63 -56 -119 -97q-56 -42 -73 -42zM-186 -606q-102 0 -156 32q-53 32 -53 74t23 71
q24 28 73 28t63 -39q28 -70 90 -70t111 90q82 147 287 907q57 217 57 271t-37 53q-68 0 -116 -80q-12 -20 -24 -52t-38 -32q-46 0 -47 31q0 25 21 57q63 98 161 163t205 65q135 0 135 -123q1 -96 -107 -468t-169 -531t-150 -277q-45 -62 -136 -116t-193 -54z" />
    <glyph glyph-name="Kcommaaccent" unicode="&#x136;" horiz-adv-x="1564" 
d="M850 -244q0 -125 -87 -218t-220 -128q-29 -8 -48 -8t-34 11q-14 11 -15 30q0 37 37 43q76 12 125 53t49 93q1 52 -33 84q-34 34 -34 77t34 74t87 31q139 -1 139 -142zM446 166q0 -68 82 -68l45 2q33 0 33 -34q0 -70 -53 -70q-6 0 -94 6t-183 6l-294 -12q-43 0 -43 41
q0 25 12 44t35 19l41 -2q57 0 87 36t64 190l164 706q25 104 25 156q0 68 -82 67l-45 -2q-33 0 -33 35q0 70 53 70l277 -13l294 13q43 0 43 -41q0 -25 -12 -44t-35 -20l-41 2q-57 1 -86 -35t-65 -192l-162 -698q-27 -113 -27 -162zM895 756q0 -22 18 -60q176 -332 369 -542
q43 -45 92 -45l41 2q37 0 37 -48t-51 -61q-53 -12 -205 -12t-220 66q-70 66 -128 166t-135 243q-77 144 -100 167q-24 24 -23 46q0 45 52 61t135 82q83 65 225 215t143 178q0 37 -53 37l-45 -2q-31 0 -31 33q0 32 14 54t39 22l266 -17q49 1 128 9t85 8q43 0 43 -41
q0 -68 -55 -68l-41 2q-61 -4 -104 -30q-135 -84 -385 -337q-54 -54 -82 -80t-29 -48z" />
    <glyph glyph-name="kcommaaccent" unicode="&#x137;" horiz-adv-x="1210" 
d="M659 -244q0 -125 -87 -218t-220 -128q-29 -8 -48 -8t-34 11q-14 11 -14 30q0 37 37 43q76 12 125 53t49 93t-34 84q-34 34 -34 77t34 74t87 31q139 -1 139 -142zM978 809q-40 -1 -100 -31t-116 -75q-55 -45 -55 -69q0 -57 163 -355q62 -117 112 -117t80 42t37 79t46 37
t39 -44t-78 -147q-117 -154 -256 -154q-86 0 -133 68q-45 68 -111 232t-80 183q-12 18 -28 36t-16 38t34 60q178 215 363 323q91 55 163 55t112 -26q40 -27 40 -76t-29 -83q-29 -33 -67 -33t-59 28t-61 29zM210 -16q-66 0 -98 28t-32 64q0 37 8 65q246 829 334 1135
q20 76 20 108q0 63 -90 91q-22 6 -22 24q0 17 8 29t16 14q231 51 371 105q25 8 37 8q27 0 26 -23q0 -12 -45 -140t-226 -707q-181 -578 -187 -680q-2 -25 -4 -53t-26 -48t-90 -20z" />
    <glyph glyph-name="kgreenlandic" unicode="&#x138;" horiz-adv-x="1210" 
d="M1010 809q-38 0 -98 -29q-58 -29 -120 -87q-62 -59 -61 -83q-1 -24 21 -70t147 -261q68 -117 111 -117q51 0 81 42q31 42 37 79t46 36q38 1 38 -43t-77 -147q-117 -154 -256 -154q-86 0 -134 68q-68 98 -170 340q-12 31 -34 68l-19 19q-16 17 -16 37t35 60
q335 401 533 403q150 1 149 -101q0 -50 -29 -84q-29 -33 -68 -33q-38 0 -58 28t-58 29zM239 -16q-66 0 -99 27q-48 42 -23 130q51 171 119 375t69 250q0 46 -37 45q-68 0 -116 -80q-12 -20 -24 -52t-38 -32q-46 0 -47 31q0 25 20 57q63 98 161 163t206 65q131 0 131 -123
q0 -42 -84 -297t-101 -340q-16 -86 -20 -132t-27 -67q-24 -20 -90 -20z" />
    <glyph glyph-name="Lacute" unicode="&#x139;" horiz-adv-x="1232" 
d="M434 1483q0 18 29 43q29 26 116 98t127 110t81 38t69 -28t26 -68q0 -40 -57 -79q-80 -47 -206 -102t-146 -55q-39 4 -39 43zM451 190q0 -42 41 -57q41 -14 191 -14t219 39t149 190q18 31 49 31q55 0 55 -39q0 -23 -34 -122q-35 -100 -63 -160t-83 -60l-629 12
q-127 0 -246 -7t-125 -7q-37 0 -36 41q0 63 49 63l41 -2q66 0 90 43q31 59 59 183l164 706q25 104 25 156q0 68 -82 67l-45 -2q-33 0 -33 35q0 70 53 70l277 -13l299 13q43 0 43 -41q-1 -25 -13 -44t-35 -20l-40 2q-61 0 -91 -34q-29 -37 -65 -193l-172 -741
q-12 -53 -12 -95z" />
    <glyph glyph-name="lacute" unicode="&#x13a;" horiz-adv-x="710" 
d="M510 1718q0 18 29 43t115 98t127 111q40 38 81 37q41 0 69 -28q27 -27 27 -67t-57 -79q-80 -47 -305 -145q-29 -12 -47 -13q-39 4 -39 43zM791 1632q0 -12 -16 -56t-116 -366q-99 -321 -205 -645t-106 -382t43 -58q55 0 103 61q25 33 40 79t41 46q47 0 48 -39
q0 -20 -26 -66t-62 -87q-135 -145 -291 -145t-156 116q0 61 180 640t182 648q1 69 -90 97q-22 6 -22 24q0 17 8 29t16 14q217 47 365 105q25 8 37 8q27 0 27 -23z" />
    <glyph glyph-name="Lcommaaccent" unicode="&#x13b;" horiz-adv-x="1232" 
d="M633 -244q0 -125 -87 -218t-220 -128q-28 -8 -48 -8t-34 11t-15 30q0 37 37 43q76 12 125 53t49 93t-34 84q-34 34 -34 77t35 74q34 31 87 31q139 -1 139 -142zM451 190q0 -42 41 -57q41 -14 191 -14t219 39t149 190q18 31 49 31q55 0 55 -39q0 -23 -34 -122
q-35 -100 -63 -160t-83 -60l-629 12q-127 0 -246 -7t-125 -7q-37 0 -36 41q0 63 49 63l41 -2q66 0 90 43q31 59 59 183l164 706q25 104 25 156q0 68 -82 67l-45 -2q-33 0 -33 35q0 70 53 70l277 -13l299 13q43 0 43 -41q-1 -25 -13 -44t-35 -20l-40 2q-61 0 -91 -34
q-29 -37 -65 -193l-172 -741q-12 -53 -12 -95z" />
    <glyph glyph-name="lcommaaccent" unicode="&#x13c;" horiz-adv-x="710" 
d="M365 -244q0 -125 -87 -218t-221 -128q-29 -8 -48 -8t-34 11q-14 11 -14 30q0 37 37 43q76 12 125 53t49 93t-34 84q-34 34 -34 77t34 74t87 31q140 -1 140 -142zM791 1632q0 -12 -16 -56t-116 -366q-99 -321 -205 -645t-106 -382t43 -58q55 0 103 61q25 33 40 79t41 46
q47 0 48 -39q0 -20 -26 -66t-62 -87q-135 -145 -291 -145t-156 116q0 61 180 640t182 648q1 69 -90 97q-22 6 -22 24q0 17 8 29t16 14q217 47 365 105q25 8 37 8q27 0 27 -23z" />
    <glyph glyph-name="Lcaron" unicode="&#x13d;" horiz-adv-x="1232" 
d="M1251 1235q0 -125 -87 -218t-220 -128q-29 -8 -48 -8t-34 11q-14 11 -14 30q0 37 37 43q76 12 125 53t49 92t-34 85t-34 77t34 74t87 30q139 0 139 -141zM451 190q0 -42 41 -57q41 -14 191 -14t219 39t149 190q18 31 49 31q55 0 55 -39q0 -23 -34 -122q-35 -100 -63 -160
t-83 -60l-629 12q-127 0 -246 -7t-125 -7q-37 0 -36 41q0 63 49 63l41 -2q66 0 90 43q31 59 59 183l164 706q25 104 25 156q0 68 -82 67l-45 -2q-33 0 -33 35q0 70 53 70l277 -13l299 13q43 0 43 -41q-1 -25 -13 -44t-35 -20l-40 2q-61 0 -91 -34q-29 -37 -65 -193
l-172 -741q-12 -53 -12 -95z" />
    <glyph glyph-name="lcaron" unicode="&#x13e;" horiz-adv-x="710" 
d="M1169 1497q0 -125 -87 -218t-220 -128q-29 -8 -48 -8t-34 11q-14 11 -14 30q0 37 37 43q76 12 125 53t49 92t-34 85t-34 77t34 74t87 30q139 0 139 -141zM791 1632q0 -12 -16 -56t-116 -366q-99 -321 -205 -645t-106 -382t43 -58q55 0 103 61q25 33 40 79t41 46
q47 0 48 -39q0 -20 -26 -66t-62 -87q-135 -145 -291 -145t-156 116q0 61 180 640t182 648q1 69 -90 97q-22 6 -22 24q0 17 8 29t16 14q217 47 365 105q25 8 37 8q27 0 27 -23z" />
    <glyph glyph-name="Ldot" unicode="&#x13f;" horiz-adv-x="1232" 
d="M1165 670q0 -72 -47 -125t-120 -53q-72 0 -112 40t-40 113q0 74 49 123t117 49t110 -37q43 -38 43 -110zM451 190q0 -42 41 -57q41 -14 191 -14t219 39t149 190q18 31 49 31q55 0 55 -39q0 -23 -34 -122q-35 -100 -63 -160t-83 -60l-629 12q-127 0 -246 -7t-125 -7
q-37 0 -36 41q0 63 49 63l41 -2q66 0 90 43q31 59 59 183l164 706q25 104 25 156q0 68 -82 67l-45 -2q-33 0 -33 35q0 70 53 70l277 -13l299 13q43 0 43 -41q-1 -25 -13 -44t-35 -20l-40 2q-61 0 -91 -34q-29 -37 -65 -193l-172 -741q-12 -53 -12 -95z" />
    <glyph glyph-name="ldot" unicode="&#x140;" horiz-adv-x="851" 
d="M944 682q0 -70 -44 -121t-114 -51t-107 39q-38 39 -38 109t47 117q48 48 112 48t104 -36q40 -35 40 -105zM791 1632q0 -12 -16 -56t-116 -366q-99 -321 -205 -645t-106 -382t43 -58q55 0 103 61q25 33 40 79t41 46q47 0 48 -39q0 -20 -26 -66t-62 -87
q-135 -145 -291 -145t-156 116q0 61 180 640t182 648q1 69 -90 97q-22 6 -22 24q0 17 8 29t16 14q217 47 365 105q25 8 37 8q27 0 27 -23z" />
    <glyph glyph-name="Lslash" unicode="&#x141;" horiz-adv-x="1232" 
d="M602 875q0 -14 14 -15q10 0 21 6l188 109q13 8 31 8t36 -26t17 -46q0 -20 -22 -32l-314 -187q-18 -10 -24 -37l-86 -370q-12 -53 -12 -95t41 -57q41 -14 191 -14t219 39t149 190q18 31 49 31q55 0 55 -39q0 -23 -34 -122q-35 -100 -63 -160t-83 -60l-629 12
q-127 0 -246 -7t-125 -7q-37 0 -36 41q0 63 49 63l41 -2q65 0 91 47t58 179l25 104q6 25 6 31q0 16 -13 16t-26 -8l-78 -47q-18 -10 -36 -10t-32 26q-31 54 5 80l209 121q16 10 22 37l82 356q25 104 25 156q0 68 -82 67l-45 -2q-33 0 -33 35q0 70 53 70l277 -13l299 13
q43 0 43 -41q-1 -25 -13 -44t-35 -20l-40 2q-61 0 -91 -34q-29 -37 -65 -193l-29 -125q-4 -12 -4 -26z" />
    <glyph glyph-name="lslash" unicode="&#x142;" horiz-adv-x="710" 
d="M348 170q0 -45 49 -45t97 61q25 33 40 79t41 46q47 0 48 -39q0 -20 -26 -66t-62 -87q-135 -145 -291 -145t-156 116q0 66 109 410q4 16 4 27q-1 11 -13 11t-24 -8l-23 -14q-10 -8 -25 -8t-30 26q-14 26 -14 40t22 28l152 96q16 10 30 55t154 523q20 76 21 108
q0 63 -91 91q-22 6 -22 24q0 17 8 29t16 14q217 47 365 105q25 8 37 8q27 0 27 -23q0 -12 -16 -54q-15 -42 -109 -343t-94 -316t10 -15q12 0 24 7l25 15q39 24 59 -10q12 -20 12 -40q0 -18 -20 -32l-154 -94q-16 -12 -34 -60t-82 -261q-64 -214 -64 -259z" />
    <glyph glyph-name="Nacute" unicode="&#x143;" horiz-adv-x="1568" 
d="M829 1483q0 18 29 43q29 26 116 98t127 110t81 38q40 0 68 -28t28 -68t-57 -79q-80 -47 -306 -145q-29 -12 -47 -12q-39 4 -39 43zM476 1020q-14 0 -25 -50q-12 -50 -35 -153q-23 -104 -75 -332t-52 -282t10 -68q12 -35 96 -35l45 2q35 0 35 -30q0 -74 -59 -74l-223 10
q-119 0 -175 -5q-57 -5 -63 -5q-41 0 -41 37q0 68 61 67l35 -2q63 0 99 41q33 45 63 174q123 493 160 655t37 208q0 77 -103 75l-41 -2q-35 0 -35 33q0 70 54 70l219 -11l176 11q17 0 24 -10t10 -12q3 -3 21 -40t186 -316q168 -280 296 -472q14 -23 26 -23t17 23
q129 572 131 688q0 61 -86 61l-60 -2q-41 0 -41 35q-1 29 15 49q16 21 32 21t78 -6q61 -6 185 -7l210 13q49 0 50 -39q1 -25 -13 -45t-41 -21l-49 2q-61 1 -97 -35t-73 -194q-90 -373 -221 -1001q-11 -49 -67 -49t-72 32q-103 215 -445 752q-106 168 -157 252q-8 10 -22 10z
" />
    <glyph glyph-name="nacute" unicode="&#x144;" horiz-adv-x="1253" 
d="M549 1073q-37 0 -37 35q0 20 20 45q96 133 181 260q39 59 96 60q84 0 84 -78q0 -41 -41 -82q-76 -76 -246 -213q-35 -27 -57 -27zM473 -16q-141 0 -141 104q0 24 10 60t97 281t85 335q0 47 -32 47q-45 0 -83 -44q-39 -44 -51 -82t-49 -38t-37 35q0 25 31 70
q63 92 159 151t202 60q52 0 80 -27t28 -77t-92 -259q-4 -12 -4 -19t11 -7t18 10q213 372 489 372q141 0 141 -116q0 -75 -60 -242q-9 -25 -27 -78t-63 -176q-44 -123 -45 -171t40 -48q61 0 110 70q23 33 35 75t50 41q38 0 38 -37q0 -18 -22 -63q-43 -76 -105 -129
q-129 -109 -268 -109t-139 107q0 47 91 321t93 332q0 39 -45 39t-94 -45q-139 -125 -209 -255t-117 -310q-6 -23 -9 -70t-9 -63q-6 -17 -32 -31t-75 -14z" />
    <glyph glyph-name="Ncommaaccent" unicode="&#x145;" horiz-adv-x="1568" 
d="M838 -244q0 -125 -87 -218t-221 -128q-29 -8 -48 -8t-33 11t-15 30q0 37 37 43q76 12 125 53t49 93t-34 84q-33 34 -33 77t33 74q34 31 87 31q140 -1 140 -142zM476 1020q-14 0 -25 -50q-12 -50 -35 -153q-23 -104 -75 -332t-52 -282t10 -68q12 -35 96 -35l45 2
q35 0 35 -30q0 -74 -59 -74l-223 10q-119 0 -175 -5q-57 -5 -63 -5q-41 0 -41 37q0 68 61 67l35 -2q63 0 99 41q33 45 63 174q123 493 160 655t37 208q0 77 -103 75l-41 -2q-35 0 -35 33q0 70 54 70l219 -11l176 11q17 0 24 -10t10 -12q3 -3 21 -40t186 -316
q168 -280 296 -472q14 -23 26 -23t17 23q129 572 131 688q0 61 -86 61l-60 -2q-41 0 -41 35q-1 29 15 49q16 21 32 21t78 -6q61 -6 185 -7l210 13q49 0 50 -39q1 -25 -13 -45t-41 -21l-49 2q-61 1 -97 -35t-73 -194q-90 -373 -221 -1001q-11 -49 -67 -49t-72 32
q-103 215 -445 752q-106 168 -157 252q-8 10 -22 10z" />
    <glyph glyph-name="ncommaaccent" unicode="&#x146;" horiz-adv-x="1253" 
d="M860 -244q0 -125 -87 -218t-220 -128q-29 -8 -48 -8t-34 11q-14 11 -14 30q0 37 37 43q76 12 124 53t50 93q0 52 -34 84q-34 34 -34 77t34 74t87 31q139 -1 139 -142zM473 -16q-141 0 -141 104q0 24 10 60t97 281t85 335q0 47 -32 47q-45 0 -83 -44q-39 -44 -51 -82
t-49 -38t-37 35q0 25 31 70q63 92 159 151t202 60q52 0 80 -27t28 -77t-92 -259q-4 -12 -4 -19t11 -7t18 10q213 372 489 372q141 0 141 -116q0 -75 -60 -242q-9 -25 -27 -78t-63 -176q-44 -123 -45 -171t40 -48q61 0 110 70q23 33 35 75t50 41q38 0 38 -37q0 -18 -22 -63
q-43 -76 -105 -129q-129 -109 -268 -109t-139 107q0 47 91 321t93 332q0 39 -45 39t-94 -45q-139 -125 -209 -255t-117 -310q-6 -23 -9 -70t-9 -63q-6 -17 -32 -31t-75 -14z" />
    <glyph glyph-name="Ncaron" unicode="&#x147;" horiz-adv-x="1568" 
d="M680 1777q0 15 11 26q28 28 71 -5q116 -84 158 -124t54 -40t38 17q176 115 231 146t78 6q10 -11 10 -26t-14 -26q-254 -237 -289 -273t-75 -36t-62 33q-80 117 -199 272q-12 15 -12 30zM476 1020q-14 0 -25 -50q-12 -50 -35 -153q-23 -104 -75 -332t-52 -282t10 -68
q12 -35 96 -35l45 2q35 0 35 -30q0 -74 -59 -74l-223 10q-119 0 -175 -5q-57 -5 -63 -5q-41 0 -41 37q0 68 61 67l35 -2q63 0 99 41q33 45 63 174q123 493 160 655t37 208q0 77 -103 75l-41 -2q-35 0 -35 33q0 70 54 70l219 -11l176 11q17 0 24 -10t10 -12q3 -3 21 -40
t186 -316q168 -280 296 -472q14 -23 26 -23t17 23q129 572 131 688q0 61 -86 61l-60 -2q-41 0 -41 35q-1 29 15 49q16 21 32 21t78 -6q61 -6 185 -7l210 13q49 0 50 -39q1 -25 -13 -45t-41 -21l-49 2q-61 1 -97 -35t-73 -194q-90 -373 -221 -1001q-11 -49 -67 -49t-72 32
q-103 215 -445 752q-106 168 -157 252q-8 10 -22 10z" />
    <glyph glyph-name="ncaron" unicode="&#x148;" horiz-adv-x="1253" 
d="M954 1282q10 0 74 55t120 97t72 43q17 -1 28 -11q24 -23 -5 -59q-8 -10 -106 -122t-150 -175q-33 -39 -75 -39t-56 37q-51 123 -96 223t-45 107q0 39 45 39q22 0 52 -34t120 -147q12 -14 22 -14zM473 -16q-141 0 -141 104q0 24 10 60t97 281t85 335q0 47 -32 47
q-45 0 -83 -44q-39 -44 -51 -82t-49 -38t-37 35q0 25 31 70q63 92 159 151t202 60q52 0 80 -27t28 -77t-92 -259q-4 -12 -4 -19t11 -7t18 10q213 372 489 372q141 0 141 -116q0 -75 -60 -242q-9 -25 -27 -78t-63 -176q-44 -123 -45 -171t40 -48q61 0 110 70q23 33 35 75
t50 41q38 0 38 -37q0 -18 -22 -63q-43 -76 -105 -129q-129 -109 -268 -109t-139 107q0 47 91 321t93 332q0 39 -45 39t-94 -45q-139 -125 -209 -255t-117 -310q-6 -23 -9 -70t-9 -63q-6 -17 -32 -31t-75 -14z" />
    <glyph glyph-name="napostrophe" unicode="&#x149;" horiz-adv-x="1253" 
d="M846 1432q0 -124 -87 -218t-220 -129q-29 -8 -49 -8q-20 -1 -33 11q-14 12 -15 30q0 37 37 43q76 12 125 53q49 40 49 92t-34 86q-33 34 -33 76t34 74q34 31 87 31q139 0 139 -141zM473 -16q-141 0 -141 104q0 24 10 60t97 281t85 335q0 47 -32 47q-45 0 -83 -44
q-39 -44 -51 -82t-49 -38t-37 35q0 25 31 70q63 92 159 151t202 60q52 0 80 -27t28 -77t-92 -259q-4 -12 -4 -19t11 -7t18 10q213 372 489 372q141 0 141 -116q0 -75 -60 -242q-9 -25 -27 -78t-63 -176q-44 -123 -45 -171t40 -48q61 0 110 70q23 33 35 75t50 41q38 0 38 -37
q0 -18 -22 -63q-43 -76 -105 -129q-129 -109 -268 -109t-139 107q0 47 91 321t93 332q0 39 -45 39t-94 -45q-139 -125 -209 -255t-117 -310q-6 -23 -9 -70t-9 -63q-6 -17 -32 -31t-75 -14z" />
    <glyph glyph-name="Eng" unicode="&#x14a;" horiz-adv-x="1568" 
d="M768 -518q-104 0 -159 32q-54 32 -54 74t29 74q30 31 74 31t72 -39t101 -39q74 0 113 35q39 34 86 146t47 218q0 16 -7 44q-8 28 -70 136t-502 816q-8 10 -22 10t-25 -50q-12 -50 -35 -153q-23 -104 -75 -331t-52 -282t10 -69q12 -35 96 -35l45 2q35 0 35 -30
q0 -74 -59 -74l-223 10q-119 0 -175 -5q-57 -5 -63 -5q-41 0 -41 37q0 68 61 67l35 -2q63 0 99 41q33 45 63 174q123 493 160 655t37 208q0 77 -103 75l-41 -2q-35 0 -35 33q0 70 54 70l219 -11l176 11q17 0 24 -10t10 -12q3 -3 21 -40t186 -316q168 -280 296 -472
q14 -23 26 -23t18 27q82 342 106 497q23 156 24 187q0 61 -86 61l-60 -2q-41 0 -41 35q-1 29 15 49q16 21 32 21t78 -6q61 -6 185 -7l210 13q49 0 50 -39q1 -25 -13 -45t-41 -21l-49 2q-61 1 -95 -33t-72 -184q-39 -150 -73 -313q-34 -161 -76 -359t-67 -309
q-61 -281 -192 -427t-287 -146z" />
    <glyph glyph-name="eng" unicode="&#x14b;" horiz-adv-x="1253" 
d="M328 -477q-145 0 -146 92q0 35 25 59t63 23q38 0 69 -30q30 -29 79 -29t78 36t75 152q119 300 191 584t74 323q0 39 -44 39t-94 -45q-138 -125 -208 -255t-117 -310q-5 -23 -9 -70t-10 -63q-6 -17 -32 -31t-74 -14q-141 0 -142 104q0 25 12 66q12 40 70 194
q57 154 84 249t27 155t-33 59q-45 0 -83 -44t-52 -89q-10 -31 -47 -31t-37 35q0 25 31 70q62 92 158 151t202 60q51 0 80 -27t29 -77t-92 -259q-4 -12 -4 -19t11 -7t17 10q213 372 490 372q55 0 95 -30t40 -118t-84 -362q-8 -24 -34 -112t-65 -209q-65 -200 -182 -367
q-167 -235 -411 -235z" />
    <glyph glyph-name="Omacron" unicode="&#x14c;" horiz-adv-x="1503" 
d="M1206 1606q0 -37 -15 -69t-48 -32h-461q-43 0 -43 43q0 104 59 105h463q45 0 45 -47zM1143 903q1 175 -61 271t-185 96q-225 0 -346 -255t-121 -546q0 -181 69 -285t199 -104q207 0 312 205q133 264 133 618zM1460 838q0 -389 -196 -627t-551 -238q-279 -1 -440 147
t-160 419q0 147 45 298t125 255q109 143 254 215t356 71q267 0 417 -140t150 -400z" />
    <glyph glyph-name="omacron" unicode="&#x14d;" horiz-adv-x="1036" 
d="M942 1219q0 -106 -57 -107h-432q-43 0 -43 37q0 57 17 86t40 29h438q37 0 37 -45zM735 729q0 143 -108 143q-96 0 -168 -118t-117 -266q-45 -146 -45 -242q0 -184 115 -185q98 0 170 125q57 98 105 274t48 269zM635 967q158 1 249 -87t91 -225t-44 -267t-117 -221
t-176 -143t-222 -53q-170 1 -268 95t-99 249q0 262 184 480q70 78 181 125t221 47z" />
    <glyph glyph-name="Obreve" unicode="&#x14e;" horiz-adv-x="1503" 
d="M1176 1776q39 0 38 -43q0 -113 -87 -189t-201 -76t-191 52q-76 52 -76 151q0 14 5 55q4 51 51 52q41 0 45 -39q8 -127 163 -127t199 123q15 41 54 41zM1143 903q1 175 -61 271t-185 96q-225 0 -346 -255t-121 -546q0 -181 69 -285t199 -104q207 0 312 205
q133 264 133 618zM1460 838q0 -389 -196 -627t-551 -238q-279 -1 -440 147t-160 419q0 147 45 298t125 255q109 143 254 215t356 71q267 0 417 -140t150 -400z" />
    <glyph glyph-name="obreve" unicode="&#x14f;" horiz-adv-x="1036" 
d="M901 1374q39 0 39 -43q0 -115 -78 -189t-190 -75q-112 0 -180 50t-68 153q0 14 4 55q4 51 51 51q41 0 45 -39q8 -127 150 -127q68 0 108 28t66 95q14 41 53 41zM735 729q0 143 -108 143q-96 0 -168 -118t-117 -266q-45 -146 -45 -242q0 -184 115 -185q98 0 170 125
q57 98 105 274t48 269zM635 967q158 1 249 -87t91 -225t-44 -267t-117 -221t-176 -143t-222 -53q-170 1 -268 95t-99 249q0 262 184 480q70 78 181 125t221 47z" />
    <glyph glyph-name="Ohungarumlaut" unicode="&#x150;" horiz-adv-x="1503" 
d="M1010 1450q-37 0 -37 39q0 16 31 47q30 26 120 102t138 119q38 39 76 39t60 -22t22 -62q0 -41 -62 -80q-144 -90 -236 -136t-112 -46zM647 1450q-37 0 -37 39q0 16 31 47q29 26 120 102t134 117t80 41t59 -22t22 -62q0 -41 -61 -80q-143 -90 -235 -136t-113 -46z
M1143 903q1 175 -61 271t-185 96q-225 0 -346 -255t-121 -546q0 -181 69 -285t199 -104q207 0 312 205q133 264 133 618zM1460 838q0 -389 -196 -627t-551 -238q-279 -1 -440 147t-160 419q0 147 45 298t125 255q109 143 254 215t356 71q267 0 417 -140t150 -400z" />
    <glyph glyph-name="ohungarumlaut" unicode="&#x151;" horiz-adv-x="1036" 
d="M744 1073q-18 0 -28 10q-11 11 -11 27q-1 16 27 55t163 248q37 59 88 60q82 0 82 -68q0 -35 -39 -80q-92 -102 -233 -225q-31 -27 -49 -27zM452 1073q-40 0 -40 39q0 19 18 41l172 260q37 59 88 60q82 0 82 -68q0 -35 -39 -80q-92 -102 -233 -225q-30 -27 -48 -27z
M735 729q0 143 -108 143q-96 0 -168 -118t-117 -266q-45 -146 -45 -242q0 -184 115 -185q98 0 170 125q57 98 105 274t48 269zM635 967q158 1 249 -87t91 -225t-44 -267t-117 -221t-176 -143t-222 -53q-170 1 -268 95t-99 249q0 262 184 480q70 78 181 125t221 47z" />
    <glyph glyph-name="OE" unicode="&#x152;" horiz-adv-x="2052" 
d="M113 530q0 387 252 627q223 211 571 211q202 0 316 -11t266 -11l477 8q43 0 43 -39q0 -13 -10 -101t-17 -163q-4 -39 -52 -39t-48 39q-1 113 -25 145t-58 40q-34 7 -124 7t-168 -6q-37 -2 -49 -53l-80 -340q-6 -23 -6 -47q0 -43 65 -43q94 0 146 20t94 144q12 32 55 32
t43 -37q0 -14 -41 -160t-61 -249q-6 -37 -51 -37t-45 35l2 43q0 74 -28 93t-108 19t-96 -10q-18 -10 -24 -39l-74 -327q-12 -53 -12 -95t41 -57q41 -14 195 -14t224 39t144 180q18 31 49 31q51 0 51 -39q0 -23 -33 -114t-59 -144q-33 -70 -88 -70l-588 12q-68 0 -141 -6
l-72 -4l-344 -14q-254 0 -393 156t-139 388zM956 1264q-262 0 -407 -265q-117 -209 -117 -512q0 -403 277 -403q189 0 241 94q19 31 33 103l182 792q13 55 13 101t-50 68t-172 22z" />
    <glyph glyph-name="oe" unicode="&#x153;" horiz-adv-x="1544" 
d="M954 546q0 -16 16 -16t23 2q154 41 224 126q69 85 69 155t-59 70q-87 -1 -157 -95t-109 -215q-7 -12 -7 -27zM735 730q0 70 -26 107q-27 35 -99 35t-148 -116t-122 -258q-45 -142 -45 -238q1 -96 25 -147t98 -51t138 86q64 87 101 203q78 245 78 379zM905 266
q0 -74 44 -122q44 -50 122 -50q150 0 238 125q20 27 32 64t51 37t40 -37q0 -20 -23 -62q-57 -102 -168 -176t-242 -74q-172 0 -249 115q-8 12 -14 12t-21 -10q-66 -61 -158 -89t-151 -28q-162 -1 -260 95t-97 251q0 256 164 453t420 197q188 0 266 -121q10 -18 16 -19
q10 0 37 27t112 70q84 43 194 43t179 -41t68 -119q0 -133 -123 -209q-96 -59 -173 -86t-244 -59q-37 -8 -45 -45q-15 -68 -15 -142z" />
    <glyph glyph-name="Racute" unicode="&#x154;" horiz-adv-x="1472" 
d="M651 1483q0 18 29 43q29 26 116 98t127 110t81 38q40 0 68 -28t28 -68t-58 -79q-80 -47 -305 -145q-29 -12 -47 -12q-39 4 -39 43zM989 1034q0 98 -55 156q-54 58 -126 59q-72 0 -95 -4q-31 -2 -41 -51l-90 -395q-6 -25 -6 -43q-1 -41 90 -41q156 0 240 81t83 238z
M-31 -2q-30 0 -30 41q0 21 12 41t37 20l45 -2q57 0 84 43q27 37 57 164l166 721q27 113 27 164q0 63 -88 63l-37 -2q-35 0 -35 39q0 25 12 45t35 21l281 -13l301 11q233 0 345 -81t111 -210q0 -326 -391 -408q-18 -2 -18 -11t12 -17q78 -53 131 -158q88 -178 170 -301
q51 -76 102 -76l41 2q37 0 37 -44t-41 -57t-151 -13t-174 24t-115 86q-53 54 -123 244t-84 215q-23 47 -59 57q-17 6 -55 6t-46 -43l-61 -264q-20 -90 -21 -143q0 -63 84 -64l37 2q39 0 39 -37q0 -68 -53 -67q-6 0 -108 6t-209 6z" />
    <glyph glyph-name="racute" unicode="&#x155;" horiz-adv-x="933" 
d="M530 1073q-37 0 -36 35q0 20 20 45q96 133 180 260q39 59 97 60q84 0 83 -78q1 -41 -40 -82q-76 -76 -246 -213q-35 -27 -58 -27zM238 -16q-53 0 -93 24q-39 25 -39 70t15 90t61 169q47 124 79 224t32 197q0 53 -39 53q-57 0 -113 -86q-10 -18 -22 -53q-6 -25 -44 -25
t-38 31q0 25 20 57q154 227 379 228q39 0 69 -22q30 -21 30 -83t-82 -266q-16 -33 4 -33q8 0 14 12q78 156 176 272q98 115 218 115t120 -94q0 -45 -31 -93t-90 -48q-32 1 -52 21t-52 20t-78 -37q-47 -37 -113 -132q-65 -95 -97 -157t-68 -170t-38 -150t-14 -88t-114 -46z
" />
    <glyph glyph-name="Rcommaaccent" unicode="&#x156;" horiz-adv-x="1472" 
d="M827 -244q0 -125 -87 -218t-220 -128q-29 -8 -48 -8t-34 11q-14 11 -14 30q0 37 37 43q76 12 125 53t49 93t-34 84q-34 34 -34 77t34 74t87 31q139 -1 139 -142zM989 1034q0 98 -55 156q-54 58 -126 59q-72 0 -95 -4q-31 -2 -41 -51l-90 -395q-6 -25 -6 -43
q-1 -41 90 -41q156 0 240 81t83 238zM-31 -2q-30 0 -30 41q0 21 12 41t37 20l45 -2q57 0 84 43q27 37 57 164l166 721q27 113 27 164q0 63 -88 63l-37 -2q-35 0 -35 39q0 25 12 45t35 21l281 -13l301 11q233 0 345 -81t111 -210q0 -326 -391 -408q-18 -2 -18 -11t12 -17
q78 -53 131 -158q88 -178 170 -301q51 -76 102 -76l41 2q37 0 37 -44t-41 -57t-151 -13t-174 24t-115 86q-53 54 -123 244t-84 215q-23 47 -59 57q-17 6 -55 6t-46 -43l-61 -264q-20 -90 -21 -143q0 -63 84 -64l37 2q39 0 39 -37q0 -68 -53 -67q-6 0 -108 6t-209 6z" />
    <glyph glyph-name="rcommaaccent" unicode="&#x157;" horiz-adv-x="933" 
d="M342 -244q0 -125 -87 -218t-220 -128q-29 -8 -48 -8t-34 11q-14 11 -14 30q0 37 36 43q76 12 125 53q50 41 50 93t-34 84q-34 34 -34 77t34 74t87 31q139 -1 139 -142zM238 -16q-53 0 -93 24q-39 25 -39 70t15 90t61 169q47 124 79 224t32 197q0 53 -39 53
q-57 0 -113 -86q-10 -18 -22 -53q-6 -25 -44 -25t-38 31q0 25 20 57q154 227 379 228q39 0 69 -22q30 -21 30 -83t-82 -266q-16 -33 4 -33q8 0 14 12q78 156 176 272q98 115 218 115t120 -94q0 -45 -31 -93t-90 -48q-32 1 -52 21t-52 20t-78 -37q-47 -37 -113 -132
q-65 -95 -97 -157t-68 -170t-38 -150t-14 -88t-114 -46z" />
    <glyph glyph-name="Rcaron" unicode="&#x158;" horiz-adv-x="1472" 
d="M475 1777q0 15 11 26q28 28 71 -5q115 -84 157 -124t54 -40t39 17q176 115 231 146t78 6q10 -11 10 -26t-14 -26q-254 -237 -289 -273t-75 -36t-62 33q-80 117 -199 272q-12 15 -12 30zM989 1034q0 98 -55 156q-54 58 -126 59q-72 0 -95 -4q-31 -2 -41 -51l-90 -395
q-6 -25 -6 -43q-1 -41 90 -41q156 0 240 81t83 238zM-31 -2q-30 0 -30 41q0 21 12 41t37 20l45 -2q57 0 84 43q27 37 57 164l166 721q27 113 27 164q0 63 -88 63l-37 -2q-35 0 -35 39q0 25 12 45t35 21l281 -13l301 11q233 0 345 -81t111 -210q0 -326 -391 -408
q-18 -2 -18 -11t12 -17q78 -53 131 -158q88 -178 170 -301q51 -76 102 -76l41 2q37 0 37 -44t-41 -57t-151 -13t-174 24t-115 86q-53 54 -123 244t-84 215q-23 47 -59 57q-17 6 -55 6t-46 -43l-61 -264q-20 -90 -21 -143q0 -63 84 -64l37 2q39 0 39 -37q0 -68 -53 -67
q-6 0 -108 6t-209 6z" />
    <glyph glyph-name="rcaron" unicode="&#x159;" horiz-adv-x="933" 
d="M618 1282q10 0 74 55t120 97t72 43q17 -1 28 -11q24 -23 -5 -59q-8 -10 -106 -122q-99 -112 -141 -163t-84 -51t-56 37q-51 123 -96 223t-45 107q0 39 45 39q22 0 52 -34t120 -147q12 -14 22 -14zM238 -16q-53 0 -93 24q-39 25 -39 70t15 90t61 169q47 124 79 224t32 197
q0 53 -39 53q-57 0 -113 -86q-10 -18 -22 -53q-6 -25 -44 -25t-38 31q0 25 20 57q154 227 379 228q39 0 69 -22q30 -21 30 -83t-82 -266q-16 -33 4 -33q8 0 14 12q78 156 176 272q98 115 218 115t120 -94q0 -45 -31 -93t-90 -48q-32 1 -52 21t-52 20t-78 -37
q-47 -37 -113 -132q-65 -95 -97 -157t-68 -170t-38 -150t-14 -88t-114 -46z" />
    <glyph glyph-name="Sacute" unicode="&#x15a;" horiz-adv-x="1073" 
d="M606 1483q0 18 29 43q29 26 116 98t127 110t81 38t69 -28t26 -68q0 -40 -57 -79q-80 -47 -305 -145q-29 -12 -47 -12q-39 4 -39 43zM459 -29q-103 0 -209 31t-146 64q-27 18 -28 51q-12 188 -13 245q1 41 51 41t56 -36q18 -111 59 -183q25 -44 94 -76t154 -32
q283 0 283 227q0 111 -168 238l-135 102q-102 78 -159 160q-56 82 -56 186q0 195 139 292t381 97q129 0 268 -43q61 -18 62 -53q0 -4 -6 -88t-7 -160q0 -35 -50 -35t-54 43q-4 90 -44 161t-198 71q-115 0 -178 -50t-63 -139q0 -113 131 -211l125 -94q74 -55 104 -80
q113 -96 138 -180q17 -55 18 -127q0 -201 -162 -311t-387 -111z" />
    <glyph glyph-name="sacute" unicode="&#x15b;" horiz-adv-x="813" 
d="M477 1073q-37 0 -37 35q0 20 58 99t143 206q39 59 96 60q84 0 84 -78q0 -41 -41 -82q-76 -76 -245 -213q-35 -27 -58 -27zM150 692q0 115 104 195t258 80t217 -60q41 -41 41 -91t-31 -76t-71 -25q-76 0 -90 51q-2 6 -4 24q-7 84 -82 84q-55 0 -92 -33q-36 -34 -36 -82
t32 -93t138 -123t144 -145q39 -67 39 -144q0 -115 -97 -200q-98 -85 -274 -85t-287 80q-70 53 -69 133q0 49 26 80q27 31 78 31t75 -22t24 -50l-5 -47q0 -43 33 -76q33 -32 107 -32t118 34q46 34 46 87q0 55 -37 101t-171 148t-134 256z" />
    <glyph glyph-name="Scircumflex" unicode="&#x15c;" horiz-adv-x="1073" 
d="M1055 1469q1 -15 -11 -26t-30 -11t-41 16q-115 84 -158 124t-54 40t-38 -17q-177 -115 -219 -139t-61 -24t-29 11q-27 29 4 52q254 237 289 273t75 36t62 -32q80 -117 198 -273q13 -15 13 -30zM459 -29q-103 0 -209 31t-146 64q-27 18 -28 51q-12 188 -13 245q1 41 51 41
t56 -36q18 -111 59 -183q25 -44 94 -76t154 -32q283 0 283 227q0 111 -168 238l-135 102q-102 78 -159 160q-56 82 -56 186q0 195 139 292t381 97q129 0 268 -43q61 -18 62 -53q0 -4 -6 -88t-7 -160q0 -35 -50 -35t-54 43q-4 90 -44 161t-198 71q-115 0 -178 -50t-63 -139
q0 -113 131 -211l125 -94q74 -55 104 -80q113 -96 138 -180q17 -55 18 -127q0 -201 -162 -311t-387 -111z" />
    <glyph glyph-name="scircumflex" unicode="&#x15d;" horiz-adv-x="813" 
d="M302 1073q-17 0 -29 10q-11 11 -11 25t12 30t111 127q99 112 141 163t84 51t56 -37q51 -123 96 -223t45 -107q0 -39 -45 -39q-22 0 -52 34t-120 146q-22 26 -49 -2q-111 -94 -203 -161q-19 -17 -36 -17zM150 692q0 115 104 195t258 80t217 -60q41 -41 41 -91t-31 -76
t-71 -25q-76 0 -90 51q-2 6 -4 24q-7 84 -82 84q-55 0 -92 -33q-36 -34 -36 -82t32 -93t138 -123t144 -145q39 -67 39 -144q0 -115 -97 -200q-98 -85 -274 -85t-287 80q-70 53 -69 133q0 49 26 80q27 31 78 31t75 -22t24 -50l-5 -47q0 -43 33 -76q33 -32 107 -32t118 34
q46 34 46 87q0 55 -37 101t-171 148t-134 256z" />
    <glyph glyph-name="Scedilla" unicode="&#x15e;" horiz-adv-x="1073" 
d="M655 -297q1 -117 -119 -187t-241 -69q-47 0 -47 52q0 53 66 55t115 30q48 28 48 92q0 62 -78 86q-61 20 -4 115q37 63 37 78q0 14 -24 18q-96 8 -184 36t-120 57q-27 18 -28 51q-12 188 -13 245q1 41 51 41t56 -36q18 -111 59 -183q25 -44 94 -76t154 -32q283 0 283 227
q0 111 -168 238l-135 102q-102 78 -159 160q-56 82 -56 186q0 195 139 292t381 97q129 0 268 -43q61 -18 62 -53q0 -4 -6 -88t-7 -160q0 -35 -50 -35t-54 43q-4 90 -44 161t-198 71q-115 0 -178 -50t-63 -139q0 -113 131 -211l125 -94q74 -55 104 -80q113 -96 138 -180
q17 -55 18 -127q0 -175 -127 -283t-318 -133q-20 0 -35 -26q-22 -47 -22 -63t22 -25q127 -43 127 -160z" />
    <glyph glyph-name="scedilla" unicode="&#x15f;" horiz-adv-x="813" 
d="M150 692q0 115 104 195t258 80t217 -60q41 -41 41 -91t-31 -76t-71 -25q-76 0 -90 51q-2 6 -4 24q-7 84 -82 84q-55 0 -92 -33q-36 -34 -36 -82t32 -93t138 -123t144 -145q39 -66 39 -156t-81 -171t-237 -98q-25 -3 -40 -35t-15 -47t21 -24q127 -39 127 -156
q0 -76 -60 -134q-116 -111 -291 -109q-49 0 -49 49t64 51q154 4 159 110q0 68 -75 93q-29 11 -29 35q-1 24 29 80t30 65q0 20 -28 24q-102 11 -178 69t-74 138q0 49 26 80q27 31 78 31t75 -22t24 -50l-5 -47q0 -43 33 -76q33 -32 107 -32t118 34q46 34 46 87q0 55 -37 101
t-171 148t-134 256z" />
    <glyph glyph-name="Scaron" unicode="&#x160;" horiz-adv-x="1073" 
d="M467 1777q0 15 11 26q28 28 71 -5q115 -84 157 -124t54 -40t39 17q176 115 231 146t78 6q10 -11 10 -26t-14 -26q-254 -237 -289 -273t-75 -36t-62 33q-80 117 -199 272q-12 15 -12 30zM459 -29q-103 0 -209 31t-146 64q-27 18 -28 51q-12 188 -13 245q1 41 51 41t56 -36
q18 -111 59 -183q25 -44 94 -76t154 -32q283 0 283 227q0 111 -168 238l-135 102q-102 78 -159 160q-56 82 -56 186q0 195 139 292t381 97q129 0 268 -43q61 -18 62 -53q0 -4 -6 -88t-7 -160q0 -35 -50 -35t-54 43q-4 90 -44 161t-198 71q-115 0 -178 -50t-63 -139
q0 -113 131 -211l125 -94q74 -55 104 -80q113 -96 138 -180q17 -55 18 -127q0 -201 -162 -311t-387 -111z" />
    <glyph glyph-name="scaron" unicode="&#x161;" horiz-adv-x="813" 
d="M557 1282q10 0 74 55t119 97t72 43q16 -1 28 -11t12 -24t-12 -30t-110 -127q-98 -112 -150 -175q-33 -39 -75 -39t-56 37q-51 123 -96 223t-46 107q0 39 45 39q22 0 52 -34t121 -147q12 -14 22 -14zM150 692q0 115 104 195t258 80t217 -60q41 -41 41 -91t-31 -76t-71 -25
q-76 0 -90 51q-2 6 -4 24q-7 84 -82 84q-55 0 -92 -33q-36 -34 -36 -82t32 -93t138 -123t144 -145q39 -67 39 -144q0 -115 -97 -200q-98 -85 -274 -85t-287 80q-70 53 -69 133q0 49 26 80q27 31 78 31t75 -22t24 -50l-5 -47q0 -43 33 -76q33 -32 107 -32t118 34q46 34 46 87
q0 55 -37 101t-171 148t-134 256z" />
    <glyph glyph-name="uni0162" unicode="&#x162;" horiz-adv-x="1343" 
d="M942 57q0 -19 -12 -39t-28 -20t-245 10q-25 0 -36 -24q-41 -76 -41 -94t22 -27q127 -43 127 -160t-120 -187t-240 -69q-47 0 -47 52q0 53 66 55t115 30q48 28 48 90q0 64 -78 88q-31 10 -31 36t42 105t42 87q0 20 -26 20l-246 -12q-35 0 -35 47q0 19 12 37t31 18l43 -2
q84 0 115 42t57 159l191 827q10 40 10 68t-19 37q-29 12 -123 12t-158 -47q-62 -47 -102 -168q-12 -31 -55 -31t-43 35q0 6 84 289q12 37 39 37q2 0 92 -6t448 -6t479 5q122 5 126 5q37 0 37 -37q-1 -10 -25 -125t-31 -158q-8 -39 -54 -39t-46 37l4 82q0 55 -26 86
q-39 41 -160 41t-145 -19t-35 -75l-193 -848q-20 -94 -20 -123t8 -45q20 -35 100 -35l47 2q35 0 35 -43z" />
    <glyph glyph-name="uni0163" unicode="&#x163;" horiz-adv-x="753" 
d="M383 176q0 -45 41 -45q31 0 75 31t68 82q2 6 15 41q8 33 48 33t40 -37q0 -14 -17 -52q-41 -87 -125 -157t-190 -90q-24 -10 -40 -41q-31 -58 5 -74q127 -39 127 -156q0 -76 -60 -134t-138 -84t-152 -25q-49 0 -49 49t63 51q154 4 160 110q0 68 -76 93q-28 11 -28 35
t32 86t33 74q0 13 -18 20q-84 31 -84 137q0 68 95 358t95 326q0 12 -16 12l-117 -2q-33 0 -33 27q0 18 8 43q8 20 43 22q111 12 142 25q92 39 151 162q33 70 93 70t61 -50q-1 -24 -23 -100t-22 -80q0 -12 24 -12l158 4q41 0 41 -33q0 -78 -55 -78l-170 2q-20 0 -27 -20
q-20 -61 -61 -197t-79 -258q-38 -123 -38 -168z" />
    <glyph glyph-name="Tcaron" unicode="&#x164;" horiz-adv-x="1343" 
d="M561 1777q0 15 11 26q28 28 71 -5q115 -84 157 -124t54 -40t39 17q176 115 231 147t78 5q10 -11 10 -26t-14 -26q-254 -237 -289 -273t-75 -36t-62 33q-80 117 -199 272q-12 15 -12 30zM1145 1243q-121 0 -145 -19t-35 -75l-193 -848q-20 -94 -20 -126t8 -42
q12 -35 100 -35l47 2q35 0 35 -43q0 -19 -12 -39t-37 -20l-336 12l-303 -12q-35 0 -35 47q0 19 12 37t31 18l43 -2q84 0 115 42t57 159l191 827q10 40 10 68t-19 37q-29 12 -123 12t-158 -47q-62 -47 -102 -168q-12 -31 -55 -31t-43 35q0 6 84 289q12 37 39 37q2 0 92 -6
t448 -6t479 5q122 5 126 5q37 0 37 -37q-1 -10 -25 -125t-31 -158q-8 -39 -54 -39t-46 37l4 82q0 55 -26 86q-39 41 -160 41z" />
    <glyph glyph-name="tcaron" unicode="&#x165;" horiz-adv-x="753" 
d="M1083 1356q0 -125 -87 -218t-220 -128q-58 -16 -77 -1t-19 33q0 37 37 43q76 11 125 53t49 93t-34 85t-34 77t34 73t87 31q139 0 139 -141zM383 176q0 -45 41 -45q31 0 75 31t68 82q2 6 15 41q8 33 48 33t40 -37q0 -14 -17 -52q-49 -102 -154 -179t-235 -77
q-66 0 -108 37t-43 109q0 72 95 362t95 326q0 12 -16 12l-117 -2q-33 0 -33 27q0 18 8 43q8 20 43 22q111 12 142 25q92 39 151 162q33 70 93 70t61 -50q-1 -24 -23 -100t-22 -80q0 -12 24 -12l158 4q41 0 41 -33q0 -78 -55 -78l-170 2q-20 0 -27 -20q-20 -61 -61 -197
t-79 -258q-38 -123 -38 -168z" />
    <glyph glyph-name="Tbar" unicode="&#x166;" horiz-adv-x="1343" 
d="M1145 1243q-121 0 -145 -19t-35 -75l-68 -301q-4 -12 -4 -25q0 -20 27 -20h237q43 0 43 -45q0 -33 -18 -51t-47 -19h-248q-27 0 -33 -26l-82 -361q-20 -94 -20 -129q0 -34 20 -54t88 -20l47 2q35 0 35 -43q0 -19 -12 -39t-37 -20l-336 12l-303 -12q-35 0 -35 47
q0 19 12 37t31 18l43 -2q84 0 115 42t57 159l80 346q4 20 4 23q0 20 -31 20h-233q-39 0 -39 39q0 31 15 53t46 23h246q29 0 35 28l68 295q10 40 10 68t-19 37q-29 12 -123 12t-158 -47q-62 -47 -102 -168q-12 -31 -55 -31t-43 35q0 6 84 289q12 37 39 37q2 0 92 -6t448 -6
t479 5q122 5 126 5q37 0 37 -37q-1 -10 -25 -125t-31 -158q-8 -39 -54 -39t-46 37l4 82q0 55 -26 86q-39 41 -160 41z" />
    <glyph glyph-name="tbar" unicode="&#x167;" horiz-adv-x="753" 
d="M510 625q0 -18 22 -19h113q43 0 43 -41q0 -27 -16 -43t-39 -16h-139q-23 0 -29 -23l-19 -55q-63 -207 -63 -252t41 -45q31 0 75 31t68 82q2 6 15 41q8 33 48 33t40 -37q0 -14 -17 -52q-49 -102 -154 -179t-235 -77q-66 0 -108 37q-42 38 -43 100q0 62 86 351q6 25 6 28
q0 16 -23 17h-59q-37 0 -37 33q0 27 14 47t41 20h84q23 0 31 23q47 149 47 178q0 12 -16 12l-117 -2q-33 0 -33 27q0 18 8 43q8 20 43 22q111 12 142 25q92 39 151 162q33 70 93 70t61 -50q-1 -24 -23 -100t-22 -80q0 -12 24 -12l158 4q41 0 41 -33q0 -78 -55 -78l-170 2
q-20 0 -27 -20l-45 -150q-6 -18 -6 -24z" />
    <glyph glyph-name="Utilde" unicode="&#x168;" horiz-adv-x="1548" 
d="M852 1718q50 0 144 -48t142 -48t81 78q14 31 52 31t38 -37q0 -20 -13 -45q-66 -174 -192 -174q-52 0 -142 45t-140 45t-93 -72q-16 -25 -43 -25q-43 0 -43 39q0 12 14 41q74 170 195 170zM697 -29q-275 -1 -401 105t-126 280q0 111 28 216q144 552 144 620q0 63 -78 61
l-39 -2q-35 0 -35 37q0 68 60 68l299 -13q86 1 164 7t84 6q53 0 53 -41q0 -62 -51 -64l-31 2q-49 1 -83 -25t-75 -196q-135 -571 -135 -688t73 -180t189 -64q215 0 317 106t164 380q118 509 119 604q0 57 -86 57l-51 -2q-35 0 -35 37q1 30 17 52t45 22l225 -13q57 1 126 7
t71 6q49 0 49 -37q0 -68 -41 -68l-49 2q-55 -4 -80 -34q-41 -55 -72 -185q-48 -215 -77 -354q-30 -140 -42 -191q-59 -262 -212 -390t-428 -128z" />
    <glyph glyph-name="utilde" unicode="&#x169;" horiz-adv-x="1280" 
d="M911 1268q43 0 76 78q14 31 49 30q37 0 37 -37q0 -4 -10 -45q-61 -174 -182 -174q-43 0 -131 47t-113 47q-53 0 -90 -69q-14 -25 -43 -25q-41 0 -41 37q0 2 12 39q76 172 187 172q35 0 124 -50t125 -50zM961 186q0 -64 49 -65q66 0 125 117q2 4 14 41q8 33 44 33t36 -26
t-21 -71q-53 -113 -144 -177t-181 -65q-154 0 -154 125q0 68 72 273q4 12 4 17t-9 5t-16 -12q-49 -98 -162 -229q-158 -178 -328 -178t-171 159q0 59 95 312t95 323q0 43 -37 43q-63 0 -116 -80q-14 -23 -26 -53t-47 -31q-36 0 -36 32t27 69q158 215 377 215q51 0 85 -29
t33 -76q0 -100 -93 -336t-93 -296t51 -60q66 0 152 87t164 228q131 242 133 373q0 92 94 92q164 0 164 -69q-1 -23 -11 -55t-20 -68q-10 -35 -21 -73q-11 -39 -31 -105t-59 -196q-38 -130 -38 -194z" />
    <glyph glyph-name="Umacron" unicode="&#x16a;" horiz-adv-x="1548" 
d="M1255 1606q0 -37 -15 -69t-48 -32h-461q-43 0 -43 43q0 104 60 105h462q45 0 45 -47zM697 -29q-275 -1 -401 105t-126 280q0 111 28 216q144 552 144 620q0 63 -78 61l-39 -2q-35 0 -35 37q0 68 60 68l299 -13q86 1 164 7t84 6q53 0 53 -41q0 -62 -51 -64l-31 2
q-49 1 -83 -25t-75 -196q-135 -571 -135 -688t73 -180t189 -64q215 0 317 106t164 380q118 509 119 604q0 57 -86 57l-51 -2q-35 0 -35 37q1 30 17 52t45 22l225 -13q57 1 126 7t71 6q49 0 49 -37q0 -68 -41 -68l-49 2q-55 -4 -80 -34q-41 -55 -72 -185q-48 -215 -77 -354
q-30 -140 -42 -191q-59 -262 -212 -390t-428 -128z" />
    <glyph glyph-name="umacron" unicode="&#x16b;" horiz-adv-x="1280" 
d="M1018 1219q0 -106 -57 -107h-433q-43 0 -43 37q-1 57 17 86t41 29h438q37 0 37 -45zM961 186q0 -64 49 -65q66 0 125 117q2 4 14 41q8 33 44 33t36 -26t-21 -71q-53 -113 -144 -177t-181 -65q-154 0 -154 125q0 68 72 273q4 12 4 17t-9 5t-16 -12q-49 -98 -162 -229
q-158 -178 -328 -178t-171 159q0 59 95 312t95 323q0 43 -37 43q-63 0 -116 -80q-14 -23 -26 -53t-47 -31q-36 0 -36 32t27 69q158 215 377 215q51 0 85 -29t33 -76q0 -100 -93 -336t-93 -296t51 -60q66 0 152 87t164 228q131 242 133 373q0 92 94 92q164 0 164 -69
q-1 -23 -11 -55t-20 -68q-10 -35 -21 -73q-11 -39 -31 -105t-59 -196q-38 -130 -38 -194z" />
    <glyph glyph-name="Ubreve" unicode="&#x16c;" horiz-adv-x="1548" 
d="M1227 1776q39 0 39 -43q0 -113 -87 -189t-201 -76t-192 52q-76 52 -75 151q0 14 4 55q4 51 51 52q41 0 45 -39q8 -127 163 -127t200 123q14 41 53 41zM697 -29q-275 -1 -401 105t-126 280q0 111 28 216q144 552 144 620q0 63 -78 61l-39 -2q-35 0 -35 37q0 68 60 68
l299 -13q86 1 164 7t84 6q53 0 53 -41q0 -62 -51 -64l-31 2q-49 1 -83 -25t-75 -196q-135 -571 -135 -688t73 -180t189 -64q215 0 317 106t164 380q118 509 119 604q0 57 -86 57l-51 -2q-35 0 -35 37q1 30 17 52t45 22l225 -13q57 1 126 7t71 6q49 0 49 -37q0 -68 -41 -68
l-49 2q-55 -4 -80 -34q-41 -55 -72 -185q-48 -215 -77 -354q-30 -140 -42 -191q-59 -262 -212 -390t-428 -128z" />
    <glyph glyph-name="ubreve" unicode="&#x16d;" horiz-adv-x="1280" 
d="M975 1374q39 0 39 -43q0 -115 -78 -189t-190 -75q-112 0 -180 50q-69 50 -68 153q0 14 4 55q4 51 51 51q41 0 45 -39q8 -127 150 -127q68 0 108 28t66 95q14 41 53 41zM961 186q0 -64 49 -65q66 0 125 117q2 4 14 41q8 33 44 33t36 -26t-21 -71q-53 -113 -144 -177
t-181 -65q-154 0 -154 125q0 68 72 273q4 12 4 17t-9 5t-16 -12q-49 -98 -162 -229q-158 -178 -328 -178t-171 159q0 59 95 312t95 323q0 43 -37 43q-63 0 -116 -80q-14 -23 -26 -53t-47 -31q-36 0 -36 32t27 69q158 215 377 215q51 0 85 -29t33 -76q0 -100 -93 -336
t-93 -296t51 -60q66 0 152 87t164 228q131 242 133 373q0 92 94 92q164 0 164 -69q-1 -23 -11 -55t-20 -68q-10 -35 -21 -73q-11 -39 -31 -105t-59 -196q-38 -130 -38 -194z" />
    <glyph glyph-name="Uring" unicode="&#x16e;" horiz-adv-x="1548" 
d="M1100 1627q0 106 -101 106q-47 0 -79 -35t-33 -86t25 -80t75 -29t81 35t32 89zM1184 1632q0 -82 -56 -144t-143 -62q-88 0 -136 48q-48 50 -48 134t59 142q58 58 142 58t133 -47t49 -129zM697 -29q-275 -1 -401 105t-126 280q0 111 28 216q144 552 144 620q0 63 -78 61
l-39 -2q-35 0 -35 37q0 68 60 68l299 -13q86 1 164 7t84 6q53 0 53 -41q0 -62 -51 -64l-31 2q-49 1 -83 -25t-75 -196q-135 -571 -135 -688t73 -180t189 -64q215 0 317 106t164 380q118 509 119 604q0 57 -86 57l-51 -2q-35 0 -35 37q1 30 17 52t45 22l225 -13q57 1 126 7
t71 6q49 0 49 -37q0 -68 -41 -68l-49 2q-55 -4 -80 -34q-41 -55 -72 -185q-48 -215 -77 -354q-30 -140 -42 -191q-59 -262 -212 -390t-428 -128z" />
    <glyph glyph-name="uring" unicode="&#x16f;" horiz-adv-x="1280" 
d="M883 1250q0 106 -101 106q-47 0 -80 -35q-32 -35 -32 -86t26 -80t74 -29q49 0 81 35t32 89zM967 1256q1 -82 -55 -144t-144 -63q-88 0 -136 49t-48 133t59 142q59 59 143 59t132 -47q49 -47 49 -129zM961 186q0 -64 49 -65q66 0 125 117q2 4 14 41q8 33 44 33t36 -26
t-21 -71q-53 -113 -144 -177t-181 -65q-154 0 -154 125q0 68 72 273q4 12 4 17t-9 5t-16 -12q-49 -98 -162 -229q-158 -178 -328 -178t-171 159q0 59 95 312t95 323q0 43 -37 43q-63 0 -116 -80q-14 -23 -26 -53t-47 -31q-36 0 -36 32t27 69q158 215 377 215q51 0 85 -29
t33 -76q0 -100 -93 -336t-93 -296t51 -60q66 0 152 87t164 228q131 242 133 373q0 92 94 92q164 0 164 -69q-1 -23 -11 -55t-20 -68q-10 -35 -21 -73q-11 -39 -31 -105t-59 -196q-38 -130 -38 -194z" />
    <glyph glyph-name="Uhungarumlaut" unicode="&#x170;" horiz-adv-x="1548" 
d="M1073 1450q-37 0 -37 39q0 16 31 47q29 26 120 102t134 117t80 41t59 -22t22 -62q0 -41 -61 -80q-143 -90 -235 -136t-113 -46zM711 1450q-37 0 -37 39q0 16 31 47q29 26 119 102t139 119q39 39 77 39t59 -22t21 -62q0 -41 -61 -80q-143 -90 -235 -136t-113 -46zM697 -29
q-275 -1 -401 105t-126 280q0 111 28 216q144 552 144 620q0 63 -78 61l-39 -2q-35 0 -35 37q0 68 60 68l299 -13q86 1 164 7t84 6q53 0 53 -41q0 -62 -51 -64l-31 2q-49 1 -83 -25t-75 -196q-135 -571 -135 -688t73 -180t189 -64q215 0 317 106t164 380q118 509 119 604
q0 57 -86 57l-51 -2q-35 0 -35 37q1 30 17 52t45 22l225 -13q57 1 126 7t71 6q49 0 49 -37q0 -68 -41 -68l-49 2q-55 -4 -80 -34q-41 -55 -72 -185q-48 -215 -77 -354q-30 -140 -42 -191q-59 -262 -212 -390t-428 -128z" />
    <glyph glyph-name="uhungarumlaut" unicode="&#x171;" horiz-adv-x="1280" 
d="M836 1073q-18 0 -28 10q-11 11 -11 27q-1 16 27 55t163 248q37 59 88 60q82 0 82 -68q0 -35 -39 -80q-92 -102 -233 -225q-31 -27 -49 -27zM544 1073q-40 0 -40 39q0 19 18 41l172 260q37 59 88 60q82 0 82 -68q0 -35 -39 -80q-92 -102 -233 -225q-31 -27 -48 -27z
M961 186q0 -64 49 -65q66 0 125 117q2 4 14 41q8 33 44 33t36 -26t-21 -71q-53 -113 -144 -177t-181 -65q-154 0 -154 125q0 68 72 273q4 12 4 17t-9 5t-16 -12q-49 -98 -162 -229q-158 -178 -328 -178t-171 159q0 59 95 312t95 323q0 43 -37 43q-63 0 -116 -80
q-14 -23 -26 -53t-47 -31q-36 0 -36 32t27 69q158 215 377 215q51 0 85 -29t33 -76q0 -100 -93 -336t-93 -296t51 -60q66 0 152 87t164 228q131 242 133 373q0 92 94 92q164 0 164 -69q-1 -23 -11 -55t-20 -68q-10 -35 -21 -73q-11 -39 -31 -105t-59 -196q-38 -130 -38 -194
z" />
    <glyph glyph-name="Uogonek" unicode="&#x172;" horiz-adv-x="1548" 
d="M856 -334q40 0 39 -53q0 -23 -31 -43q-90 -74 -198 -74t-157 51q-50 51 -50 129q0 125 151 263q10 8 11 18q0 14 -31 18q-216 19 -318 121t-102 260q0 111 28 216q144 552 144 620q0 63 -78 61l-39 -2q-35 0 -35 37q0 68 60 68l299 -13q86 1 164 7t84 6q53 0 53 -41
q0 -62 -51 -64l-31 2q-49 1 -83 -25t-75 -196q-135 -571 -135 -688t73 -180t189 -64q215 0 317 106t164 380q118 509 119 604q0 57 -86 57l-51 -2q-35 0 -35 37q1 30 17 52t45 22l225 -13q57 1 126 7t71 6q49 0 49 -37q0 -68 -41 -68l-49 2q-55 -4 -80 -34q-41 -55 -72 -185
q-48 -215 -77 -354q-30 -140 -42 -191q-53 -237 -183 -363t-368 -149q-25 -4 -32 -14q-131 -123 -131 -235t98 -111q49 1 83 25t52 24z" />
    <glyph glyph-name="uogonek" unicode="&#x173;" horiz-adv-x="1280" 
d="M961 186q0 -64 49 -65q66 0 125 117q2 4 14 41q8 33 44 33t36 -26t-21 -71q-45 -97 -121 -159t-157 -79q-12 0 -31 -14q-127 -119 -127 -226t96 -108q53 1 83 25t49 24q18 0 30 -15t10 -37t-30 -42q-88 -72 -194 -72t-157 51q-49 50 -49 124q0 131 168 268q14 14 14 22
t-16 21q-47 32 -47 100t72 273q4 12 4 17t-9 5t-16 -12q-49 -98 -162 -229q-158 -178 -328 -178t-171 159q0 59 95 312t95 323q0 43 -37 43q-63 0 -116 -80q-14 -23 -26 -53t-47 -31q-36 0 -36 32t27 69q158 215 377 215q51 0 85 -29t33 -76q0 -100 -93 -336t-93 -296
t51 -60q66 0 152 87t164 228q131 242 133 373q0 92 94 92q164 0 164 -69q-1 -23 -11 -55t-20 -68q-10 -35 -21 -73q-11 -39 -31 -105t-59 -196q-38 -130 -38 -194z" />
    <glyph glyph-name="Wcircumflex" unicode="&#x174;" horiz-adv-x="2035" 
d="M1591 1469q0 -15 -11 -26t-30 -11t-41 16q-115 84 -157 124t-54 40t-38 -17q-176 -115 -218 -139t-62 -24q-19 0 -30 11q-10 11 -10 26t14 26q254 237 289 273t75 36t62 -32q80 -117 199 -273q12 -15 12 -30zM1333 -23q-43 0 -51 31q-14 49 -20 89t-138 757q-6 39 -19 39
t-36 -39q-149 -234 -313 -508t-196 -322t-73 -47q-41 0 -51 31q-18 81 -88 1030q-10 136 -25 176t-63 39l-37 -2q-35 0 -35 45q0 25 18 42t46 18l270 -8q51 0 172 2l121 2q45 0 45 -39q0 -64 -53 -66l-51 2q-70 1 -92 -23t-21 -106q0 -82 2 -116l21 -498q2 -45 14 -45t39 43
l389 645q82 133 95 155q27 45 68 45q40 1 52 -49q8 -35 27 -145l120 -668q8 -39 19 -38q12 0 35 40l248 500q82 164 82 198t-21 48q-20 14 -78 14l-51 -2q-31 0 -31 33q0 70 53 72l267 -4l166 8q43 0 43 -47q0 -21 -14 -39t-38 -19l-41 2q-29 0 -50 -22t-99 -167
q-377 -706 -460 -865q-84 -160 -104 -191t-63 -31z" />
    <glyph glyph-name="wcircumflex" unicode="&#x175;" horiz-adv-x="1640" 
d="M761 1073q-17 0 -29 10q-11 11 -11 25t12 30t111 127q98 112 149 175q33 39 75 39t56 -37q51 -123 96 -223t46 -107q0 -39 -45 -39q-23 0 -53 34t-119 146q-13 15 -23 15t-74 -56t-119 -97q-55 -42 -72 -42zM1563 755q-1 -137 -59 -283q-117 -293 -348 -431
q-112 -68 -205 -68q-191 0 -191 183q0 56 13 124t13 81t-10 14q-10 0 -14 -13q-88 -192 -207 -290t-246 -99q-182 0 -182 160q0 57 19 122t91 255t72 246t-37 55q-66 0 -120 -86q-4 -8 -27 -59q-7 -18 -31 -18q-46 -1 -47 29q0 30 27 71q66 96 162 155t184 59t119 -33
q31 -34 31 -78q0 -45 -18 -105q-17 -60 -91 -256t-74 -246q0 -82 59 -82q74 0 158 95t152 269t86 332q4 44 39 64t121 20t88 -55q0 -57 -31 -168q-72 -264 -72 -457q0 -100 78 -100q143 0 254 175t111 349q0 131 -95 199q-39 27 -39 59t30 63t83 31t92 -57q62 -90 62 -226z
" />
    <glyph glyph-name="Ycircumflex" unicode="&#x176;" horiz-adv-x="1411" 
d="M1239 1469q0 -15 -11 -26t-30 -11t-41 16q-115 84 -157 124t-54 40t-39 -17q-176 -115 -218 -139t-61 -24t-30 11q-10 11 -10 26t14 26q254 237 289 273t75 36t62 -32q80 -117 199 -273q12 -15 12 -30zM967 59q-1 -23 -15 -42t-45 -19l-301 12l-309 -12q-37 0 -37 37
q0 25 13 47t40 20l49 -2q72 0 102 45t60 181l43 186q8 29 8 48t-12 50l-155 396q-22 63 -48 121q-26 59 -36 85q-16 41 -66 41l-35 -2q-33 0 -33 37q0 70 62 70q8 0 98 -6t191 -6l329 12q31 0 31 -39q0 -68 -59 -68l-39 2q-113 0 -113 -75q0 -55 39 -166l68 -199
q25 -74 44 -74t77 72l157 205q117 150 117 186t-18 43q-18 8 -54 8h-55l-18 -2q-31 0 -31 33q0 74 57 74l86 -6q83 -6 153 -6t142 6t88 6q40 0 41 -41q0 -27 -13 -45t-30 -19l-43 2q-37 -1 -82 -39t-178 -198l-332 -402q-4 -4 -11 -19t-14 -24t-12 -38l-49 -211
q-43 -172 -2 -205q20 -18 80 -19l35 2q35 0 35 -43z" />
    <glyph glyph-name="ycircumflex" unicode="&#x177;" horiz-adv-x="1179" 
d="M707 1288q-10 0 -74 -55q-63 -55 -119 -97t-73 -42t-28 10q-25 22 5 59q8 10 106 122t150 175q33 39 75 39t56 -37q51 -123 96 -223t45 -106q0 -39 -45 -39q-23 0 -39 18q-43 49 -133 162q-12 14 -22 14zM1077 721q0 -166 -50 -378t-96 -336q-46 -125 -116 -241
q-229 -381 -604 -380q-145 0 -214 39t-69 104q0 41 33 72t68 30q57 0 75 -46q18 -45 68 -71t118 -26q173 0 303 252q79 154 204 489q4 11 4 19t-9 8t-16 -8q-201 -274 -465 -275q-98 0 -144 41t-46 117t65 239q6 15 21 55q14 40 22 60q80 215 80 271t-39 55q-63 0 -116 -84
q-4 -6 -27 -57q-8 -23 -44 -23t-36 31t27 70q66 96 162 155t196 60q137 0 137 -117q0 -84 -92 -320t-92 -300q0 -63 76 -62q129 0 239 104t160 224q51 120 51 196q0 129 -59 197q-39 45 -39 71t30 55q30 27 84 27t91 -57q59 -94 59 -260z" />
    <glyph glyph-name="Ydieresis" unicode="&#x178;" horiz-adv-x="1411" 
d="M1214 1579q0 -51 -34 -87t-82 -36q-49 0 -80 32t-31 84t35 87t84 35q48 0 78 -32t30 -83zM852 1579q0 -51 -34 -87t-82 -36t-80 32t-32 84t35 87t84 35t79 -32t30 -83zM967 59q-1 -23 -15 -42t-45 -19l-301 12l-309 -12q-37 0 -37 37q0 25 13 47t40 20l49 -2q72 0 102 45
t60 181l43 186q8 29 8 48t-12 50l-155 396q-22 63 -48 121q-26 59 -36 85q-16 41 -66 41l-35 -2q-33 0 -33 37q0 70 62 70q8 0 98 -6t191 -6l329 12q31 0 31 -39q0 -68 -59 -68l-39 2q-113 0 -113 -75q0 -55 39 -166l68 -199q25 -74 44 -74t77 72l157 205q117 150 117 186
t-18 43q-18 8 -54 8h-55l-18 -2q-31 0 -31 33q0 74 57 74l86 -6q83 -6 153 -6t142 6t88 6q40 0 41 -41q0 -27 -13 -45t-30 -19l-43 2q-37 -1 -82 -39t-178 -198l-332 -402q-4 -4 -11 -19t-14 -24t-12 -38l-49 -211q-43 -172 -2 -205q20 -18 80 -19l35 2q35 0 35 -43z" />
    </font>
</defs>
</svg>
